<svg width="85" height="100" viewBox="0 0 85 100" fill="none" xmlns="http://www.w3.org/2000/svg">
<mask id="mask0_17_1725" style="mask-type:alpha" maskUnits="userSpaceOnUse" x="0" y="0" width="85" height="100">
<ellipse cx="42.2868" cy="50" rx="42.2868" ry="50" fill="#D9D9D9"/>
</mask>
<g mask="url(#mask0_17_1725)">
<path fill-rule="evenodd" clip-rule="evenodd" d="M46.8949 64.0871C47.1072 63.7877 46.9802 63.6588 47.3468 63.6007C48.4266 63.4338 48.4811 63.6062 49.4938 62.971C49.1381 63.8022 48.2252 64.4791 47.59 64.3775C47.4411 64.3539 47.0673 64.2287 46.893 64.0871M54.4157 64.029C54.3867 63.7731 54.0673 60.1162 53.9548 59.8711C53.6408 61.4338 53.7497 62.4882 53.7842 63.9165C53.8295 65.8475 54.0255 67.6751 54.0691 69.5445C54.0854 70.2432 53.9765 70.8566 53.9656 71.5426C53.9511 72.4392 53.9511 72.8439 53.1453 73.0073C52.5047 73.1379 51.7715 72.9564 51.1199 72.6933C51.2034 72.9873 51.4375 73.2886 51.639 73.5281C51.844 73.7713 52.178 74.0417 52.5736 74.0145C52.9874 73.9837 53.8295 73.3303 54.1145 72.902C54.884 71.7459 54.668 69.5681 54.6607 68.3285C54.6535 66.9619 54.5609 65.3412 54.4157 64.029ZM33.1834 70.8385C33.2379 71.1016 33.492 71.5136 33.6644 71.735C34.4284 72.7151 35.492 72.9201 36.6825 72.9746C37.5881 73.0163 38.0382 72.8494 38.639 72.5299C39.0056 72.3339 39.8422 71.8022 40.1471 71.343C39.9094 71.3902 39.5736 71.5245 39.3468 71.6098C37.5065 72.3013 36.7224 72.4356 34.893 71.6933C34.2524 71.4338 33.7424 71.0708 33.1816 70.8385H33.1834ZM50.5791 23.3103C51.8912 24.0544 51.7243 24.1071 53.2088 23.8748C53.8731 23.7713 57.6898 24.1143 58.7406 24.1652C59.6517 24.2087 60.354 23.8603 61.1689 23.7949C60.8277 24.1198 60.3322 24.4574 60.0201 24.7985C60.2851 24.8875 60.8132 25.0653 61.0727 25.1035C61.4339 25.1579 62.7932 24.6171 63.3921 24.5898C61.7878 25.9873 61.1272 25.9093 60.7424 26.1797C62.8731 26.9637 63.8513 26.3049 64.8096 26.4428L63.0074 27.1833C62.374 27.4483 62.0763 27.0817 61.0455 27.5227C59.4865 28.1906 59.7116 27.9528 59.5718 26.5608C59.5047 25.8911 59.5174 25.9456 59.2524 25.4465C58.9529 24.8839 58.9566 24.9546 58.1326 24.7314C57.6172 24.5917 57.2469 24.5245 56.7315 24.5064C54.1671 24.4138 55.3595 24.2396 52.9076 24.6007C52.5845 24.6479 52.6045 24.608 52.4157 24.8984C52.3123 25.0581 52.1907 25.2287 52.1181 25.412L53.4901 25.8203C53.2433 25.9274 52.0709 26.1107 51.8059 26.0817C51.5591 25.7169 51.2651 25.2123 50.8495 24.8584C50.5083 24.5681 49.6916 24.1525 49.4756 23.9292L50.5809 23.3103H50.5791ZM62.5373 44.3285L61.1344 42.5082C58.7388 39.4628 59.9203 41.0617 59.3558 38.2378C59.1362 37.1379 59.0745 36.9201 58.4484 36.1579C57.3087 34.7677 56.8767 33.9147 55.6462 32.5299C54.7351 31.5045 54.8495 31.7568 54.5083 30.5408C54.3813 30.0853 53.9058 28.6298 53.9003 28.3085C54.5228 29.0653 56.9693 32.6443 57.8785 33.931C58.5446 34.873 59.962 36.8603 60.3994 37.7205C60.4992 37.9183 60.5718 38.0163 60.6916 38.2269L61.2215 39.8475C61.3776 40.3757 62.55 44.127 62.5373 44.3285ZM72.8749 37.9891C73.0564 37.7495 73.256 37.6606 73.4284 37.4646L75.3087 38.1053C75.0872 38.3702 74.8368 38.3702 74.5972 38.6062C74.7497 38.9038 74.8967 39.3775 75.1417 39.6697C75.4575 40.0472 76.5482 41.245 76.7097 41.5535C76.8459 41.8131 77.0691 42.4628 77.1689 42.5898C76.962 42.4791 75.423 40.6334 75.1072 40.2686C74.4793 39.5445 73.0201 38.1742 72.8749 37.9891ZM65.492 46.9383C65.4575 46.8748 65.472 46.9129 65.4284 46.8113L65.3413 46.5209C64.8803 44.6225 64.2088 42.5499 63.717 40.4682C63.5863 39.9165 63.4992 39.3412 63.3504 38.7985C63.0346 37.6461 62.1417 35.4991 61.6172 34.2922C62.1108 34.5263 63.3504 35.8294 63.6317 36.2196C64.4194 37.3085 65.5283 37.7895 65.7333 38.1216L63.7134 37.4446C63.7696 37.8911 64.5428 39.7477 64.7479 40.0563L66.3577 42.2849L64.7569 41.0599L65.492 46.9419V46.9383ZM75.3776 42.5499C75.7279 42.7368 76.7533 43.5136 77.1199 43.8258C77.4684 44.1234 77.4847 45.4809 77.3685 46.0018C77.2361 46.5935 76.7533 47.9909 76.4774 48.4809C76.1054 49.1397 75.4067 49.49 74.9602 49.7241L74.5355 47.588L75.599 48.1089L75.3214 47.0236C75.5083 46.8584 76.0927 46.7586 76.3595 46.6407L76.4339 46.6025C76.443 46.5971 76.4611 46.5844 76.4702 46.5808C76.4774 46.5771 76.4938 46.5662 76.5047 46.5572C76.1381 46.1325 75.2161 45.588 74.9548 45.1869L76.1435 45.0581C75.9638 44.7132 75.2542 44.3793 75.0201 44.0363L76.4593 43.9619C76.3704 43.7405 75.5918 42.8385 75.3794 42.5481L75.3776 42.5499ZM48.3504 42.2396C48.0673 42.0417 47.6027 41.0182 47.4557 40.6152C46.9112 39.1379 47.2143 37.6842 48.1072 36.4011C48.4901 35.8494 49.1036 35.5789 49.6499 35.4646C50.0274 36.0635 49.795 36.392 49.6008 37.196C49.6517 37.1615 49.6371 37.1742 49.7097 37.1162L50.6317 36.2577C50.7188 36.4319 50.7696 36.8167 50.6989 37.0653C50.5918 37.4465 50.3141 37.4428 50.1834 37.6661C50.0419 37.9056 50.0382 38.3503 50.1689 38.5463C50.3468 38.8149 50.7206 38.7314 51.0056 38.735C50.8386 38.9347 50.7606 38.9437 50.6136 39.1434C51.5028 39.6279 51.5827 39.6298 51.2742 40.8221C50.1362 40.5426 50.3377 40.6624 49.7243 39.8893C49.7097 40.2523 50.158 41.1089 50.1181 41.4374C49.08 41.2722 49.1998 40.5935 48.8713 39.9546L48.6898 41.7659C48.4901 41.5735 48.5537 41.5608 48.394 41.3194L48.3504 42.245V42.2396ZM27.0092 39.0599C27.2288 38.3013 27.4411 37.5808 27.717 36.8457C28.0201 36.0436 28.3087 35.706 28.6444 35.0544C29.2941 33.7913 29.7406 32.314 30.1508 30.8766C30.2451 31.176 30.2887 31.5771 30.3649 31.9256C30.5246 32.6697 30.3377 32.6116 29.8132 33.588C29.2724 34.5935 29.4175 33.98 29.4266 35.3267C29.4303 35.8276 29.5537 36.0581 29.2687 36.5281C28.6807 37.4973 28.6589 37.7586 27.9021 38.3866L27.1489 38.9873C27.1344 38.9964 27.1181 39.0036 27.1054 39.0109C27.0927 39.0182 27.0709 39.029 27.0582 39.0345C27.0473 39.0399 27.0274 39.0508 27.011 39.0581L27.0092 39.0599ZM54.5863 43.7477C54.7025 43.8802 54.9348 44.1162 55.0146 44.2958C51.5174 42.7477 52.2687 44.4011 50.6698 44.7187C50.7842 44.4356 51.0727 43.9474 51.1344 43.7187C51.2125 43.4301 50.9693 43.1361 50.9475 42.7931C51.5156 42.8875 51.5863 42.882 52.1399 43.0871C52.6607 43.2813 53.9058 43.1579 54.4702 43.0799C54.8549 43.0272 55.0909 42.7931 55.4557 42.7387L55.4647 43.3212C55.2088 43.3829 54.7515 43.5572 54.5845 43.7477H54.5863ZM52.3958 44.5808C52.668 44.2722 53.1254 44.5644 53.3105 44.7532C53.1943 44.9583 53.1381 44.9837 52.8477 44.9147C52.57 44.8494 52.4538 44.7895 52.3958 44.5808ZM52.2778 45.1107C52.6317 45.4029 52.6862 45.8766 53.3831 45.608C53.5664 45.5372 53.6099 45.4809 53.7787 45.4428C54.2832 45.9764 53.521 46.2995 53.0999 46.1815C52.4121 45.9891 52.1272 45.804 52.2778 45.1107ZM50.9076 47.372L51.4629 46.6679C52.5373 46.9673 52.7678 46.8657 53.6734 46.6515C55.1816 46.2958 54.5319 46.0563 55.4575 45.8802C55.1526 47.5372 53.7842 46.784 52.8586 47.2995C51.9166 47.8221 51.6898 47.6842 50.9094 47.372H50.9076ZM51.55 44.8857C51.7533 45.1978 51.6335 45.5463 51.9475 46.0526C52.0618 46.2341 52.1199 46.2287 52.1326 46.4029C51.1018 46.5245 51.2651 45.6552 51.55 44.8857ZM20.5047 40.1416L23.6807 38.6878C23.6843 38.7024 23.6934 38.7096 23.6898 38.7314L23.55 40.7931C23.4466 41.9873 23.2724 44.0672 23.0764 45.1797C22.6734 47.4719 21.599 48.8421 22.1145 51.2015C22.3214 52.1506 22.5591 53.1125 22.7279 54.0799C22.9638 55.4192 23.0473 55.8058 22.6825 57.3557C22.0237 60.1652 21.1617 62.9038 20.0128 65.5318C19.864 65.873 19.7188 66.196 19.5754 66.5336C19.3522 67.0563 19.3068 67.0309 18.9166 67.2015L17.697 67.784C17.6299 67.8149 17.5718 67.8403 17.5083 67.8657C17.3395 67.9365 17.443 67.9202 17.2488 67.9528C16.9765 67.245 16.3776 66.069 16.3704 65.049C16.3631 64.0635 16.5319 62.3466 16.7079 61.3485C16.7297 61.3938 16.737 61.4047 16.7551 61.4828L17.0745 64.1996C17.1834 65.1416 16.6444 66.3466 17.1181 67.2033C17.5791 67.3993 18.129 67.0472 18.4157 66.8802C19.668 66.1506 20.1217 63.8276 20.541 62.343C20.7097 61.7477 20.8658 61.1162 21.0582 60.5336C21.247 59.9619 21.5065 59.4555 21.697 58.9111C23.5519 53.6334 20.4284 53.2922 21.1925 49.6951C21.4502 48.4828 21.8186 47.2813 22.1562 46.0835C22.5119 44.8221 22.3214 43.9238 22.3667 42.7858L22.1326 42.8584C22.0437 42.8929 22.0237 42.9074 21.9457 42.9456L20.7224 43.4882C20.8822 43.2595 22.5355 42 22.7878 41.7459C23.06 41.4719 22.9729 40.0145 22.9348 39.8911L20.501 40.1325L20.5047 40.1416ZM65.1471 49.8203C65.2578 51.8421 65.1526 53.1996 64.3958 55.3122C63.4212 58.029 64.0509 57.7005 63.7969 59.3666C63.7479 59.6824 63.5537 60.4483 63.2923 60.6933C63.1381 60.3267 62.884 58.5935 62.8495 58.2722C62.7225 57.098 62.9983 56.6334 63.3885 55.3866C63.9312 53.6515 63.8241 54.2759 64.0981 52.4338C64.1871 51.833 64.1943 51.5427 64.4502 50.9891C64.5736 50.7205 64.8568 49.931 65.1489 49.8221L65.1471 49.8203ZM31.5863 46.2269C31.6444 46.1053 32.844 44.8621 32.9947 44.7913C33.2451 44.6751 33.7715 44.6298 34.06 44.6878C34.7932 44.8385 34.5791 44.6878 35.1145 44.5372C35.4793 44.971 35.7243 45.5427 35.8495 45.6624C35.1435 45.4211 34.7061 44.706 33.5264 45.2541C33.3304 45.3448 33.2052 45.392 33.0419 45.4737L31.5863 46.225V46.2269ZM35.0836 46.2178C34.8967 46.8512 34.0564 46.4828 34.0618 46.0871C34.0709 45.5735 34.9747 45.6243 35.0836 46.2178ZM33.0655 47.3975C34.2433 47.6152 34.2306 47.4356 35.2941 47.1942C35.6553 47.1125 35.5863 47.2795 35.8967 47.4791C35.7878 47.6751 35.4883 47.9274 35.3577 48.0054C34.8059 48.3339 33.7043 48.0399 33.0655 47.3993V47.3975ZM64.9911 61.0109L66.7805 62.7278C68.697 64.5789 69.3268 65.1343 71.0364 67.196C71.2851 67.4955 71.5918 67.8294 71.786 68.1361C70.4829 67.5372 68.3885 66.049 67.5754 65.0653C66.9457 64.3049 66.697 63.7985 66.1943 63.118C66.0709 62.951 66.0237 62.7877 65.9094 62.6116C65.7823 62.4156 65.6734 62.2868 65.5682 62.0853C65.403 61.7623 65.0473 61.2868 64.9911 61.0091V61.0109ZM39.7515 59.9201C40.2488 58.902 40.4303 59.0127 41.7969 58.323C42.7606 57.8367 45.8731 57.4192 47.0945 57.4211C48.1126 57.4229 49.541 58.0926 49.688 58.6461C48.8059 58.4229 47.6426 58.0926 46.7987 58.1597C45.9094 58.2305 45.2923 58.706 44.57 58.9564C43.9203 59.1815 43.1018 59.1906 42.8295 59.3557C42.688 59.441 42.4611 59.5898 42.2996 59.6679C41.9511 59.8367 40.2978 59.8966 39.7515 59.9201ZM56.7696 67.5681C56.9239 67.6824 57.8549 68.6261 57.9638 68.7731C58.1417 69.0145 58.4303 70 58.4321 70.3612C58.3649 70.1924 58.2542 70.0018 58.1671 69.7931L57.893 69.1942C57.8313 69.3884 57.8586 69.6007 57.7914 69.7677C57.7224 69.9365 57.5809 70.0345 57.5101 70.2486C57.8041 70.6679 58.2016 71.0399 58.3831 71.4446C58.4756 71.6497 58.9257 72.5626 58.688 72.8911C58.4085 72.6824 58.5664 72.3394 57.9802 71.608C57.6789 71.2323 57.3232 70.8004 57.0038 70.4646C56.9947 70.7169 57.0401 71.0327 57.0636 71.2904C57.1381 72.098 57.815 72.1343 57.8332 73.4283C57.6263 73.196 57.3195 72.3521 56.9166 72.0345C56.8695 72.2849 56.7787 72.8203 56.815 73.0744C56.8586 73.3775 56.9747 73.7078 56.9929 74.0091L56.4067 73.5753L56.2088 74.265C55.8059 73.706 55.9566 73.637 56.1544 73.3049C56.5028 72.7187 56.3776 72.7586 56.4774 72.0962C56.6571 70.8839 56.4067 70.9837 56.6589 69.4918L57.158 69.7223C57.1834 69.5626 57.0201 68.726 56.9511 68.6207C56.6281 68.1289 56.3304 68.4283 56.7696 67.5681ZM39.0328 63.1978C39.443 63.4211 40.178 64.0073 40.6553 63.9964C41.129 63.9855 41.8186 63.735 42.2705 63.7514C42.0891 65.441 41.8223 65.1525 40.2451 64.4574C39.9402 64.3231 39.4339 64.2015 39.0999 64.1016L39.0328 63.1978ZM30.4811 61.167C30.6063 61.3575 30.6426 61.7877 30.7007 62.029C30.835 62.5971 30.8059 62.4211 30.6571 63.0817C30.3159 64.6116 30.5301 64.7695 30.4665 65.1942C29.9384 65.4574 29.4375 65.461 28.9402 65.6552C29.2615 65.8058 29.6244 65.8784 29.7261 66.1724C29.7733 66.3085 29.6898 67.0563 29.6535 67.2432C29.345 67.5245 29.0836 67.5753 28.8077 68.049C28.8876 68.2777 28.9929 68.4519 29.1362 68.6334C29.0945 68.8621 28.9511 69.2632 28.7987 69.372C28.6353 69.4719 27.8749 69.265 27.6535 69.225C27.864 68.9292 28.1961 68.853 28.4194 68.539C27.5428 68.225 27.8404 68.3503 27.207 68.7786C26.9729 68.9365 26.0001 68.8657 25.8313 68.8004L25.9421 68.1906C26.0473 68.1597 26.1689 68.1016 26.2923 68.0327C26.374 67.9855 26.5373 67.8512 26.6462 67.8294C26.9802 67.7622 27.3468 68.1016 27.6734 68.0018C28.1943 67.8403 28.6535 67.2051 28.8695 66.7459C28.6662 66.8494 28.1417 67.3975 27.8096 67.4882L27.9402 66.9691L26.8858 66.8548C27.0092 66.5535 27.3613 66.4519 27.4865 66.1234C27.6136 65.7895 27.668 65.2377 27.7878 64.8548C28.3141 64.5372 29.394 64.6388 29.9003 64.4102C29.6843 64.3194 28.5537 64.0653 28.5954 63.3757C28.9747 63.2886 29.0328 63.4192 29.2814 63.6225C29.5482 63.8403 29.8041 63.8058 30.0981 63.8094C29.9421 63.167 29.4575 62.9728 29.1308 62.6497L28.9802 62.4555L30.2088 62.6171C30.0183 62.363 29.8096 62.1289 29.59 61.8947C29.7587 61.6897 30.2415 61.3158 30.4829 61.1652L30.4811 61.167ZM42.4466 74.0817C42.8404 74.2323 45.3921 74.3303 45.9911 74.3485C48.0509 74.4065 47.8059 73.8857 49.0183 73.4483C49.2052 73.6697 49.5137 74.5354 49.6662 74.6878C49.7896 74.8094 50.7896 75.2051 51.0038 75.3466C51.0165 75.3557 51.031 75.3666 51.0437 75.3757C51.0546 75.3829 51.0709 75.3993 51.08 75.4047C51.0891 75.412 51.1054 75.4247 51.1163 75.4356C50.9802 75.5953 50.2397 76.2849 50.1199 76.3593C50.3232 76.3811 51.3377 76.1234 51.6408 76.0581C52.2107 75.9347 52.7025 75.8512 53.3522 75.8748C53.0437 76.6969 52.6317 77.0109 51.982 77.196C51.4829 77.3394 50.6807 77.6279 50.0273 77.4882C49.5537 77.3866 48.57 76.7241 48.0364 76.4664C47.7061 76.3067 47.3468 76.147 47.0038 76.0054C45.6843 75.461 45.5156 74.8475 43.9765 75.2868C42.6843 75.6552 41.4992 76.0145 40.1199 75.9183C39.4266 75.8711 38.5573 75.8548 37.893 75.7332C38.2923 74.9038 38.4484 75.1869 39.8495 74.6679C39.6517 74.3684 39.2379 74.1307 39.0691 73.8185C39.5609 73.9691 41.1272 74.7096 41.4901 74.5826C41.7243 74.4265 41.6553 74.118 41.8186 73.8076C41.9493 73.559 42.0963 73.4664 42.2851 73.3031C43.403 72.3303 43.0528 73.1252 45.0818 72.8621C45.5156 72.8058 46.0255 72.5426 46.4103 72.5045C47.2197 73.7459 44.4121 73.3267 43.4992 73.637L42.4484 74.0835L42.4466 74.0817ZM22.0854 80.9292L21.6081 80.7786C21.4139 81.6352 21.2669 82.8893 20.8404 83.4319L20.5646 83.6661C20.6843 82.2994 19.9965 82.7967 20.2869 82.0944C20.521 81.5281 20.7642 82.147 21.0818 80.5445C20.3486 80.6098 20.0038 81.412 19.4557 81.6152C19.7261 80.8839 21.2306 78.6806 21.8259 77.9855C22.0655 77.706 22.5791 77.1724 22.7188 76.9365C22.5301 76.7623 22.3577 76.6715 22.2669 76.4791C23.0963 76.118 23.3758 76.3557 23.9511 75.4719C24.1871 75.6824 24.2016 75.7985 24.5355 76.0218C24.7206 76.1452 24.9366 76.441 24.8132 76.6933C24.688 76.9528 23.8041 77.5608 23.6462 77.6406C22.9366 78 23.1399 77.7786 22.7715 79.1543C22.6045 79.775 22.4666 80.4555 22.0854 80.9292ZM60.9402 67.5644C61.3377 67.6697 62.1562 68.5045 62.2342 68.539C62.4103 68.6171 62.3286 68.5989 62.4647 68.539C62.2742 68.3648 62.0001 67.8929 61.8858 67.6243C61.795 67.4102 61.4067 66.9746 61.1671 66.7641L60.7751 66.2341C60.8132 65.971 60.8223 65.8475 60.9548 65.6171C61.3286 65.6769 61.3341 65.8421 61.6716 65.9419C61.8096 66.0708 62.1054 66.1597 62.3268 66.2359C62.3268 66.0091 62.1816 65.4174 62.0745 65.2287C61.9965 64.7786 61.7823 64.3212 61.8241 63.7985C61.8676 63.2668 62.0582 62.4809 62.178 61.9365C62.3195 62.1633 62.7134 63.5408 63.2869 64.4846L64.4448 66.1742C64.5246 66.2995 64.5518 66.3321 64.6335 66.4483L64.7642 66.6642C64.8059 66.7495 64.7896 66.7078 64.8223 66.7967L62.942 65.029C63.0981 66 63.5428 67.1325 64.0618 67.9601L63.3195 67.8258C63.7243 69.1779 64.2669 68.2505 64.1471 70.873C63.9239 70.6298 63.7751 70.3648 63.5882 70.1034C63.4629 69.9292 63.178 69.4519 63.0528 69.3503L63.2742 70.9038C62.9294 70.6606 62.697 70.2087 62.354 70.0109L62.4829 71.2105C62.1744 70.9129 61.844 70.3231 61.599 70.176L61.6081 71.147C61.1834 71.2123 60.3958 71.3593 60.0455 71.0671C60.0764 70.4156 61.0019 70.4646 60.4956 69.6443C60.3468 69.4029 59.7805 68.5989 59.5518 68.4156L58.8713 67.5499C59.6426 67.9038 60.7297 68.9964 61.4484 69.265C61.3359 68.8711 61.1489 68.6152 60.8985 68.2958C60.7279 68.078 60.7134 68.1343 60.7533 67.833C60.9148 67.686 60.8749 67.7623 60.9366 67.5644H60.9402ZM37.8912 79.167C38.3232 78.5935 38.7787 78.02 39.2379 77.5644C39.4865 77.4737 39.8132 77.1942 40.011 77.0109L40.4157 76.7659C40.4629 77.0635 40.4865 77.4537 40.5355 77.7278C41.2125 77.2868 41.7896 76.6515 42.6263 76.5644C43.2197 76.5027 43.5101 76.6443 44.1326 76.7477C44.6517 76.8348 45.1326 76.8022 45.6226 76.8566C45.3341 77.9909 45.3849 78.196 44.6553 78.9038C44.1126 79.4301 43.8168 79.6878 43.0764 79.8548C41.7352 80.1579 40.7315 80.1162 39.5627 80.9855L42.6825 80.6878C42.5682 80.8367 42.6444 80.7641 42.5065 80.8675L41.9783 81.1797C41.7315 81.3503 41.5101 81.4701 41.2506 81.6407C40.9058 81.8657 40.2488 82.4338 39.9421 82.8385C40.2215 82.7858 40.7751 82.5063 41.0981 82.3848C42.129 81.9982 42.3613 81.7731 43.1798 81.0726C43.5101 80.7913 43.8459 80.5463 44.1762 80.2486C45.4321 79.1216 45.6825 78.6352 47.1018 77.9093C47.492 77.7096 47.8731 77.4319 48.207 77.3358C49.2905 78.4555 50.0509 78.4156 51.5047 78.1942C52.501 78.0417 52.2143 78.1325 53.1816 78.6207C53.7569 78.9111 54.3921 79.2523 54.9802 79.51C54.9747 79.4955 54.9675 79.4592 54.9602 79.4682L54.9185 79.3884C54.3903 78.4483 53.4484 78.1216 53.501 77.1016C53.5446 77.0798 53.5646 77.0708 53.6299 77.0472L53.9983 76.9456C55.4538 76.6261 55.1435 77.0163 56.6807 76.7278C57.0128 76.6661 57.3994 76.6661 57.7097 76.5191L55.5754 75.9111C56.3105 75.5263 57.3286 75.461 58.0999 75.1343C58.4484 74.9873 60.1925 74.0617 60.3958 73.8711C60.3994 73.8875 60.4085 73.8966 60.403 73.922C60.3304 74.3013 59.9983 74.6334 59.7896 74.9564C61.2161 75.4265 62.2941 75.1379 63.3903 76.3122C63.8077 76.7604 64.0019 77.0926 64.0981 77.735C64.1362 77.9927 64.3649 79.2995 64.1344 79.5009C64.0872 79.1924 63.9729 79.0889 63.8586 78.7913C63.5627 78.0182 63.276 77.441 62.5827 76.9456C62.6498 77.2396 62.8223 77.5572 62.9293 77.8367C63.3849 79.02 63.3105 79.5771 63.4067 80.8911C63.4557 81.5735 63.5736 82.3503 63.5845 83.0073C63.5918 83.5118 63.4611 84.8675 63.3722 85.3902C63.1453 84.9165 63.2469 83.7205 63.0745 83.1778C62.864 83.8784 62.7479 84.7169 62.5664 85.4374C62.3831 86.1652 62.0292 86.8711 61.795 87.5209C61.7097 87.3339 61.7279 87.0635 61.717 86.8602C61.7025 86.6243 61.6807 86.392 61.6644 86.1652C61.6299 85.7187 61.5954 85.2668 61.5283 84.8439C61.3849 83.9365 61.0273 83.3212 60.7061 82.5227C60.1036 81.0218 60.3286 81.5372 60.2469 79.9891C60.2197 79.4828 60.1889 79.0672 59.9656 78.755C59.7569 78.4628 59.3014 78.0599 58.9021 77.8911C58.9257 78.2214 59.0292 78.5172 59.0909 78.833C59.3976 80.3975 59.6734 81.8621 59.8277 83.4755C59.8749 83.9782 60.0128 84.9583 59.9892 85.412L59.5446 84.51L58.8785 87.8258L58.6952 85.9419C58.4321 86.1797 57.9693 87.1307 57.7751 87.5209L57.1598 88.7858C57.1217 88.8657 57.0909 88.9401 57.0528 89.0073L56.9148 89.1906L56.4793 87.7804C55.8513 88.1851 53.7805 89.9437 53.472 90.7296C53.7025 90.7532 54.9675 90.2323 55.4012 90.167C55.1671 90.5009 54.1181 91.3593 54.0292 91.6025L55.2923 91.7114L55.0691 92.3158C54.1272 92.7532 53.6771 92.9328 53.5355 92.9946C53.1544 93.1615 52.8168 93.3575 52.4303 93.4701L53.4194 91.853C53.0019 92.0726 51.6027 92.9056 51.1417 92.9637C51.2451 92.7622 51.4012 92.6298 51.541 92.421C51.9239 91.8512 52.3577 90.9818 52.4956 90.2904C52.1344 90.3811 51.6444 90.6243 51.3794 90.9292C50.9947 91.372 51.1381 91.7296 50.5609 92.2486C50.1834 92.588 49.8622 92.7332 49.4901 93.0236C49.1344 93.2994 48.7551 93.461 48.1435 93.4265C48.5155 91.9728 48.7642 90.8112 48.8713 89.3684C48.1852 89.3956 47.7279 89.49 47.2088 89.882C47.06 89.9946 46.8332 90.127 46.6989 90.2087C46.7225 90.4102 46.9384 90.8167 47.0219 91.0236C47.1344 91.2994 47.276 91.559 47.3794 91.8276C47.4756 92.0762 47.7206 93.343 47.7388 93.6769C47.4629 93.4428 46.7551 92.0145 46.501 91.6661C46.3649 91.4773 45.0455 89.9564 44.9366 89.8947L44.5192 91.0272C44.7606 91.1688 45.8495 91.9201 45.982 92.1125L46.7116 93.6443C46.0891 93.5644 45.3631 93.4392 44.7551 93.3194C44.5882 93.2867 41.9112 91.6134 41.7315 91.4138C40.9675 90.5771 40.8041 90.3666 40.4321 89.372L39.9003 87.8475C39.786 87.5154 39.6335 87.4392 39.5718 87.0726C39.3794 85.9183 40.8077 84.5481 41.2941 83.8312C40.0854 84.1724 39.5047 85.3194 38.7134 86.637C38.2978 87.3303 38.4357 88.0127 37.4883 88.1597C36.9148 88.2486 36.2288 88.7042 35.8313 89.0018C35.8676 89.5209 36.256 90.1525 36.3087 90.6915C35.7424 90.637 34.8386 90.9873 34.3776 90.6461C33.8386 90.2486 33.3123 89.8621 32.7696 89.461C32.109 88.9746 32.3014 88.9002 31.9675 87.804C31.8404 87.3866 31.5972 86.2759 31.4248 85.9619C31.374 86.2795 31.3685 87.6661 31.4393 87.9183C31.5337 88.2577 31.9457 89.4156 31.9257 89.6515L26.5047 86.7332C26.9166 86.6515 27.5119 86.7641 27.8894 86.5644C27.668 86.4192 27.345 86.196 27.256 85.9492L29.2306 86.6189L28.8077 85.7695L30.2215 86.0218C30.1308 85.8729 28.9675 84.8421 28.7624 84.7368L28.06 85.6552L26.2651 85.1379L26.3921 85.9328C26.0564 85.8729 25.6263 85.8439 25.2724 85.8058C24.7696 85.7514 24.8622 85.9855 24.4883 86.2377C24.1344 86.1071 22.884 85.2141 22.55 84.9564C21.8513 84.4174 21.4466 84.1289 21.5809 83.1143C21.7025 82.196 22.2669 81.6044 22.7261 80.9728C23.1435 80.3993 23.403 78.9873 23.6081 78.2015C24.3068 77.9202 25.1254 77.6316 25.7987 77.2795L25.9166 77.2087L25.6081 75.7659L24.5736 75.6915C24.8168 75.412 25.648 74.9601 25.6862 74.5209C25.276 74.3775 24.1526 74.8076 23.8114 74.9365C23.4974 75.0526 23.2379 75.1615 22.9203 75.2722C22.7043 75.3485 22.1544 75.5118 22.0618 75.5735C22.1344 75.3466 22.2542 75.3485 22.325 75.0563C22.7134 74.1561 22.5246 74.4791 22.0437 73.931C21.6426 73.6769 20.4121 73.2069 20.2107 73.0436C20.8985 72.804 22.0745 72.8258 22.4157 72.7423C22.4684 72.0853 21.0328 71.4247 20.7733 71.1652C20.5591 70.951 19.8005 69.5626 19.7642 69.1543C20.2851 69.7532 20.6444 70.2922 21.7932 70.0544C22.3903 69.931 23.3195 69.5227 23.6753 69.1633C25.5863 69.6606 25.7878 69.9238 27.8186 70.0526C28.8096 70.1161 28.7624 70.1252 29.7061 70.5191C30.6734 70.922 32.0183 71.7368 32.4756 72.6679C32.7188 73.1652 32.8894 73.7477 33.1435 74.1597C33.9892 75.5281 34.668 75.4446 36.2143 75.1652C36.3903 75.4374 36.6716 75.9782 36.4484 76.4592C35.844 76.7151 35.6571 76.4319 35.1871 77.2232C35.5301 77.2414 36.4847 77.0454 36.8822 76.9818C37.4666 76.8875 38.0891 76.8603 38.7206 76.9383C38.9566 76.9546 38.7842 76.922 38.8241 77.0363C38.5192 77.1343 37.3486 78.3194 37.0909 78.7677C36.8186 79.3122 37.2288 79.2014 36.2651 80.5499C36.0074 80.9111 35.296 81.7187 35.158 82.0054L36.5882 81.8276L35.9076 83.1996C36.3087 83 36.8259 82.637 37.1943 82.2505C37.6353 81.7877 37.5809 81.0054 37.6716 80.3394C37.7152 79.951 37.7297 79.5154 37.893 79.1633L37.8912 79.167ZM49.0909 48.4955C49.5754 49.0381 50.2451 49.6388 50.8586 50.118C52.7479 51.5989 52.8295 51.8112 53.4121 53.9855C53.9257 55.9002 54.2451 56.4174 54.6607 58.5681C54.8132 59.3539 54.8912 60.2033 54.9983 61.0254C55.3177 63.4719 55.1816 64.0617 55.305 66.2105C55.4012 67.902 55.688 69.9401 55.2288 71.5554C54.9402 72.5717 54.4484 73.1343 53.884 73.8475C53.3395 74.5354 52.8005 74.8802 51.7823 74.6933C50.835 74.5191 50.5192 73.8693 50.1889 72.9292C50.0419 72.5082 49.9148 72.5608 49.1852 72.2069C47.4938 71.3884 47.2125 71.5263 45.5101 70.3049C45.8894 70.1815 46.688 70.2777 47.1362 70.4501C47.6499 70.6461 48.3032 70.9927 48.795 71.1252C49.3232 70.2632 49.3595 70.0309 48.9983 68.6007C48.8658 68.0726 48.795 67.9964 48.403 67.5971C48.158 67.3485 47.7279 66.9655 47.4266 66.8094C47.599 66.5681 47.893 66.3775 48.1054 66.1888C48.3558 65.9655 48.5283 65.8167 48.7696 65.608C50.5283 64.0889 50.0419 64.3067 50.5591 62.0708C50.7533 61.2287 50.8803 60.677 50.7097 59.9165C50.5845 59.3557 50.2941 58.6461 50.0074 58.2976C49.5482 57.7368 49.1943 57.4755 48.3649 57.1887C46.7388 56.6261 45.7007 56.6642 44.2125 56.8494C41.7569 57.1525 39.3468 58.0036 38.4284 60.6951C37.9511 62.0962 38.4248 63.5554 38.815 64.5644C39.0673 65.216 39.2542 65.4719 39.8676 65.9782C40.3268 66.3575 41.3685 67.0163 41.4575 67.098C40.9203 67.3067 40.1671 67.4211 40.0237 68.2995C39.9221 68.9201 40.4793 69.8693 40.7587 70.0962C41.1852 70.441 41.7261 70.0254 42.6353 69.8439C43.1127 69.7495 43.6426 69.4301 44.0455 69.5354C44.1399 69.5608 44.2161 69.5935 44.2941 69.6624C45.158 70.4047 41.5283 71.3775 40.7551 71.7005C40.3177 71.882 38.9239 72.9583 38.4212 73.3249C38.1199 73.5445 37.55 73.8875 37.1435 73.9764C36.1254 74.196 34.6989 73.5898 33.9112 72.9964C33.129 72.4065 31.0328 70.7877 30.668 69.9201C30.1617 68.7151 30.0909 68.2014 30.2342 66.8475C30.3304 65.9347 30.6825 65.9964 31.0219 65.343C31.2615 64.8839 31.0564 64.2051 30.9783 63.7477C30.8404 62.9328 31.0709 63.4138 31.6553 62.5172C31.3867 62.2995 30.8622 62.2033 31.296 61.4083C31.9493 60.2141 31.8241 60.1161 32.7696 59.1543C33.8295 58.0744 32.7188 57.3412 33.3105 56.6461C34.4647 55.2922 34.0165 55.0381 34.7842 54.3848C35.0201 54.1833 35.5137 53.7205 35.6571 53.4211L35.1163 53.0163L38.0528 50.412L37.5555 48.853C37.9058 48.7677 38.3268 48.8058 38.55 48.6915L37.6535 48.1525L37.8622 48.0617C38.6517 47.8403 38.7352 47.8149 38.7043 46.7568C38.6626 45.3103 38.4811 45.3285 38.443 44.7169C38.7424 44.5681 39.1145 44.4955 39.1344 43.9492C39.1489 43.5699 39.0237 43.1561 38.9493 42.8439C38.815 42.2777 38.7805 42.3612 38.4684 41.9655C38.2724 41.7169 38.0219 41.3485 37.8005 41.1452L37.6607 41.9093C37.5028 41.7532 37.1526 41.0962 37.0001 40.8475L36.8568 40.6552C36.9548 41.3285 37.5319 42.7731 37.5391 43.1724L36.5736 43.1053C36.4284 42.7858 36.2324 42.0508 36.0546 41.7804C35.4611 42.5535 35.8676 43.2359 35.0818 42.7931C34.5028 42.4682 34.3994 42.5354 34.0001 41.9292C33.7769 41.5917 33.2796 40.9111 33.1562 40.4301L34.2996 40.6098C34.2796 40.2958 33.8622 39.9056 33.8803 39.4428C33.8876 39.2505 33.9003 39.0799 33.9112 38.8857C34.011 36.8984 37.0909 36.9165 37.7696 38.8022C38.0419 39.559 38.0237 40.1706 38.8803 40.6152C38.9783 40.0998 39.1617 39.4374 39.0237 38.9873C38.9765 38.8312 38.8513 38.5463 38.7823 38.4047C38.3105 37.4319 37.8604 35.922 37.5119 35.3811C36.521 33.8367 35.5664 32.8113 34.0872 31.7858C34.0582 31.7659 33.9638 31.7005 33.9366 31.6751C33.8023 31.5463 33.884 31.6497 33.8023 31.5064L35.2397 31.775L33.6626 30.0436L34.4121 29.461C34.5337 29.3811 34.5609 29.3884 34.6626 29.2595C34.4974 29.069 34.2107 28.9256 34.0981 28.7278L34.6009 28.1325C34.3776 27.7405 33.6626 27.4918 33.4194 27.1143C34.1526 27.0254 35.08 27.4882 35.6662 27.0799L35.5319 26.1797L36.6027 26.4755C36.5228 26.1652 36.3431 25.971 36.2578 25.6697L37.0092 25.9474L37.2451 25.3267L38.0891 25.6806L38.2252 24.9328L39.3232 25.2323L39.7152 24.3085L40.3286 24.6225L40.8767 24.0744L41.6716 24.9292L42.1471 24.7659C42.394 24.9528 42.6444 25.4664 42.8785 25.5826C43.178 25.7296 43.9166 25.804 44.3014 25.9456L44.5609 26.9546L45.3195 27.1234C44.8204 29.0944 45.2034 28.6715 45.2342 30.1887C45.256 31.2813 45.0491 32.441 44.688 33.5644C45.1381 33.5699 45.8459 33.265 46.3032 33.4247C46.1725 34.1652 44.9548 35.1125 44.5736 35.686C44.9802 35.6897 45.2724 35.4809 45.639 35.4102C44.7424 36.9165 44.5137 36.1016 44.5881 38.294C44.6063 38.8185 45.0836 40.7731 45.2724 41.1379C46.4303 41.5862 46.0582 41.0871 46.0709 42.4029C46.0764 43.0599 46.1344 43.5191 46.4157 43.9292C46.8459 44.784 48.6172 47.971 49.0945 48.5045L49.0909 48.4955ZM70.8676 32.4828L71.1798 32.6062C71.2669 32.7223 71.4883 32.8113 71.6299 32.8965L73.3032 33.6878L70.5391 33.363C70.7442 33.5808 72.1762 34.2704 72.6099 34.323C73.296 34.4083 74.1163 34.2287 74.6952 34.3103L73.6317 35.0472L75.178 35.5009L74.8277 35.5699C73.541 35.7005 73.6571 35.8457 72.7279 35.1851C72.0637 34.7132 70.9638 34.2051 70.178 33.8984L70.1145 33.8221C69.9312 33.6243 70.1744 33.873 70.0491 33.755L69.7043 33.4936C69.4448 33.2486 68.5391 32.5826 68.1689 32.5209C68.158 32.5082 68.1399 32.4936 68.1308 32.4864C68.1217 32.4791 68.1054 32.4628 68.0927 32.4519C67.8332 32.2505 68.2506 32.5481 68.0128 32.392C68.0038 32.3866 67.9057 32.3321 67.8858 32.3231C67.7352 32.2505 67.6371 32.2214 67.4793 32.1779L66.5446 31.8258C66.5246 31.7332 66.5174 31.8149 66.5464 31.6788C66.5809 31.5172 66.6734 31.4592 66.7624 31.2904L67.5428 31.4719C68.0364 31.5408 68.1689 31.6261 68.4393 31.6733L68.7279 31.6624C68.9457 31.7768 69.5355 31.9546 69.8186 32.0708C70.1562 32.2069 70.5155 32.3485 70.8658 32.4828H70.8676ZM5.12172 43.5898C5.39759 41.1887 5.82408 38.8475 6.39214 36.5808C7.06546 37.7114 9.06002 38.8094 9.60448 39.5227C9.25421 39.6025 5.88579 40.147 5.78597 40.1325L7.74423 40.3829C8.42844 40.5064 9.21065 40.6443 9.8749 40.833C9.65711 40.9818 6.99468 41.5699 6.49196 41.706L11.0999 41.3902C11.0364 41.4301 10.472 41.6933 10.3177 41.7568L7.72608 42.9093C7.32862 43.078 6.10357 43.3721 5.12354 43.5917L5.12172 43.5898ZM4.98198 44.9528C5.00013 44.7586 5.01646 44.5662 5.03642 44.372L5.83134 44.7405L4.98198 44.9528ZM4.87127 46.3793C4.88579 46.1543 4.90212 45.9292 4.92027 45.7042L6.13443 46.0653L4.87127 46.3793ZM14.8059 81.1815C8.57181 73.0163 4.75512 62.0526 4.75512 49.9946C4.75512 49 4.78416 48.0145 4.83497 47.0381L6.25421 47.6679C6.39033 48.147 6.35766 48.8131 6.45203 49.3122C7.18161 53.2123 9.58815 55.4682 12.1889 58.4174L14.7569 61.3085C15.4974 62.1706 15.1744 61.7768 15.3631 63.6606C15.4557 64.5808 15.5264 66.245 15.7497 67.0073C16.0909 68.167 16.6263 68.6207 17.9548 69.2922C17.7152 71.2341 15.2143 77.9328 14.8059 81.1815ZM78.2252 38.4211C79.0146 42.118 79.4357 45.9964 79.4357 49.9964C79.4357 59.0127 77.3014 67.4174 73.6172 74.4991C73.1235 73.4791 71.8604 72.2341 72.0473 71.3793C72.2306 70.5463 72.2034 70.1978 72.599 69.9056C72.8241 69.7387 73.4811 69.2632 73.5954 69.049C73.4266 68.5063 72.4829 66.4682 72.4357 66.1579L74.2724 66.9909C74.2724 66.9655 74.2669 66.9238 74.2578 66.9328L72.1181 63.6279L75.0528 65.4574C74.9475 65.0817 73.9058 63.4356 73.7624 63.0054L75.57 63.824C75.3359 63.628 74.2143 61.8893 74.1526 61.6933L75.9584 61.9855C75.0201 61.1688 74.2197 60.0998 73.4974 59.1343C72.3631 57.6189 72.5972 54.6733 73.3014 53.3485C73.7678 52.4719 74.6244 51.4846 75.1744 50.7241C76.7515 48.5445 77.7479 47.5826 78.1635 44.3757C78.2252 43.902 78.4067 42.9038 78.2361 42.588L77.8295 41.9564C77.668 41.7332 77.6172 41.5662 77.4611 41.3503C76.8132 40.4573 75.6408 39.4356 75.4284 39.0926L75.5972 39.029C75.6099 39.0254 75.6263 39.02 75.639 39.0163L76.9257 38.7278C77.1344 38.6806 77.8749 38.5299 78.2215 38.4192L78.2252 38.4211ZM77.7769 36.49C77.8912 36.9437 77.9983 37.4011 78.1018 37.8603C77.4375 37.8258 76.5609 37.8312 76.3504 37.5572C76.0255 37.1379 76.0564 36.8893 75.8295 36.5082L77.7769 36.49ZM77.3032 34.7441C77.374 34.9927 77.4466 35.2396 77.5137 35.49C76.5573 35.3049 75.6226 35.2305 74.9983 35.0672L77.3032 34.7441ZM42.0963 4.29945C58.0401 4.29945 71.6462 16.5281 77.0019 33.7387C76.697 33.735 76.3958 33.735 76.0745 33.677L72.9493 33.0871C72.5083 32.9274 72.2016 32.5009 71.7497 32.3884C71.6843 32.2849 71.7823 32.3884 71.6626 32.2886C71.6426 32.2722 71.55 32.216 71.5446 32.2123C71.4466 32.1543 71.3504 32.1089 71.2506 32.0581L70.8568 31.8548C70.5827 31.5445 69.4175 31.1652 68.9366 31.0454L68.6825 30.9673L68.0346 30.7169C67.6571 30.5753 66.5428 30.2033 66.354 29.9401L68.1362 28.7042C68.2669 28.6225 68.3087 28.5826 68.4357 28.4846C68.4883 28.4446 68.5283 28.4192 68.57 28.3848C68.697 28.2831 68.6009 28.3793 68.7043 28.2432L65.3504 28.7368C65.4194 28.6915 65.4557 28.6769 65.5264 28.6316L67.8658 27.1198C67.3667 27.1361 66.7751 27.2559 66.256 27.3158C65.737 27.3757 65.1508 27.4573 64.6589 27.5281C64.8912 27.3176 65.0582 27.2359 65.3159 27.0508L67.2488 25.6842L64.0455 25.2505L66.0473 23.775C66.2252 23.6461 66.5355 23.4446 66.6898 23.265L62.1725 23.9964L63.9493 22.1506C63.5646 22.196 62.6753 22.5281 62.2578 22.6552C61.7606 22.8076 61.0328 23.0889 60.5646 23.1706L63.0546 20.7804C63.2615 20.588 63.7333 20.1869 63.8513 19.971H63.8549C63.5174 20.3049 59.815 22.0417 58.9747 22.4574C58.6716 22.6062 58.57 22.6515 58.2506 22.7514C56.1344 23.4047 53.0981 23.0399 50.9402 22.412C50.1707 22.1887 49.9203 22.3122 49.1907 22.412C47.5845 22.6334 45.7007 22.7895 44.0836 22.8022C41.4575 22.824 41.3123 23.0817 39.1145 23.4501L37.4702 23.7387C36.9039 23.7514 35.4103 23.9691 34.9058 24.127C34.5301 24.1125 33.4448 24.3466 33.1381 24.4755C32.6317 24.6878 31.7932 25.2686 31.3558 25.6534C31.0582 25.9147 29.835 26.5245 29.4611 26.7169C29.178 26.8621 28.9529 27.0254 28.6771 27.1633C27.4012 27.8004 26.9584 28.0272 25.5174 28.5554C24.2488 29.02 24.5464 29.0617 23.6571 28.7514C22.9094 28.49 22.1544 28.2359 21.4012 27.971L20.9711 29.5753C20.5446 29.4338 17.815 27.2232 17.2905 27.0091C17.7751 27.6007 19.031 29.9419 19.521 30.7368C19.7715 31.1434 20.06 31.6062 20.2687 32.0309L16.3649 29.8748C16.452 29.9456 18.8695 32.4955 19.031 32.726L16.4956 31.8348C16.5137 31.8748 17.6226 33.2559 17.6843 33.3757L12.1798 31.824C12.7007 32.0926 14.1598 32.9528 14.599 33.0363C14.6916 33.1706 14.688 33.127 14.8676 33.2232C14.9711 33.2777 14.8894 33.2232 15.0001 33.2922L15.1453 33.4029C15.0782 33.4374 15.0255 33.4555 14.9548 33.4936L14.766 33.6189L14.296 33.8185L14.688 34.2142L15.1435 34.6461L15.8186 35.3049L15.6444 35.3231C15.3322 35.3321 15.1399 35.2886 14.8295 35.2922C14.6825 35.2922 14.5827 35.3085 14.452 35.3085L14.031 35.3321L13.7587 35.2849L13.0655 35.2178L8.77145 32.9637C8.76601 33.2378 9.29414 33.9946 9.49377 34.2432C10.2832 35.2305 12.9911 36.3956 13.7715 36.9583L10.3849 36.9147L11.6353 38.1125C10.031 38.4991 7.79686 37.3811 6.51374 36.1216C11.3123 17.6679 25.4303 4.29764 42.0999 4.29764L42.0963 4.29945ZM37.8858 97.5789C17.9747 95.0399 2.45929 74.706 2.45929 49.9946C2.45929 25.2831 17.9747 4.951 37.8858 2.41198V3.15971C18.4538 5.70962 3.32681 25.706 3.32681 49.9964C3.32681 74.2868 18.4557 94.2831 37.8858 96.833V97.5807V97.5789ZM20.6716 103.711C20.8186 103.477 20.835 103.225 20.7206 102.956C20.6063 102.688 20.4448 102.488 20.2342 102.359C19.9457 102.181 19.7025 102.109 19.5083 102.143C19.3141 102.178 19.1235 102.345 18.9366 102.644C18.766 102.918 18.7061 103.189 18.7587 103.456C18.8114 103.722 18.982 103.944 19.2705 104.122C19.5337 104.283 19.7969 104.314 20.0582 104.214C20.3214 104.114 20.5264 103.946 20.6716 103.711ZM23.1562 99.686C23.2288 99.5681 23.256 99.4446 23.2379 99.3158C23.2179 99.1869 23.1689 99.0617 23.0891 98.9401C23.0092 98.8185 22.9185 98.7096 22.8168 98.6098C22.7152 98.5118 22.6172 98.4337 22.5264 98.3775C22.2905 98.2323 22.06 98.1906 21.8404 98.2541C21.619 98.3176 21.4393 98.4592 21.3014 98.6806C21.1871 98.8639 21.0909 99.0617 21.0128 99.274C20.9348 99.4882 21.0128 99.6679 21.2506 99.8131C21.3685 99.8857 21.5174 99.9455 21.697 99.9927C21.8767 100.04 22.06 100.067 22.247 100.073C22.4339 100.08 22.6099 100.053 22.7751 99.9909C22.9402 99.9292 23.0673 99.8276 23.158 99.6842L23.1562 99.686ZM43.6644 100.808C43.688 100.815 43.7134 100.819 43.737 100.819C43.7733 100.819 43.8096 100.813 43.844 100.799C43.7842 100.802 43.7243 100.804 43.6626 100.808H43.6644ZM63.7352 99.0853C63.6789 98.9946 63.5882 98.8548 63.4629 98.6697C63.3377 98.4846 63.1979 98.3049 63.0437 98.1289C62.8894 97.9528 62.7243 97.8149 62.5518 97.7132C62.3794 97.6116 62.2215 97.6043 62.0764 97.6933C61.9185 97.7895 61.8531 97.9564 61.8822 98.1924C61.9112 98.4283 61.9765 98.6806 62.0818 98.9492C62.1871 99.2196 62.3105 99.4773 62.4557 99.7223C62.599 99.9673 62.7134 100.156 62.7932 100.287C63.0128 100.639 63.3068 100.702 63.6753 100.475C63.9511 100.305 64.0655 100.087 64.0165 99.8185C63.9675 99.5499 63.8731 99.3067 63.7352 99.0835V99.0853ZM63.6898 6.1343C63.8586 5.89292 64.0273 5.66243 64.1998 5.44283C64.3812 5.21053 64.5646 4.97641 64.7533 4.7441C64.9058 4.56261 65.0618 4.38475 65.2215 4.21052C65.3812 4.0363 65.55 3.82033 65.7279 3.56624C65.8858 3.33757 65.9856 3.13793 66.0274 2.96552C66.0691 2.7931 65.9439 2.60617 65.6517 2.40835C65.4303 2.25771 65.2415 2.2323 65.0872 2.33394C64.933 2.43557 64.7878 2.58258 64.6535 2.77495C64.4393 3.08348 63.5573 4.66243 63.5518 4.85844C63.5464 5.0363 63.5518 5.19601 63.5718 5.33757C63.59 5.47913 63.5446 5.62976 63.4357 5.78766C63.4067 5.82759 63.3758 5.86207 63.3395 5.88929C63.4575 5.96914 63.5736 6.05445 63.6898 6.13611V6.1343ZM61.3831 -3.90744C61.4793 -4.14519 61.472 -4.38294 61.3613 -4.62432C61.2506 -4.86388 61.0745 -5.03267 60.8368 -5.12886C60.6571 -5.20145 60.5083 -5.14882 60.3903 -4.97096C60.2724 -4.79492 60.1635 -4.58258 60.0618 -4.33394C59.982 -4.13612 59.9402 -3.951 59.9402 -3.77859C59.9402 -3.60617 60.0582 -3.47187 60.2978 -3.37568C60.5264 -3.28312 60.7442 -3.29764 60.9493 -3.41742C61.1544 -3.53721 61.2996 -3.70055 61.3831 -3.90744ZM50.7497 -5.02722C50.7715 -5.13067 50.7969 -5.29764 50.8241 -5.52632C50.8513 -5.75499 50.8568 -5.98548 50.8422 -6.21779C50.8259 -6.45009 50.7842 -6.66062 50.7152 -6.84937C50.6462 -7.03811 50.5319 -7.15064 50.3758 -7.1833C50.1979 -7.22142 50.0346 -7.1579 49.8894 -6.99274C49.7442 -6.82759 49.6136 -6.62795 49.4974 -6.39746C49.3813 -6.16515 49.2869 -5.92922 49.2125 -5.68966C49.1381 -5.44828 49.0909 -5.27586 49.0673 -5.17241C49.0401 -5.04719 49.0146 -4.88022 48.9929 -4.67332C48.9711 -4.46643 48.9675 -4.25953 48.982 -4.05445C48.9983 -3.84937 49.0455 -3.66425 49.1254 -3.50091C49.2052 -3.33757 49.3341 -3.23594 49.5137 -3.19782C49.6825 -3.16153 49.8386 -3.21597 49.9856 -3.35935C50.1326 -3.50272 50.2542 -3.67877 50.354 -3.88566C50.4538 -4.09437 50.5391 -4.30672 50.6081 -4.52632C50.6771 -4.74592 50.7243 -4.91289 50.7497 -5.02722ZM42.1362 -4.4265C42.1308 -4.61888 42.0437 -4.77133 41.8731 -4.88385C41.7025 -4.99637 41.5319 -5.05082 41.3613 -5.04537C41.1254 -5.03811 40.9566 -4.98911 40.8568 -4.89474C40.7569 -4.80036 40.7116 -4.63158 40.7188 -4.38657C40.7261 -4.16334 40.795 -3.98367 40.9275 -3.84755C41.06 -3.71325 41.2451 -3.64791 41.4811 -3.65517C41.6952 -3.66062 41.8604 -3.7441 41.9747 -3.902C42.0891 -4.05989 42.1417 -4.23412 42.1362 -4.4265ZM42.0255 -7.70417C42.0219 -7.80036 41.9911 -7.88203 41.9293 -7.94918C41.8676 -8.01633 41.7914 -8.07078 41.6989 -8.11071C41.6063 -8.15064 41.5119 -8.17967 41.4139 -8.19782C41.3159 -8.21597 41.2306 -8.22505 41.1544 -8.22323C40.9602 -8.21779 40.8132 -8.15427 40.7079 -8.03448C40.6045 -7.9147 40.5537 -7.76407 40.5591 -7.58258C40.5627 -7.43376 40.5845 -7.28131 40.6208 -7.12886C40.6571 -6.97459 40.7733 -6.902 40.9656 -6.90744C41.0618 -6.91107 41.1725 -6.93285 41.2941 -6.97278C41.4157 -7.01452 41.5337 -7.06715 41.6444 -7.1343C41.7551 -7.20145 41.8477 -7.28494 41.9203 -7.38294C41.9929 -7.48094 42.0273 -7.58802 42.0237 -7.70599L42.0255 -7.70417ZM31.5047 -2.27768C31.5573 -2.2922 31.5754 -2.38294 31.5627 -2.54991C31.55 -2.71688 31.521 -2.92015 31.4774 -3.1579C31.4339 -3.39565 31.3704 -3.64973 31.2905 -3.92015C31.2088 -4.19056 31.1235 -4.4392 31.0328 -4.66243C30.9421 -4.88748 30.8495 -5.06897 30.7551 -5.20871C30.6607 -5.34846 30.5773 -5.40835 30.5047 -5.38839C30.3704 -5.35209 30.2869 -5.23231 30.2542 -5.02904C30.2215 -4.82577 30.2215 -4.57713 30.2542 -4.28131C30.2869 -3.98548 30.345 -3.6588 30.4266 -3.29946C30.5101 -2.94011 30.599 -2.58621 30.6825 -2.23231C30.7188 -2.07623 30.7715 -1.95463 30.8495 -1.87114C30.9293 -1.78766 31.011 -1.74047 31.0981 -1.7314C31.1852 -1.72232 31.2651 -1.76044 31.3413 -1.84755C31.4175 -1.93466 31.472 -2.07804 31.5065 -2.27405L31.5047 -2.27768ZM30.1889 0.441015C30.0963 0.466424 30.0201 0.517241 29.9638 0.593466C29.9076 0.669691 29.8676 0.760434 29.8477 0.865697C29.8277 0.970961 29.8168 1.08167 29.815 1.19782C29.815 1.22867 29.815 1.25771 29.815 1.28675C31.374 0.727766 32.9693 0.272231 34.599 -0.0725965C34.5791 -0.121598 34.5591 -0.168785 34.5391 -0.214157C34.4793 -0.346643 34.4067 -0.451907 34.3177 -0.526317C34.2306 -0.602542 34.1126 -0.618876 33.9675 -0.578948L30.1871 0.441015H30.1889ZM15.6371 10.1107C14.3177 9.68239 12.8005 7.47913 12.0346 6.8167C11.9783 6.76769 11.8695 6.65517 11.6952 6.49546C11.521 6.33575 11.3341 6.18149 11.1326 6.03267C10.9312 5.88385 10.737 5.76044 10.55 5.66606C10.3631 5.56987 10.2306 5.55898 10.1526 5.63158C10.0818 5.69691 10.0564 5.78403 10.0764 5.88929C10.0963 5.99637 10.1417 6.10708 10.2143 6.22141C10.2869 6.33757 10.3704 6.4519 10.4666 6.56806C10.5627 6.68421 10.6499 6.78403 10.7315 6.86933L11.3395 7.50817C11.6353 7.81851 12.4303 8.78403 12.7569 9.049C13.0836 9.31397 13.4393 9.54446 13.8205 9.74591C13.8894 9.78221 13.9856 9.83303 14.1126 9.88929C14.2397 9.94555 14.3758 10.0054 14.5174 10.0708C14.6607 10.1343 14.7896 10.1978 14.9058 10.2577C15.0219 10.3176 15.1018 10.3702 15.1471 10.4174C15.1744 10.4465 15.1998 10.4755 15.2215 10.5064C15.3595 10.3739 15.4956 10.2396 15.6353 10.1089L15.6371 10.1107ZM18.4865 7.64247C18.0836 7.39746 17.7025 7.0853 17.3413 6.70599C17.0836 6.43557 16.8259 6.15789 16.5718 5.87477C16.3177 5.59165 16.0691 5.30853 15.8259 5.02178C15.7606 4.93648 15.688 4.84573 15.6117 4.74955C15.5355 4.65336 15.443 4.54083 15.3359 4.41379C15.2288 4.28675 15.0999 4.13974 14.9493 3.97278C14.7987 3.80581 14.6117 3.60617 14.3903 3.37386C14.3232 3.3049 14.2379 3.21597 14.129 3.11252C14.0219 3.00726 13.9112 2.9147 13.795 2.83121C13.6789 2.74955 13.57 2.68784 13.4647 2.6461C13.3595 2.60617 13.276 2.61524 13.2125 2.67332C13.1508 2.7314 13.1526 2.85118 13.2197 3.03085C13.2869 3.21052 13.3758 3.40109 13.4883 3.60435C13.6009 3.80762 13.7152 3.99818 13.8313 4.17423C13.9475 4.35027 14.0237 4.46642 14.06 4.52087C14.2361 4.75136 14.4248 4.98185 14.6281 5.21053C14.8313 5.4392 15.541 6.36116 15.7914 6.62613C15.9838 6.82759 16.1871 7.02541 16.4012 7.22141C16.6154 7.41561 16.835 7.5608 17.0491 7.66969C17.1798 7.73684 17.325 7.78947 17.4956 7.81307C17.6662 7.83666 17.8023 7.90199 17.9058 8.01089C17.9239 8.03085 17.9421 8.05082 17.9566 8.07078C18.1308 7.9274 18.3068 7.78584 18.4829 7.6461L18.4865 7.64247ZM6.75875 13.0218C6.67163 12.9601 6.52826 12.8711 6.32681 12.755C6.12717 12.6388 5.91664 12.5408 5.69523 12.4628C5.47381 12.3848 5.26328 12.3394 5.06002 12.3267C4.85857 12.314 4.70975 12.3721 4.61537 12.5027C4.50829 12.6497 4.50285 12.824 4.59722 13.0218C4.6916 13.2196 4.82227 13.4192 4.99105 13.6171C5.15802 13.8149 5.33951 13.9964 5.53189 14.1597C5.72426 14.323 5.86401 14.4356 5.95294 14.4973C6.0582 14.5717 6.20158 14.6606 6.38488 14.7641C6.56818 14.8675 6.75693 14.9528 6.95294 15.02C7.14895 15.0871 7.33951 15.118 7.52281 15.1107C7.70611 15.1034 7.85131 15.0254 7.95838 14.8784C8.0582 14.7405 8.07091 14.5753 7.99831 14.3848C7.9239 14.1942 7.81138 14.0127 7.65893 13.8385C7.50648 13.6642 7.34314 13.5027 7.1671 13.3521C6.99105 13.2015 6.85675 13.0907 6.76056 13.0236L6.75875 13.0218ZM2.65167 22.4737C2.67526 22.4247 2.619 22.3521 2.48107 22.2505C2.34495 22.1506 2.17254 22.0381 1.96383 21.9165C1.75512 21.7931 1.521 21.6733 1.26147 21.5572C1.00194 21.4392 0.756932 21.3412 0.528257 21.2613C0.297767 21.1815 0.0999455 21.1307 -0.0688386 21.1107C-0.237623 21.0889 -0.337441 21.1125 -0.37011 21.1797C-0.430001 21.3049 -0.393703 21.4465 -0.261217 21.6044C-0.12873 21.7622 0.0600181 21.9256 0.306842 22.0962C0.553666 22.2668 0.838602 22.4374 1.1671 22.6116C1.49377 22.784 1.82227 22.951 2.14532 23.1198C2.28869 23.1942 2.41392 23.2359 2.53007 23.2305C2.64622 23.2269 2.73515 23.1942 2.79867 23.1361C2.8622 23.078 2.88579 22.9909 2.86946 22.8766C2.85312 22.7623 2.78053 22.628 2.65348 22.4719L2.65167 22.4737ZM3.85312 25.2432C3.81138 25.3303 3.80049 25.4192 3.82227 25.5118C3.84223 25.6044 3.88579 25.6933 3.95294 25.7786C4.02009 25.8639 4.09632 25.9437 4.18343 26.0218C4.25421 26.0835 4.32499 26.1416 4.39396 26.196C5.07998 24.6552 5.82953 23.1597 6.64078 21.7187C6.49196 21.6534 6.34858 21.6007 6.21065 21.559C6.07091 21.5154 5.94205 21.5027 5.82771 21.5191C5.71338 21.5354 5.62263 21.6116 5.55729 21.7459L3.85131 25.245L3.85312 25.2432ZM79.0999 24.677C79.3613 24.5535 79.6172 24.4392 79.8713 24.3339C80.1453 24.2214 80.4212 24.1089 80.7025 24C80.9239 23.9165 81.1489 23.8403 81.3758 23.7659C81.6027 23.6933 81.8568 23.5898 82.1381 23.4555C82.3214 23.3684 82.5156 23.2613 82.7152 23.1343C82.9166 23.0091 83.0201 22.8911 83.0274 22.7804C83.0201 22.6661 82.9747 22.5608 82.8912 22.4628C82.8077 22.3666 82.7061 22.2849 82.5845 22.2178C82.4629 22.1525 82.3323 22.098 82.1943 22.0581C82.0564 22.0181 81.933 22 81.8277 22.0018C81.5773 22.0018 81.3105 22.0889 81.0237 22.2613C80.737 22.4338 79.9402 22.9201 79.7134 23.2414C79.6009 23.4011 79.4956 23.5535 79.3958 23.6951C79.2978 23.8367 79.1508 23.9546 78.9584 24.0472C78.9094 24.0708 78.8622 24.0871 78.8168 24.098C78.9112 24.2886 79.0074 24.4809 79.0999 24.6733V24.677ZM74.1235 5.85299C73.9457 6.02359 73.8822 6.21234 73.9348 6.42105C73.9874 6.62976 74.0891 6.81125 74.2379 6.9637C74.4248 7.15608 74.5845 7.24319 74.717 7.22867C74.8495 7.21234 75.0056 7.11978 75.1852 6.94918C75.3631 6.77858 75.4575 6.62613 75.4684 6.49183C75.4793 6.35571 75.3976 6.19964 75.227 6.02359C75.0782 5.86933 74.9021 5.76044 74.697 5.69691C74.4938 5.63339 74.3014 5.68603 74.1235 5.85481V5.85299ZM69.6989 11.2269C69.6916 11.1942 69.6861 11.1633 69.6807 11.1307C69.6462 10.9111 69.7116 10.7241 69.8749 10.5681C70.0146 10.4356 70.1653 10.3829 70.3286 10.4138C70.492 10.4428 70.6571 10.4465 70.8241 10.4174C70.9765 10.392 71.109 10.3612 71.2197 10.3285C71.3304 10.2976 71.8676 9.951 72.0382 9.82577C72.2088 9.70054 72.3667 9.57169 72.5137 9.4392C72.6607 9.30672 72.7878 9.18875 72.8967 9.0853C73.0509 8.93829 73.1344 8.81125 73.1435 8.70599C73.1526 8.60073 73.08 8.46642 72.9239 8.3049C72.7969 8.17423 72.6535 8.11434 72.4938 8.12704C72.3341 8.13974 72.178 8.18512 72.0237 8.26497C71.8695 8.34483 71.7243 8.44464 71.5845 8.56261C71.4448 8.68058 71.3286 8.78403 71.2361 8.87296C70.9874 9.10889 70.7025 9.41561 70.3794 9.78947C70.1126 10.0998 69.7678 10.4592 69.345 10.8711C69.4629 10.9891 69.5809 11.1071 69.6989 11.2269ZM67.2578 8.93103C67.6626 8.86207 68.0183 8.67876 68.3268 8.38475C68.6916 8.03811 68.9856 7.73321 69.2125 7.4755C69.4375 7.21597 69.7097 6.93466 70.0274 6.63158C70.1508 6.51361 70.305 6.4029 70.4901 6.30127C70.6753 6.19964 70.8676 6.11797 71.0709 6.05807C71.2742 5.99818 71.4756 5.9637 71.6771 5.95644C71.8785 5.94918 72.0655 5.98185 72.2397 6.05263C72.06 5.5735 72.0038 5.11615 72.0727 4.68058C72.1417 4.24501 72.3667 3.84573 72.746 3.48276C73.1181 3.12886 73.5137 2.92014 73.933 2.86207C74.3522 2.80218 74.7678 2.83484 75.1798 2.96007C75.5918 3.0853 75.9892 3.28312 76.3704 3.55535C76.7533 3.82758 77.0891 4.11252 77.3794 4.41198L77.7932 4.83848C77.9566 5.00726 78.1417 5.20871 78.345 5.44283C78.55 5.67695 78.7243 5.92015 78.8713 6.17241C79.0183 6.42468 79.109 6.66788 79.1417 6.90199C79.1744 7.13611 79.1072 7.33575 78.9366 7.49728C78.7969 7.62976 78.5918 7.72958 78.3214 7.79673C78.0509 7.86388 77.8186 7.94374 77.6263 8.03811C77.2651 8.2196 76.9239 8.43376 76.6045 8.67876C76.2832 8.92559 75.9765 9.18875 75.6825 9.47005C74.7842 10.3267 73.6226 11.4374 72.9874 12.2595C72.8495 12.4392 72.7134 12.6243 72.5881 12.8167C72.4629 13.0109 72.3177 13.1851 72.1562 13.3394C72.0401 13.4501 71.9203 13.5009 71.8005 13.49H71.7932C72.3649 14.1506 72.9221 14.8294 73.4629 15.5281C73.4883 15.5354 73.5137 15.5427 73.541 15.5481C73.7188 15.5917 73.9257 15.6025 74.1598 15.5771C74.4666 15.5427 74.7878 15.4537 75.1254 15.3176C75.4629 15.1797 75.8005 15.0145 76.1399 14.824C76.4774 14.6334 76.8096 14.4265 77.1326 14.2069C77.4557 13.9873 77.7569 13.7768 78.0364 13.5753C78.2887 13.3938 78.5609 13.1906 78.8549 12.9655C79.1489 12.7405 79.4284 12.5154 79.6952 12.2904C79.962 12.0653 80.2016 11.8494 80.4157 11.6425C80.6299 11.4356 80.7842 11.2595 80.8749 11.1143C80.9802 10.9474 81.0655 10.7695 81.1326 10.5826C81.2016 10.3956 81.3232 10.2377 81.4956 10.1125C81.6081 10.0309 81.7225 9.9873 81.8386 9.98367C81.9548 9.97822 82.0709 10.0018 82.1852 10.049C82.3014 10.098 82.4067 10.1597 82.501 10.2359C82.5972 10.3122 82.6916 10.3866 82.7751 10.4737C82.9765 10.6842 83.1635 10.9129 83.3486 11.1488C83.5337 11.3848 83.7152 11.6225 83.8912 11.8639L84.4974 12.6915C84.7116 12.9855 84.9003 13.265 85.0618 13.5299C85.2234 13.7967 85.3232 14.0544 85.3595 14.3049C85.3958 14.5554 85.3486 14.804 85.2179 15.0508C85.0854 15.2976 84.8368 15.5517 84.472 15.8149C84.4103 15.8584 84.3413 15.9129 84.2615 15.9764C84.1816 16.0399 84.0909 16.1089 83.9856 16.1851C83.8114 16.3103 83.6263 16.4338 83.4303 16.5554C83.2342 16.677 83.0382 16.7731 82.8422 16.8403C82.6462 16.9093 82.4647 16.9383 82.2978 16.9256C82.1308 16.9147 81.9965 16.8403 81.8949 16.7024C81.8005 16.5735 81.7714 16.4392 81.8096 16.2995C81.8477 16.1597 81.9185 16.0163 82.0219 15.8693C82.1272 15.7223 82.2469 15.5681 82.3831 15.4102C82.5192 15.2523 82.6371 15.0944 82.7352 14.9383C82.8332 14.7822 82.8967 14.6279 82.9239 14.4755C82.9529 14.323 82.913 14.1742 82.8059 14.0272C82.6861 13.8639 82.5337 13.7786 82.3504 13.7731C82.1671 13.7677 81.9747 13.8004 81.7751 13.8711C81.5754 13.9419 81.3812 14.0399 81.1925 14.1633C81.0038 14.2868 80.844 14.3956 80.7134 14.4882L76.5682 17.4555C76.1852 17.7296 75.795 17.9437 75.3994 18.0907C75.3776 18.0998 75.354 18.1071 75.3322 18.1143C75.942 19.0163 76.5264 19.9419 77.0836 20.8911C77.1326 20.8113 77.2034 20.7477 77.3014 20.7005C77.4666 20.6225 77.6462 20.5771 77.844 20.5662C78.0419 20.5554 78.2342 20.5318 78.4212 20.5027C79.0237 20.4138 80.1489 20.02 80.7152 19.7985C81.2814 19.5753 81.884 19.3122 82.5228 19.0054C82.8912 18.8294 83.256 18.6461 83.6154 18.4555C83.9765 18.265 84.3268 18.0526 84.6662 17.8203C84.8949 17.6515 85.1126 17.4737 85.3195 17.2868C85.5264 17.0998 85.7569 16.9456 86.0074 16.824C86.1435 16.7586 86.2814 16.7677 86.4212 16.8476C86.5609 16.9292 86.6952 17.0363 86.8204 17.1724C86.9457 17.3085 87.0546 17.4537 87.1489 17.6098C87.2433 17.7659 87.3123 17.8929 87.3595 17.9891L87.4157 18.1053C87.4666 18.2105 87.521 18.3358 87.5791 18.4791C87.6371 18.6225 87.6807 18.7677 87.7097 18.9147C87.7388 19.0599 87.7388 19.1942 87.7079 19.3158C87.6771 19.4374 87.599 19.5281 87.4738 19.588C87.3377 19.6534 87.2415 19.6751 87.1852 19.6552C87.1272 19.6352 87.0346 19.6152 86.9058 19.5935C86.795 19.5862 86.6734 19.5989 86.5373 19.6279C86.403 19.657 86.2597 19.6951 86.1108 19.7441C85.962 19.7913 85.8168 19.8457 85.6789 19.9056C85.541 19.9655 85.4139 20.0236 85.2978 20.078C85.2106 20.1198 85.1018 20.1779 84.9711 20.2523C84.8404 20.3267 84.7243 20.412 84.6208 20.5082C84.5192 20.6044 84.4393 20.7005 84.3849 20.7985C84.3304 20.8947 84.3431 20.9891 84.4248 21.0817C84.6136 21.2995 84.7932 21.4356 84.9638 21.49C85.1344 21.5445 85.2996 21.5572 85.4647 21.5263C85.7678 21.4646 86.0328 21.3503 86.256 21.1833C86.4793 21.0181 86.6698 20.8439 86.8259 20.6624C86.982 20.4809 87.109 20.3103 87.2052 20.1524C87.3014 19.9946 87.3849 19.8911 87.4593 19.8457C87.5954 19.7568 87.7261 19.7296 87.8495 19.7659C87.9747 19.8004 88.0891 19.8711 88.1925 19.9746C88.296 20.078 88.3921 20.2015 88.4793 20.343C88.5664 20.4846 88.6426 20.6225 88.7079 20.7586L88.9185 21.1906C88.9656 21.2868 89.0255 21.4301 89.0999 21.6189C89.1744 21.8076 89.2342 22.0054 89.2778 22.2087C89.3232 22.412 89.3341 22.6025 89.3123 22.7786C89.2905 22.9546 89.207 23.078 89.0618 23.147C88.5918 23.3829 88.1816 23.5699 87.8313 23.7078C87.4811 23.8457 87.158 23.9546 86.864 24.0363C86.57 24.118 86.2887 24.1906 86.0201 24.2523C85.7515 24.3158 85.472 24.3902 85.1798 24.4755C84.8876 24.5626 84.5646 24.6751 84.2088 24.8149C83.8531 24.9546 83.4484 25.1452 82.9929 25.3866C82.7896 25.4846 82.5482 25.6062 82.2669 25.7514C81.9856 25.8966 81.7116 26.0617 81.4411 26.2432C81.1725 26.4247 80.9293 26.6207 80.7152 26.8294C80.5355 27.0036 80.4048 27.1887 80.3232 27.3829C83.1635 34.1924 84.7606 41.8675 84.7606 49.9873C84.7606 68.6152 76.3558 84.902 63.8204 93.7568C63.8912 93.8312 63.9566 93.9147 64.0146 94.0072C64.4865 94.7641 64.9312 95.5281 65.3504 96.3013C65.7678 97.0726 66.2143 97.8385 66.6861 98.5953C66.9148 98.9601 67.1998 99.4029 67.5428 99.9238C67.8858 100.445 68.2705 100.975 68.6989 101.515C69.1272 102.056 69.5827 102.575 70.0655 103.073C70.5482 103.57 71.0401 103.985 71.5391 104.319C72.0382 104.653 72.5355 104.868 73.031 104.96C73.5264 105.053 74.0038 104.96 74.4629 104.675C74.8041 104.465 75.109 104.377 75.3758 104.412C75.6426 104.446 75.8822 104.633 76.0945 104.973C76.2578 105.234 76.2597 105.508 76.1018 105.795C75.9439 106.082 75.717 106.361 75.423 106.632C75.129 106.904 74.815 107.151 74.4811 107.374C74.1471 107.597 73.8876 107.766 73.7043 107.878C73.2705 108.145 72.8168 108.388 72.3431 108.606C71.8695 108.824 71.4067 108.956 70.9529 109C70.4992 109.045 70.06 108.976 69.6372 108.793C69.2143 108.612 68.835 108.252 68.501 107.717C68.1344 107.129 67.8277 106.515 67.5809 105.871C67.3341 105.229 67.0273 104.613 66.6607 104.025C66.5954 103.92 66.5156 103.808 66.4212 103.686C66.3268 103.564 66.2252 103.459 66.1163 103.372C66.0074 103.285 65.8876 103.232 65.7587 103.212C65.6281 103.192 65.4901 103.229 65.3468 103.318C65.1108 103.463 64.9747 103.662 64.9439 103.918C64.9112 104.172 64.9638 104.41 65.1036 104.633C65.3722 105.064 65.7116 105.434 66.1217 105.74C66.1961 105.802 66.2905 105.866 66.4048 105.933C66.5192 105.998 66.6353 106.071 66.7587 106.149C66.8803 106.227 66.9911 106.303 67.0927 106.377C67.1925 106.452 67.2687 106.526 67.3159 106.606C67.4538 106.828 67.4793 107.051 67.3921 107.276C67.305 107.501 67.1653 107.713 66.9711 107.913C66.7769 108.113 66.5682 108.296 66.345 108.461C66.1199 108.626 65.9366 108.753 65.7914 108.842C65.6462 108.931 65.4593 109.038 65.227 109.162C64.9947 109.285 64.7588 109.387 64.5156 109.463C64.2724 109.539 64.0382 109.572 63.8114 109.557C63.5845 109.543 63.4048 109.432 63.276 109.223C63.2106 109.118 63.1417 108.958 63.0709 108.74C62.9983 108.523 62.9275 108.292 62.8568 108.047C62.786 107.802 62.7225 107.561 62.6662 107.325C62.6099 107.089 62.5646 106.9 62.5301 106.759C62.3141 105.917 62.0655 105.045 61.7842 104.143C61.5028 103.241 61.1308 102.419 60.6662 101.675C60.4212 101.283 60.207 100.955 60.0237 100.69C59.8404 100.423 59.6771 100.2 59.5355 100.015C59.394 99.8312 59.2578 99.6788 59.129 99.5608C59.0001 99.441 58.8676 99.3321 58.7352 99.2341C58.5791 99.1307 58.4321 99.0417 58.2941 98.9637C58.1544 98.8875 58.0201 98.8076 57.8876 98.7259C57.7551 98.6443 57.6281 98.5517 57.5083 98.4446C57.3867 98.3376 57.2742 98.1996 57.1689 98.0309C57.0891 97.9038 57.031 97.7768 56.9965 97.6515C56.6426 97.8094 56.2869 97.9619 55.9275 98.1089C56.2088 98.3938 56.4266 98.8131 56.5827 99.3666L57.5246 102.715C57.57 102.878 57.6244 103.098 57.6862 103.376C57.7479 103.653 57.7823 103.931 57.7878 104.209C57.7932 104.486 57.7515 104.737 57.6626 104.96C57.5736 105.183 57.4012 105.33 57.1489 105.401C56.8658 105.479 56.6263 105.443 56.4303 105.289C56.2342 105.136 56.0691 104.918 55.9348 104.637C55.7987 104.356 55.6807 104.045 55.5773 103.708C55.4738 103.37 55.3667 103.056 55.2524 102.77C55.1399 102.483 55.0146 102.254 54.8785 102.083C54.7424 101.915 54.57 101.858 54.3613 101.917C54.2415 101.949 54.1725 102.076 54.1544 102.296C54.1362 102.515 54.1544 102.802 54.2143 103.152C54.2724 103.503 54.3558 103.902 54.4665 104.35C54.5773 104.799 54.7007 105.265 54.8368 105.753C54.9457 106.138 55.0727 106.535 55.2215 106.949C55.3704 107.363 55.5464 107.764 55.7533 108.152C55.9584 108.541 56.1961 108.902 56.4666 109.234C56.737 109.566 57.0528 109.833 57.4139 110.034C57.6045 110.142 57.7823 110.243 57.9457 110.341C58.109 110.439 58.2234 110.599 58.2851 110.82C58.3558 111.073 58.3304 111.298 58.2107 111.499C58.0909 111.701 57.9185 111.875 57.6952 112.024C57.472 112.172 57.2179 112.299 56.9348 112.401C56.6499 112.505 56.374 112.592 56.1054 112.666L54.3177 113.162C54.1235 113.216 53.9058 113.267 53.6626 113.319C53.4194 113.37 53.1871 113.387 52.9656 113.368C52.7442 113.35 52.541 113.287 52.3577 113.178C52.1744 113.069 52.0455 112.882 51.9711 112.615C51.933 112.483 51.9203 112.294 51.933 112.053C51.9457 111.809 51.9656 111.554 51.9929 111.283C52.0219 111.013 52.0509 110.75 52.0836 110.494C52.1163 110.238 52.1344 110.029 52.1362 109.869C52.1798 109.109 52.1635 108.368 52.0891 107.648C52.0146 106.927 51.8749 106.198 51.6662 105.459C51.4593 104.721 51.2633 104.113 51.0818 103.637C50.9003 103.162 50.7279 102.946 50.5627 102.991C50.3685 103.045 50.2488 103.214 50.1998 103.497C50.1508 103.782 50.1381 104.093 50.1598 104.428C50.1816 104.764 50.2234 105.096 50.2832 105.423C50.3431 105.75 50.3831 105.98 50.4067 106.118C50.452 106.392 50.4212 106.652 50.3123 106.897C50.2052 107.142 50.0019 107.305 49.7043 107.388C49.4357 107.463 49.1998 107.436 48.9965 107.31C48.7914 107.183 48.6154 107.009 48.4647 106.788C48.3141 106.566 48.1871 106.327 48.0818 106.069C47.9765 105.811 47.8985 105.586 47.844 105.394L46.9584 102.245C46.8005 101.682 46.8041 101.156 46.9711 100.664C46.9911 100.608 47.0128 100.554 47.0382 100.501C46.7116 100.546 46.3849 100.586 46.0582 100.622C46.1108 100.737 46.1526 100.858 46.1871 100.991C46.2615 101.278 46.3068 101.572 46.3268 101.871C46.3468 102.171 46.3522 102.414 46.345 102.597C46.3359 102.842 46.3141 103.183 46.2814 103.621C46.2488 104.058 46.178 104.485 46.0691 104.902C45.9602 105.319 45.7987 105.682 45.5845 105.989C45.3722 106.296 45.08 106.443 44.7079 106.428C44.276 106.412 43.9711 106.254 43.7969 105.955C43.6226 105.657 43.4847 105.325 43.3831 104.96C43.2814 104.595 43.178 104.265 43.0727 103.969C42.9675 103.673 42.7696 103.519 42.4756 103.508C42.2125 103.497 42.011 103.597 41.8713 103.808C41.7315 104.018 41.6208 104.267 41.541 104.555C41.4593 104.844 41.4103 105.138 41.3903 105.437C41.3704 105.737 41.3577 105.969 41.3504 106.138C41.3395 106.43 41.3486 106.799 41.3776 107.245C41.4067 107.691 41.4793 108.125 41.5936 108.544C41.7079 108.964 41.8876 109.328 42.1308 109.637C42.374 109.946 42.7043 110.109 43.1217 110.125C43.3849 110.136 43.6317 110.056 43.8622 109.889C44.0927 109.722 44.2143 109.499 44.2252 109.223C44.2306 109.1 44.1889 108.969 44.1018 108.828C44.0146 108.686 43.893 108.612 43.7388 108.606C43.6771 108.604 43.619 108.613 43.5627 108.633C43.5083 108.655 43.4502 108.664 43.3867 108.661C43.2161 108.653 43.0764 108.583 42.9656 108.448C42.8549 108.314 42.8023 108.162 42.8096 107.993C42.8259 107.593 42.9783 107.261 43.2669 106.996C43.5555 106.731 43.9021 106.606 44.3032 106.621C44.766 106.639 45.1453 106.753 45.4393 106.964C45.7333 107.174 45.9584 107.445 46.1163 107.773C46.2742 108.102 46.3758 108.463 46.423 108.857C46.4702 109.25 46.4847 109.639 46.4702 110.022C46.443 110.711 46.3214 111.359 46.1036 111.966C45.8858 112.572 45.5754 113.098 45.1707 113.543C44.766 113.987 44.276 114.334 43.7025 114.581C43.1272 114.828 42.4702 114.936 41.7279 114.907C40.7696 114.871 40.0019 114.615 39.4248 114.14C38.8477 113.664 38.4103 113.071 38.1126 112.361C37.815 111.652 37.6281 110.88 37.5537 110.047C37.4774 109.214 37.4538 108.423 37.4847 107.672C37.5065 107.12 37.5573 106.499 37.639 105.811C37.7206 105.123 37.8549 104.445 38.0437 103.777C38.2324 103.109 38.4847 102.481 38.8023 101.893C39.0401 101.454 39.3268 101.076 39.6644 100.76C38.4738 100.681 37.296 100.541 36.1326 100.347C36.1979 100.546 36.1925 100.78 36.1181 101.051L35.8604 101.984C35.7787 102.279 35.6916 102.579 35.6009 102.88C35.5101 103.181 35.4157 103.479 35.3177 103.77C35.2524 104.005 35.1344 104.212 34.9656 104.39C34.7969 104.566 34.5627 104.615 34.2651 104.534C33.9965 104.461 33.815 104.292 33.7188 104.027C33.6244 103.762 33.5391 103.477 33.4629 103.169C33.3867 102.862 33.2905 102.573 33.1725 102.301C33.0546 102.031 32.8313 101.851 32.5047 101.76C32.325 101.711 32.1544 101.72 31.9911 101.788C31.8277 101.855 31.6843 101.955 31.5591 102.087C31.4339 102.22 31.3268 102.374 31.2397 102.55C31.1508 102.724 31.0872 102.886 31.0455 103.034C31.0255 103.109 31.0056 103.207 30.9874 103.328C30.9693 103.45 30.9584 103.575 30.9566 103.702C30.9529 103.829 30.9729 103.946 31.0165 104.053C31.0582 104.16 31.1399 104.229 31.2597 104.261C31.3649 104.29 31.4702 104.267 31.5791 104.192C31.688 104.118 31.8005 104.029 31.9166 103.926C32.0328 103.822 32.158 103.737 32.2887 103.668C32.4194 103.601 32.5664 103.588 32.7315 103.633C32.9402 103.69 33.0764 103.819 33.1417 104.02C33.207 104.221 33.2379 104.445 33.2324 104.69C33.2288 104.935 33.1979 105.178 33.1399 105.416C33.0818 105.655 33.0346 105.84 32.9983 105.975C32.9493 106.152 32.8731 106.387 32.7678 106.675C32.6644 106.966 32.5301 107.247 32.3649 107.521C32.2016 107.795 32.0146 108.018 31.8059 108.192C31.5972 108.367 31.3667 108.419 31.1126 108.35C30.844 108.278 30.6734 108.14 30.6009 107.936C30.5283 107.733 30.4901 107.524 30.4865 107.309C30.4829 107.093 30.4811 106.893 30.4829 106.711C30.4847 106.528 30.4194 106.419 30.2851 106.383C30.1961 106.359 30.129 106.383 30.0836 106.459C30.0382 106.535 30.0019 106.624 29.9729 106.728C29.8985 106.995 29.844 107.265 29.8078 107.543C29.7715 107.819 29.7715 108.078 29.8078 108.319C29.8459 108.561 29.9312 108.775 30.0636 108.962C30.1961 109.149 30.3885 109.278 30.6426 109.347C31.0455 109.456 31.4067 109.412 31.7261 109.212C32.0455 109.013 32.3322 108.773 32.5863 108.492C32.8404 108.211 33.0782 107.958 33.3014 107.731C33.5246 107.506 33.7479 107.423 33.9711 107.485C34.06 107.508 34.1508 107.546 34.2415 107.593C34.3322 107.642 34.4048 107.713 34.4593 107.808C34.5391 107.926 34.5791 108.087 34.5773 108.294C34.5773 108.501 34.5573 108.726 34.5228 108.971C34.4865 109.216 34.4375 109.465 34.3758 109.719C34.3141 109.973 34.2542 110.203 34.1961 110.41C34.0818 110.824 33.9384 111.24 33.7678 111.655C33.5972 112.071 33.3849 112.43 33.1326 112.735C32.8803 113.04 32.57 113.261 32.2034 113.401C31.8368 113.539 31.3994 113.541 30.8912 113.401L25.7678 112.005C25.4702 111.924 25.2306 111.755 25.0528 111.501C24.8749 111.245 24.8295 110.962 24.9148 110.652C24.9638 110.474 25.0419 110.309 25.1489 110.154C25.256 110 25.354 109.848 25.443 109.697C25.6499 109.356 25.844 109.002 26.0237 108.637C26.3395 107.958 26.6081 107.261 26.8313 106.541C27.0546 105.822 27.2669 105.1 27.4665 104.374C27.6172 103.826 27.7515 103.274 27.8658 102.715C27.9802 102.158 28.0655 101.599 28.1235 101.042C28.1744 100.626 28.207 100.201 28.2234 99.7677C28.2397 99.3339 28.3014 98.9183 28.4121 98.5172C28.4448 98.3993 28.4901 98.2976 28.5464 98.2141C28.0219 98.0054 27.5028 97.784 26.9892 97.5517C26.9965 97.5699 27.0038 97.588 27.011 97.6043C27.4684 98.6788 27.3867 99.7132 26.7678 100.704C26.3776 101.33 25.8622 101.755 25.2234 101.976C24.5845 102.198 23.9185 102.221 23.227 102.049C23.6952 102.697 23.9566 103.408 24.011 104.181C24.0655 104.955 23.8767 105.688 23.4448 106.379C23.0382 107.033 22.5446 107.523 21.9656 107.853C21.3867 108.183 20.766 108.385 20.1036 108.456C19.4411 108.526 18.7678 108.474 18.0872 108.299C17.4048 108.123 16.7678 107.855 16.1762 107.492L14.5391 106.486C14.3159 106.348 14.1036 106.187 13.9021 106C13.7007 105.813 13.541 105.61 13.4212 105.394C13.3014 105.176 13.2433 104.942 13.247 104.69C13.2488 104.439 13.3322 104.181 13.4938 103.92C13.5591 103.815 13.6535 103.693 13.7769 103.554C13.9003 103.414 14.0364 103.27 14.1816 103.125C14.3268 102.98 14.4666 102.835 14.6009 102.693C14.7352 102.55 14.8531 102.428 14.9529 102.327C15.3867 101.835 15.7896 101.328 16.1598 100.808C16.5301 100.287 16.8876 99.7514 17.2288 99.2033C17.5791 98.6425 17.8967 98.0599 18.1798 97.4592C18.4647 96.8584 18.6989 96.2341 18.8822 95.5898C18.9203 95.47 18.9584 95.3067 18.9947 95.1034C19.031 94.9002 19.0709 94.6896 19.1145 94.4737C19.158 94.2577 19.207 94.0563 19.2578 93.8711C19.3087 93.686 19.3631 93.5481 19.4212 93.4573C19.4847 93.3557 19.55 93.274 19.619 93.2105C7.50466 84.2396 -0.564302 68.2378 -0.564302 49.9855C-0.564302 41.9982 0.981978 34.441 3.73515 27.7151C3.64985 27.686 3.57726 27.657 3.51555 27.6279L1.9602 26.8893C1.73697 26.784 1.57181 26.6189 1.46474 26.3975C1.35766 26.1742 1.35403 25.8984 1.45385 25.5681C1.07635 25.1652 0.651669 24.7677 0.177985 24.3775C-0.295699 23.9873 -0.794792 23.6134 -1.31929 23.2577C-1.84379 22.902 -2.37918 22.5717 -2.92365 22.265C-3.46811 21.9601 -4.00169 21.6824 -4.52437 21.4338C-4.73672 21.3321 -4.88372 21.2033 -4.96358 21.0472C-5.0398 20.902 -5.08154 20.7332 -5.08154 20.5499C-5.08154 20.3666 -5.0525 20.1797 -4.9908 19.9909C-4.92909 19.8022 -4.8565 19.6207 -4.77301 19.4465L-3.95269 17.7441C-3.86013 17.5517 -3.70949 17.4192 -3.5026 17.3466C-3.29388 17.274 -3.09425 17.2831 -2.90005 17.3757C-2.7349 17.4537 -2.57338 17.5481 -2.41185 17.6606C-2.25214 17.7731 -2.09606 17.8802 -1.93817 17.9746C-1.61512 18.1688 -1.29933 18.3249 -0.999873 18.4555C-0.700418 18.5862 -0.397333 18.7005 -0.0924325 18.7985C0.212468 18.8966 0.517368 18.9782 0.824083 19.0472C1.1308 19.1162 1.44296 19.1924 1.76238 19.2704C1.9112 19.3067 2.08724 19.3448 2.28688 19.3866C2.48651 19.4283 2.69704 19.4755 2.91664 19.5263C3.13624 19.5771 3.3504 19.6388 3.56092 19.7078C3.77145 19.7786 3.96383 19.8548 4.13806 19.9383C4.32862 19.5917 4.53007 19.3975 4.7406 19.3557C4.95112 19.314 5.18343 19.3521 5.4357 19.4719L7.07817 20.2523C7.15621 20.2886 7.25602 20.343 7.37581 20.412L7.39033 20.4211C7.86764 19.6261 8.36673 18.8476 8.88034 18.0871C8.55548 18.1379 8.22154 18.1343 7.88216 18.078C7.37581 17.9927 6.87309 17.8221 6.37581 17.5681C5.87853 17.314 5.42481 17.0399 5.01465 16.7477C4.76964 16.5735 4.51737 16.3775 4.25784 16.1615C3.99831 15.9437 3.74967 15.7151 3.51374 15.4755C3.2778 15.2359 3.05639 14.9873 2.85312 14.7296C2.64804 14.4719 2.47381 14.2069 2.32681 13.9328C2.18161 13.9873 2.02372 14.0091 1.85312 14C1.68252 13.9891 1.53007 13.9383 1.3994 13.8457C1.18887 13.6969 1.0818 13.4918 1.07817 13.2341C1.07272 12.9746 1.12354 12.7042 1.22699 12.4247C1.33043 12.1434 1.46111 11.8766 1.619 11.6207C1.7769 11.3648 1.90938 11.1633 2.01465 11.0163C2.44659 10.4174 2.9239 10.0327 3.44477 9.85844C3.96746 9.68421 4.50648 9.6461 5.06546 9.74229C5.62445 9.83847 6.17799 10.0327 6.72789 10.3249C7.2778 10.6171 7.79142 10.9347 8.27236 11.2759C8.70067 11.5808 9.13624 11.9456 9.58089 12.3739C10.0255 12.8022 10.3903 13.2668 10.6734 13.7713C10.9021 14.1779 11.0509 14.5989 11.1199 15.0327C11.6426 14.3757 12.1798 13.7332 12.7297 13.1107C12.6952 13.0926 12.6644 13.0672 12.6353 13.0363C12.5609 12.9583 12.4847 12.8584 12.4048 12.735C12.325 12.6116 12.2433 12.4828 12.1598 12.3485C12.0764 12.2142 11.9983 12.0817 11.9257 11.951C11.8531 11.8203 11.7823 11.7078 11.7188 11.6062C11.4774 11.216 11.227 10.8421 10.9638 10.4864C10.7007 10.1325 9.92935 9.11434 9.619 8.78947C9.43388 8.59528 9.25603 8.40472 9.0818 8.21416C8.90938 8.02359 8.73334 7.83666 8.55548 7.64973C8.3631 7.44827 8.1671 7.25045 7.96746 7.05626C7.76782 6.86207 7.55548 6.67876 7.33407 6.50635C7.15621 6.36479 6.94931 6.23956 6.71701 6.12704C6.4847 6.01452 6.28688 5.87296 6.12535 5.70236C6.02916 5.60073 5.98198 5.49183 5.98016 5.37568C5.98016 5.25953 6.00557 5.14156 6.0582 5.02722C6.11083 4.91107 6.1798 4.80218 6.26691 4.69873C6.35403 4.59528 6.4357 4.50817 6.51374 4.43376L8.1072 2.94011C8.4357 2.63339 8.74423 2.49909 9.03642 2.54265C9.32862 2.58439 9.63715 2.72414 9.96564 2.96007C10.011 2.99092 10.0891 3.05082 10.1998 3.13612C10.3105 3.22141 10.4303 3.30853 10.5573 3.39564C10.6843 3.48276 10.8059 3.54809 10.9221 3.59347C11.0382 3.63884 11.1199 3.63884 11.1671 3.59347C11.2143 3.54991 11.2107 3.45009 11.158 3.29401C11.1054 3.13793 11.0346 2.96915 10.9439 2.78947C10.8531 2.6098 10.7678 2.44101 10.6843 2.28493C10.6009 2.12704 10.5446 2.02722 10.5156 1.98004C10.3214 1.60436 10.2524 1.2922 10.3087 1.03993C10.3649 0.789474 10.5464 0.52087 10.8513 0.234119C11.0382 0.0580759 11.227 -0.114338 11.4139 -0.281307C11.6009 -0.450091 11.7842 -0.617061 11.9638 -0.785845C12.0419 -0.85844 12.1471 -0.954629 12.2796 -1.07078C12.4121 -1.18693 12.5519 -1.30127 12.7007 -1.41016C12.8477 -1.51906 12.9965 -1.61162 13.1471 -1.68603C13.2978 -1.76044 13.4339 -1.79673 13.5555 -1.7931C13.6771 -1.78947 13.7969 -1.72595 13.9148 -1.60254C14.0255 -1.48639 14.1145 -1.31942 14.1798 -1.10345C14.2451 -0.885664 14.3141 -0.70236 14.3867 -0.548096C14.501 -0.303086 14.6589 -0.0362988 14.8604 0.252268C15.0618 0.540833 15.276 0.823956 15.5028 1.10163C15.7297 1.37931 15.9602 1.64791 16.1925 1.90744C16.4248 2.16697 16.6335 2.39383 16.8168 2.58621L17.7696 3.58621C18.0945 3.9274 18.443 4.24319 18.815 4.53176C19.1871 4.82214 19.5736 5.03811 19.9765 5.18149C20.3794 5.32486 20.7914 5.36116 21.2107 5.29038C21.6317 5.2196 22.0509 4.98548 22.4738 4.58984C22.6934 4.38475 22.9058 4.26679 23.1108 4.23412C23.2052 4.2196 23.3032 4.23412 23.4012 4.27405C24.9457 3.37568 26.541 2.58621 28.1834 1.91107C28.1635 1.85844 28.1471 1.81125 28.1362 1.76588L27.6771 0.116152C27.6117 -0.119783 27.6281 -0.352088 27.7261 -0.577133C27.8241 -0.803993 28.0328 -0.987297 28.3504 -1.13067C28.4103 -1.67877 28.4321 -2.25771 28.4175 -2.86751C28.403 -3.47731 28.3595 -4.09619 28.2851 -4.72414C28.2107 -5.35027 28.1108 -5.96915 27.9856 -6.57532C27.8604 -7.1833 27.7206 -7.76407 27.5664 -8.31942C27.5028 -8.54628 27.5047 -8.74047 27.5718 -8.902C27.639 -9.06352 27.7406 -9.20508 27.8803 -9.32668C28.0201 -9.44828 28.1816 -9.54809 28.3649 -9.62613C28.55 -9.70417 28.7352 -9.76951 28.9221 -9.82033L30.7551 -10.323C30.962 -10.3793 31.1617 -10.3539 31.354 -10.2468C31.5464 -10.1397 31.6698 -9.98185 31.7279 -9.77677C31.7769 -9.60254 31.8114 -9.41742 31.8313 -9.22505C31.8513 -9.03085 31.8731 -8.84392 31.9039 -8.66425C31.9693 -8.29583 32.0564 -7.95644 32.1544 -7.6461C32.2524 -7.33575 32.3631 -7.03448 32.4901 -6.74229C32.6154 -6.45009 32.7533 -6.16697 32.9021 -5.89292C33.0509 -5.61888 33.1979 -5.33394 33.3486 -5.04356C33.4194 -4.90744 33.5047 -4.75136 33.6045 -4.57532C33.7043 -4.39746 33.8059 -4.21053 33.9112 -4.01271C34.0165 -3.81488 34.1108 -3.61343 34.1961 -3.41016C34.2814 -3.2069 34.3486 -3.01271 34.4012 -2.82759C34.7896 -2.91289 35.0691 -2.88929 35.2397 -2.75862C35.4103 -2.62795 35.5319 -2.43013 35.6063 -2.16153L36.0927 -0.419239C36.0981 -0.399275 36.1036 -0.379311 36.109 -0.355718C36.9275 -0.493649 37.7551 -0.602542 38.5881 -0.684212L38.5736 -0.691471C38.4212 -0.773141 38.296 -0.885663 38.2016 -1.03267C38.1054 -1.17967 38.0546 -1.35935 38.0491 -1.57169C38.0473 -1.65699 38.0546 -1.76407 38.0727 -1.89292C38.0909 -2.02178 38.1126 -2.15608 38.1417 -2.29583C38.1707 -2.43557 38.1961 -2.57169 38.2179 -2.70599C38.2415 -2.84029 38.2669 -2.95463 38.2796 -3.05263C38.3468 -3.50272 38.3794 -3.94918 38.394 -4.39202C38.4085 -4.83485 38.4085 -5.28131 38.394 -5.72777C38.3813 -6.18693 38.3413 -6.64428 38.2742 -7.09982C38.207 -7.55717 38.0999 -8.00726 37.9602 -8.45191C37.933 -8.53539 37.8949 -8.64428 37.8386 -8.77677C37.7805 -8.90926 37.7224 -9.04537 37.6662 -9.18875C37.6081 -9.33031 37.5591 -9.46643 37.5174 -9.59347C37.4756 -9.72051 37.4538 -9.82033 37.452 -9.89655C37.4466 -10.1089 37.501 -10.2577 37.6172 -10.3412C37.7333 -10.4247 37.8822 -10.5009 38.0618 -10.5699C38.2107 -10.6279 38.3994 -10.6751 38.6299 -10.7132C38.8604 -10.7514 39.1018 -10.7822 39.3522 -10.8058C39.6045 -10.8294 39.8477 -10.8457 40.0836 -10.8584C40.3195 -10.8711 40.5192 -10.8784 40.6789 -10.8838C40.9039 -10.8911 41.1381 -10.8911 41.3794 -10.8875C41.6208 -10.8838 41.864 -10.8639 42.1072 -10.8276C42.3504 -10.7913 42.5882 -10.7405 42.8205 -10.6715C43.0528 -10.6044 43.2597 -10.4973 43.4502 -10.3702C44.1272 -9.9147 44.4811 -9.29038 44.5047 -8.47913C44.5192 -7.96733 44.3849 -7.52632 44.0999 -7.15608C43.815 -6.78584 43.4393 -6.51906 42.9693 -6.35572C43.492 -6.1579 43.9166 -5.84392 44.2469 -5.41561C44.5773 -4.9873 44.7497 -4.49183 44.766 -3.92559C44.7823 -3.39202 44.6843 -2.92015 44.4756 -2.50817C44.2669 -2.09619 43.9838 -1.7441 43.6281 -1.45191C43.3214 -1.19964 42.9747 -0.998186 42.59 -0.84755C44.2306 -0.823957 45.8495 -0.695101 47.4411 -0.457352C47.354 -0.526317 47.2742 -0.602541 47.2016 -0.682396C46.8695 -1.05263 46.6408 -1.48639 46.5174 -1.98185C46.394 -2.47731 46.3504 -3.00182 46.3867 -3.55535C46.423 -4.10889 46.4956 -4.63158 46.6008 -5.1216C46.6644 -5.41379 46.7442 -5.72051 46.8404 -6.04356C46.9384 -6.36661 47.0491 -6.68421 47.178 -6.99456C47.305 -7.3049 47.4466 -7.60617 47.6027 -7.89474C47.7587 -8.1833 47.933 -8.44828 48.129 -8.69147C48.0201 -8.80218 47.9366 -8.93648 47.8785 -9.09619C47.8205 -9.2559 47.8078 -9.41379 47.8404 -9.56987C47.8949 -9.82033 48.0401 -10 48.2778 -10.1071C48.5156 -10.2142 48.7842 -10.2777 49.0854 -10.2958C49.3867 -10.314 49.6862 -10.3013 49.9838 -10.2595C50.2832 -10.2178 50.521 -10.1779 50.7007 -10.1397C51.4266 -9.98548 51.9729 -9.70599 52.3413 -9.29946C52.7097 -8.89474 52.962 -8.41742 53.0963 -7.87114C53.2306 -7.32486 53.2724 -6.74229 53.2215 -6.12704C53.1707 -5.50998 53.0836 -4.91652 52.9602 -4.34301C52.8495 -3.83122 52.6862 -3.28857 52.4684 -2.71325C52.2506 -2.13793 51.9656 -1.62069 51.6136 -1.16153C51.2615 -0.70236 50.8422 -0.346643 50.3522 -0.0961895C50.2542 -0.045373 50.1526 -0.00363064 50.0473 0.0308514C50.5736 0.148819 51.0981 0.277677 51.619 0.419237C51.6408 0.401089 51.6644 0.386569 51.6898 0.373865C51.8005 0.313974 51.9239 0.283121 52.0582 0.279491C52.1925 0.275862 52.3286 0.292195 52.4629 0.330308C52.599 0.366605 52.7206 0.408348 52.8313 0.451905C53.2306 0.611614 53.6009 0.671506 53.9421 0.629764C54.2832 0.588021 54.6027 0.473683 54.8985 0.288566C55.1943 0.101632 55.4665 -0.134302 55.717 -0.419239C55.9656 -0.704175 56.1907 -1.01452 56.3903 -1.34846C56.59 -1.6824 56.7678 -2.01996 56.9239 -2.35935C57.08 -2.69873 57.2179 -3.01815 57.3377 -3.31398C57.4139 -3.50272 57.5101 -3.73866 57.6281 -4.02541C57.7442 -4.31216 57.8568 -4.6098 57.9638 -4.91652C58.0709 -5.22323 58.1671 -5.5245 58.2524 -5.81851C58.3377 -6.11252 58.3885 -6.36479 58.4048 -6.57713C58.4121 -6.67877 58.4085 -6.79492 58.3976 -6.92559C58.3867 -7.05626 58.3758 -7.18693 58.3667 -7.3176C58.3558 -7.44828 58.3486 -7.57169 58.3431 -7.68966C58.3377 -7.80581 58.3522 -7.90381 58.3849 -7.98367C58.4448 -8.13249 58.5355 -8.23412 58.6571 -8.28857C58.7787 -8.34301 58.913 -8.36661 59.06 -8.35935C59.207 -8.35209 59.3577 -8.32668 59.5065 -8.28312C59.6571 -8.23957 59.7878 -8.19601 59.8967 -8.15245L60.6136 -7.8657C61.1816 -7.63884 61.7279 -7.37568 62.2506 -7.08167C62.7733 -6.78584 63.2016 -6.3775 63.5319 -5.85299C63.7932 -5.4392 63.9185 -5.01633 63.913 -4.58802C63.9076 -4.15971 63.8132 -3.72232 63.6317 -3.27768C63.4538 -2.84211 63.2179 -2.48094 62.9203 -2.19056C62.6226 -1.902 62.2869 -1.67877 61.9112 -1.5245C61.5355 -1.37024 61.1326 -1.27768 60.7043 -1.24864C60.276 -1.2196 59.8459 -1.24864 59.4139 -1.32486L58.9439 -1.41016L58.0328 0.8294C57.8277 1.33394 57.5646 1.7314 57.2433 2.02359C57.1308 2.12523 57.0146 2.21597 56.8931 2.29583C58.0691 2.81488 59.2197 3.39564 60.345 4.03085C60.3268 3.91288 60.3558 3.79855 60.4321 3.68602C60.4938 3.59891 60.5754 3.49909 60.6789 3.38838C60.7823 3.27768 60.8894 3.16878 61.0019 3.06533C61.1145 2.96007 61.2252 2.85481 61.3377 2.75136C61.4502 2.6461 61.5482 2.55172 61.6335 2.46642C61.9911 2.10345 62.8041 1.27042 63.1435 0.894736C63.4829 0.517241 63.7987 0.119781 64.0909 -0.303086C64.3468 -0.671507 64.59 -1.05082 64.8186 -1.43739C65.0473 -1.82396 65.2506 -2.23049 65.4266 -2.65336C65.4575 -2.73503 65.4938 -2.84029 65.5373 -2.96733C65.5791 -3.09437 65.6226 -3.22686 65.6662 -3.36479C65.7097 -3.50272 65.7515 -3.62977 65.7932 -3.7441C65.8332 -3.85844 65.8731 -3.94192 65.9094 -3.99456C66.0128 -4.14338 66.1399 -4.22868 66.2905 -4.24864C66.4411 -4.2686 66.5972 -4.25227 66.7569 -4.20145C66.9166 -4.15064 67.0709 -4.07623 67.2215 -3.98185C67.3704 -3.88566 67.4974 -3.80218 67.6045 -3.72958L67.8295 -3.57532C67.9366 -3.50272 68.0528 -3.41742 68.178 -3.31761C68.305 -3.21779 68.4157 -3.11434 68.5083 -3.00363C68.6027 -2.89474 68.6644 -2.7804 68.6934 -2.66425C68.7225 -2.54628 68.7007 -2.43557 68.6281 -2.33031C68.5246 -2.18149 68.4048 -2.05263 68.2705 -1.94374C68.1362 -1.83485 68.011 -1.71688 67.8967 -1.58802C67.7061 -1.40653 67.5319 -1.21597 67.3722 -1.01452C67.2125 -0.813068 67.0509 -0.611616 66.8876 -0.413794C66.7116 -0.15971 66.6353 0.0254078 66.6607 0.139745C66.6861 0.254083 66.7606 0.353901 66.884 0.437386C66.9366 0.473683 66.9947 0.509981 67.0546 0.544464C67.1145 0.578946 67.1816 0.620688 67.2524 0.66969C67.394 0.765879 67.5301 0.76225 67.6626 0.658801C67.7932 0.553538 67.893 0.45372 67.9602 0.357531C68.0328 0.252268 68.1145 0.130671 68.2052 -0.00907516C68.296 -0.148821 68.3758 -0.292197 68.4448 -0.437387C68.5137 -0.584393 68.57 -0.735028 68.6099 -0.887478C68.6517 -1.03993 68.6626 -1.18875 68.6426 -1.33031C68.6208 -1.4882 68.6009 -1.62795 68.5827 -1.75136C68.5646 -1.87477 68.6027 -2.00545 68.7007 -2.14701C68.7914 -2.27949 68.9021 -2.35572 69.0292 -2.37931C69.1562 -2.4029 69.2923 -2.39383 69.4393 -2.35027C69.5863 -2.30853 69.7333 -2.24319 69.8822 -2.15427C70.0292 -2.06715 70.1653 -1.98004 70.2905 -1.89474L70.6099 -1.67695C70.717 -1.60436 70.8513 -1.50817 71.0165 -1.38839C71.1816 -1.2686 71.3304 -1.13612 71.4629 -0.987296C71.5954 -0.838476 71.6934 -0.684212 71.7569 -0.524502C71.8223 -0.362977 71.8023 -0.208713 71.6989 -0.0598927C71.5591 0.14156 71.3903 0.315788 71.1925 0.459164C70.9947 0.60254 70.8077 0.756804 70.6281 0.918329C70.3704 1.15789 70.1362 1.40653 69.9221 1.66969C69.7079 1.93103 69.5029 2.20327 69.3087 2.48457L67.599 4.94918C67.4647 5.14156 67.3141 5.37023 67.1453 5.62976C66.9783 5.89111 66.8223 6.16697 66.6789 6.45735C66.5355 6.74773 66.423 7.0363 66.3413 7.32486C66.2597 7.61161 66.2451 7.87659 66.2978 8.1216L66.3014 8.1343C66.6208 8.39746 66.9348 8.66425 67.2488 8.93648L67.2578 8.93103ZM46.3105 2.41198C66.2215 4.951 81.737 25.2849 81.737 49.9964C81.737 74.7078 66.2215 95.0417 46.3105 97.5807V96.833C65.7424 94.2813 80.8695 74.2868 80.8695 49.9964C80.8695 25.706 65.7388 5.70962 46.3068 3.15789V2.41016L46.3105 2.41198Z" fill="black"/>
</g>
</svg>
