<svg width="1500" height="455" viewBox="0 0 1500 455" fill="none" xmlns="http://www.w3.org/2000/svg">
<path d="M192.954 336.74C192.949 336.738 192.944 336.737 192.939 336.735L192.947 336.743L192.954 336.74Z" fill="black"/>
<path d="M247.135 288.849C247.244 290.01 247.319 290.816 247.344 291.041C248.004 297.005 248.425 304.372 248.458 310.584C248.463 311.482 248.493 312.49 248.524 313.569C248.69 319.258 248.915 326.956 245.975 331.373C244.68 333.319 240.852 336.289 238.971 336.43C237.173 336.553 235.655 335.324 234.723 334.219C233.807 333.13 232.743 331.76 232.363 330.424C235.325 331.62 238.658 332.445 241.57 331.851C245.203 331.115 245.232 329.299 245.297 325.292L245.298 325.194C245.32 323.821 245.428 322.513 245.536 321.207C245.673 319.546 245.81 317.889 245.769 316.111C245.67 311.892 245.401 307.72 245.13 303.513C244.855 299.248 244.577 294.949 244.473 290.529C244.448 289.456 244.412 288.429 244.378 287.431C244.206 282.389 244.058 278.07 245.249 272.141C245.661 273.039 246.685 284.019 247.135 288.849Z" fill="black"/>
<path d="M150.835 321.997C150.834 321.995 150.834 321.994 150.834 321.993H150.826C150.829 321.994 150.832 321.995 150.835 321.997Z" fill="black"/>
<path d="M150.835 321.997C151.084 323.193 152.237 325.063 153.02 326.068C156.493 330.523 161.327 331.455 166.739 331.703C170.855 331.892 172.901 331.133 175.632 329.681C177.298 328.791 181.101 326.373 182.487 324.286C181.549 324.473 180.275 324.957 179.281 325.335C179.13 325.393 178.985 325.448 178.849 325.499C170.484 328.642 166.92 329.252 158.605 325.878C157.076 325.259 155.712 324.511 154.391 323.786C153.199 323.132 152.042 322.498 150.835 321.997Z" fill="black"/>
<path d="M318.448 153.441C318.533 153.527 318.649 153.654 318.515 153.533C318.318 153.317 318.369 153.362 318.448 153.441Z" fill="black"/>
<path d="M309.331 147.322C309.496 147.44 309.632 147.55 309.251 147.303C308.971 147.077 309.166 147.203 309.331 147.322Z" fill="black"/>
<path d="M290.214 90.8105C290.227 90.799 290.239 90.7878 290.25 90.777H290.233C290.227 90.788 290.221 90.7992 290.214 90.8105Z" fill="black"/>
<path fill-rule="evenodd" clip-rule="evenodd" d="M192.213 454.545C298.369 454.545 384.425 352.792 384.425 227.273C384.425 101.753 298.369 0 192.213 0C86.0565 0 0 101.753 0 227.273C0 352.792 86.0565 454.545 192.213 454.545ZM213.759 290.162C213.638 290.465 213.489 290.839 213.158 291.305H213.15C213.942 291.948 215.642 292.518 216.318 292.625C219.205 293.087 223.355 290.01 224.972 286.232C221.518 288.398 220.516 288.498 218.159 288.733C217.374 288.811 216.439 288.905 215.213 289.094C214.116 289.268 213.991 289.581 213.759 290.162ZM229.909 105.958C229.908 105.958 229.906 105.957 229.905 105.956H229.913L229.909 105.958ZM229.909 105.958L224.889 108.769C225.394 109.291 226.621 110.044 227.904 110.831C229.117 111.576 230.381 112.352 231.134 112.993C232.706 114.331 233.895 116.144 234.896 117.67C235.099 117.978 235.293 118.274 235.482 118.553C236.686 118.685 242.015 117.852 243.137 117.365L236.9 115.509C237.177 114.809 237.611 114.151 238.022 113.528C238.1 113.409 238.178 113.291 238.253 113.174C239.006 112.017 239.029 112.014 240.013 111.886C240.151 111.868 240.308 111.848 240.489 111.821C245.968 111.014 247.444 110.795 248.913 110.831C250.432 110.869 251.945 111.178 257.871 111.392C260.213 111.475 261.896 111.78 264.239 112.415C264.71 112.543 265.122 112.65 265.485 112.743C268.002 113.395 268.139 113.43 269.329 115.666C269.885 116.713 270.172 117.225 270.35 117.771C270.558 118.408 270.617 119.093 270.781 120.731C270.864 121.56 270.919 122.3 270.967 122.951C271.287 127.271 271.322 127.741 277.48 125.103C280.119 123.974 281.7 124.009 283.093 124.041C284.173 124.065 285.14 124.086 286.397 123.56L294.589 120.195C293.141 119.986 291.683 120.178 290.025 120.396C286.698 120.834 282.567 121.377 276.102 118.998C276.601 118.648 277.202 118.426 277.976 118.14C279.914 117.425 282.935 116.311 288.146 111.772C286.815 111.832 284.659 112.451 282.61 113.038C280.467 113.652 278.442 114.233 277.603 114.106C276.438 113.935 274.08 113.144 272.862 112.735L272.819 112.721C273.635 111.828 274.727 110.942 275.803 110.068C276.597 109.423 277.382 108.786 278.041 108.159C276.513 108.281 275.073 108.622 273.617 108.967C271.542 109.459 269.436 109.958 267.003 109.841C265.601 109.774 263.118 109.592 260.232 109.38C253.28 108.87 243.992 108.189 241.858 108.522C235.921 109.451 235.795 109.377 231.789 107.043C231.243 106.724 230.624 106.364 229.909 105.958ZM277.884 193.219L284.261 201.493C284.306 200.78 281.081 190.274 279.319 184.531C278.819 182.901 278.436 181.656 278.28 181.125L275.871 173.758C275.66 173.387 275.48 173.092 275.314 172.819C275.052 172.387 274.82 172.007 274.543 171.457C272.672 167.777 266.855 159.559 263.653 155.035C263.452 154.752 263.262 154.484 263.084 154.232C261.899 152.555 260.14 150.022 258.167 147.18C253.257 140.11 247.02 131.129 245.001 128.675C245.02 129.754 246.204 133.645 247.054 136.44C247.355 137.429 247.614 138.281 247.765 138.822C248.512 141.486 248.779 142.599 249.318 143.56C249.897 144.593 250.792 145.449 252.937 147.863C256.093 151.414 258.093 154.196 260.167 157.081C261.77 159.31 263.417 161.6 265.675 164.354C268.521 167.819 268.801 168.809 269.799 173.808C271.016 179.895 270.448 181.461 270.676 182.901C270.928 184.498 272.158 185.941 277.884 193.219ZM332.681 171.284C332.202 171.671 331.713 172.066 331.25 172.678C331.505 173.003 332.655 174.136 334.134 175.592C336.477 177.9 339.647 181.021 341.396 183.039C341.671 183.356 342.149 183.92 342.75 184.628C345.288 187.62 350.007 193.183 350.768 193.59C350.516 193.27 350.092 192.22 349.659 191.146C349.311 190.283 348.956 189.405 348.681 188.88C348.146 187.858 345.371 184.692 343.348 182.385C342.593 181.524 341.943 180.783 341.553 180.317C340.79 179.407 340.236 178.109 339.74 176.947C339.512 176.413 339.296 175.908 339.078 175.482C339.583 174.986 340.098 174.719 340.605 174.456C341.193 174.152 341.772 173.852 342.312 173.206L333.766 170.294C333.422 170.684 333.055 170.981 332.681 171.284ZM297.688 213.351C297.689 213.352 297.69 213.354 297.691 213.356V213.372L297.688 213.351ZM297.688 213.351L294.35 186.636L301.626 192.204L294.308 182.074C293.376 180.671 289.862 172.232 289.606 170.203L298.788 173.28C298.441 172.717 297.523 172.061 296.322 171.202C294.302 169.757 291.481 167.74 289.235 164.634C287.956 162.861 282.322 156.938 280.078 155.873C282.462 161.359 286.521 171.118 287.956 176.357C288.353 177.801 288.652 179.297 288.952 180.792C289.165 181.85 289.377 182.907 289.623 183.946C290.809 188.966 292.225 193.974 293.606 198.859C294.828 203.181 296.022 207.407 297.006 211.458L297.402 212.778C297.536 213.092 297.549 213.113 297.592 213.184C297.613 213.217 297.639 213.261 297.688 213.351ZM342.649 193.421C342.641 193.417 342.633 193.413 342.626 193.409L342.634 193.4C342.639 193.407 342.644 193.414 342.649 193.421ZM342.649 193.421C342.978 193.869 343.587 194.618 344.267 195.456C345.628 197.132 347.274 199.159 347.542 199.827L341 200.165C341.503 200.901 342.488 201.629 343.474 202.357C344.575 203.169 345.676 203.982 346.107 204.809L340.703 205.395C341.348 206.384 342.877 207.566 344.407 208.748C345.696 209.744 346.986 210.741 347.748 211.623C347.699 211.665 347.625 211.714 347.592 211.731C347.563 211.742 347.514 211.774 347.473 211.8C347.455 211.812 347.439 211.822 347.427 211.83L347.089 212.003C346.629 212.206 345.963 212.397 345.267 212.597C344.123 212.925 342.898 213.277 342.37 213.743L343.632 218.677L338.798 216.309L340.728 226.019L340.927 225.915C342.959 224.851 345.988 223.267 347.625 220.368C348.879 218.14 351.073 211.788 351.675 209.099C352.203 206.731 352.129 200.561 350.545 199.208C348.887 197.796 344.263 194.293 342.649 193.421ZM215.708 184.615C216.376 186.446 218.488 191.099 219.775 191.998V192.023L219.973 187.815C220.257 188.245 220.386 188.515 220.491 188.738C220.656 189.083 220.765 189.313 221.317 189.845L222.142 181.612C222.528 182.361 222.777 183.123 223.017 183.853C223.705 185.953 224.309 187.795 227.81 188.352C227.902 187.588 227.415 186.197 226.925 184.8C226.457 183.464 225.987 182.121 226.019 181.315C227.327 182.963 227.82 183.718 228.508 184.187C229.288 184.718 230.318 184.88 233.064 185.555C234.425 180.296 234.124 180.132 230.412 178.115C230.298 178.053 230.182 177.99 230.062 177.924C230.42 177.437 230.689 177.2 230.977 176.944C231.227 176.723 231.492 176.489 231.844 176.068C231.591 176.065 231.323 176.077 231.049 176.089C229.919 176.139 228.691 176.193 228.041 175.21C227.447 174.319 227.463 172.298 228.107 171.209C228.341 170.808 228.681 170.568 229.036 170.317C229.578 169.934 230.155 169.526 230.449 168.479C230.771 167.348 230.54 165.6 230.144 164.808L225.953 168.71C225.701 168.912 225.68 168.925 225.581 168.991C225.551 169.011 225.513 169.036 225.458 169.073C225.637 168.335 225.822 167.685 225.99 167.096C226.654 164.765 227.051 163.376 225.681 161.203C223.198 161.722 220.41 162.952 218.669 165.459C214.61 171.292 213.233 177.9 215.708 184.615ZM125.986 167.48C124.732 170.822 123.767 174.097 122.769 177.545L122.777 177.537C122.852 177.504 122.942 177.454 122.992 177.429C123.05 177.405 123.149 177.355 123.206 177.322C123.264 177.289 123.338 177.256 123.404 177.215L126.828 174.484C129.446 172.312 130.129 171.105 131.483 168.711C131.909 167.959 132.401 167.09 133.04 166.037C134.014 164.43 133.938 163.438 133.833 162.077C133.799 161.628 133.761 161.14 133.757 160.576C133.736 157.361 133.543 156.604 133.722 155.947C133.883 155.354 134.347 154.843 135.515 152.673C136.145 151.5 136.668 150.655 137.083 149.985C138.238 148.119 138.556 147.605 138.022 145.116C137.891 144.516 137.781 143.881 137.672 143.25C137.493 142.216 137.315 141.193 137.049 140.348C135.185 146.882 133.155 153.597 130.202 159.338C129.672 160.366 129.168 161.222 128.679 162.054C127.757 163.619 126.886 165.1 125.986 167.48ZM248.45 199.221C248.327 199.086 248.215 198.962 248.12 198.853H248.111C248.87 197.987 250.949 197.195 252.112 196.915L252.071 194.266C251.261 194.387 250.591 194.703 249.913 195.023C249.204 195.357 248.486 195.695 247.592 195.817C245.026 196.172 239.367 196.733 236.999 195.85C234.804 195.037 234.279 194.952 232.467 194.659C232.202 194.616 231.909 194.569 231.58 194.514C231.622 195.182 231.849 195.809 232.067 196.41C232.358 197.213 232.632 197.971 232.429 198.721C232.268 199.32 231.765 200.309 231.267 201.286C230.901 202.007 230.538 202.721 230.317 203.267C232.714 202.791 233.949 201.654 235.098 200.597C237.433 198.449 239.412 196.628 250.067 201.345C249.769 200.675 249.006 199.834 248.45 199.221ZM242.32 203.423C241.479 202.565 239.4 201.237 238.163 202.64C238.427 203.588 238.955 203.861 240.217 204.158C241.537 204.471 241.792 204.356 242.32 203.423ZM238.695 206.197C238.381 205.808 238.051 205.399 237.626 205.049C236.942 208.2 238.237 209.041 241.363 209.916C243.277 210.452 246.742 208.984 244.449 206.558C243.996 206.66 243.742 206.791 243.438 206.948C243.227 207.056 242.992 207.177 242.65 207.309C240.32 208.207 239.57 207.279 238.695 206.197ZM233.922 212.127L231.398 215.327H231.406C231.58 215.397 231.748 215.465 231.91 215.53C235.062 216.801 236.195 217.257 240.266 214.997C241.711 214.193 243.393 214.068 245.035 213.947C248.175 213.714 251.169 213.492 252.079 208.546C250.198 208.904 249.749 209.32 249.213 209.814C248.552 210.426 247.76 211.159 243.97 212.052C243.656 212.127 243.359 212.198 243.077 212.266C239.671 213.086 238.433 213.384 233.922 212.127ZM234.986 206.083C234.852 205.331 234.732 204.662 234.318 204.026C233.023 207.523 232.281 211.475 236.966 210.922C236.928 210.392 236.797 210.228 236.558 209.929C236.44 209.782 236.297 209.602 236.125 209.33C235.338 208.06 235.15 207.009 234.986 206.083ZM93.3226 182.407L93.203 182.462L93.1865 182.42L93.3226 182.407ZM107.64 175.854L93.3226 182.407L104.249 181.323C104.422 181.884 104.818 188.508 103.581 189.754C103.103 190.235 101.521 191.509 99.7845 192.907C97.3518 194.865 94.6166 197.067 94.193 197.674L99.7531 195.207C99.8539 195.158 99.9334 195.117 100.005 195.081C100.185 194.989 100.313 194.923 100.603 194.811L101.667 194.481C101.604 196.05 101.641 197.519 101.676 198.965C101.758 202.283 101.836 205.476 100.71 209.47C100.392 210.6 100.067 211.731 99.7423 212.863C98.5022 217.184 97.2579 221.52 96.3296 225.887C94.8457 232.873 96.5877 237.157 98.4122 241.644C100.858 247.659 103.452 254.038 98.6229 267.777C98.2213 268.925 97.7522 270.035 97.279 271.155C96.7319 272.451 96.1792 273.759 95.7191 275.152C95.118 276.973 94.5949 278.898 94.0774 280.803C93.8421 281.669 93.6079 282.531 93.368 283.377C93.1137 284.278 92.8566 285.246 92.5885 286.256C90.8473 292.815 88.6404 301.127 83.7079 304.001C83.6329 304.045 83.5538 304.091 83.4712 304.14C82.118 304.936 79.7842 306.309 77.8095 305.469C76.4919 303.086 76.8982 300.11 77.2984 297.178C77.5522 295.319 77.8036 293.478 77.6115 291.816L76.1596 279.467C76.0847 279.145 76.0506 279.074 75.9708 278.91C75.9628 278.893 75.9542 278.875 75.9452 278.857C75.145 283.394 74.3778 291.198 74.4108 295.677C74.4372 299.397 76.1947 303.573 77.5276 306.74C77.8561 307.521 78.1588 308.24 78.4035 308.876C78.9741 308.78 78.9794 308.777 79.1189 308.7C79.1953 308.658 79.3119 308.594 79.5832 308.48C79.8719 308.365 80.1359 308.249 80.4411 308.109L85.9847 305.461C86.1526 305.388 86.3063 305.322 86.4481 305.262C87.8046 304.685 88.0606 304.576 88.9793 302.425C89.4048 301.423 89.8339 300.45 90.2687 299.463C90.4999 298.938 90.7327 298.41 90.9674 297.871C96.1893 285.926 100.108 273.478 103.102 260.708C104.722 253.827 104.398 251.991 103.383 246.238L103.309 245.817C102.76 242.673 102.051 239.542 101.348 236.436C101.068 235.197 100.788 233.963 100.52 232.734C98.965 225.614 100.594 220.477 102.401 214.779C103.316 211.893 104.277 208.864 104.893 205.362C105.738 200.566 106.494 191.814 106.97 186.293C106.996 185.993 107.021 185.703 107.046 185.423L107.681 176.052C107.692 175.984 107.676 175.947 107.66 175.909C107.652 175.892 107.645 175.874 107.64 175.854ZM296.124 226.467C296.124 226.463 296.124 226.46 296.123 226.456L296.132 226.464C296.129 226.465 296.126 226.466 296.124 226.467ZM296.124 226.467C295.022 226.888 293.95 229.43 293.298 230.976C293.165 231.29 293.05 231.563 292.956 231.769C291.972 233.896 291.797 235.168 291.522 237.16C291.471 237.524 291.418 237.913 291.355 238.335C290.728 242.552 290.54 243.926 290.193 245.257C289.851 246.57 289.354 247.842 288.13 251.757C287.797 252.819 287.483 253.757 287.195 254.614C285.95 258.33 285.21 260.537 285.68 264.874C285.836 266.334 286.991 274.212 287.692 275.878C288.88 274.765 289.763 271.283 289.986 269.848C290.402 267.121 290.297 265.57 290.199 264.124C290.025 261.555 289.873 259.321 292.708 251.419C296.147 241.82 296.626 235.651 296.124 226.467ZM143.58 210.111C143.578 210.115 143.576 210.118 143.574 210.122V210.114L143.58 210.111ZM149.976 203.597C149.295 203.916 143.907 209.498 143.58 210.111L150.19 206.698C150.624 206.481 150.999 206.318 151.414 206.137C151.708 206.009 152.023 205.872 152.393 205.7C156.302 203.884 158.418 205.119 160.521 206.347C161.303 206.804 162.083 207.259 162.952 207.556C162.719 207.333 162.393 206.763 161.976 206.032C161.377 204.984 160.588 203.604 159.611 202.442C158.809 202.667 158.377 202.893 158.039 203.07C157.351 203.429 157.052 203.585 154.818 203.126C153.507 202.862 151.114 203.069 149.976 203.597ZM159.471 210.081C158.621 212.96 154.802 211.285 154.827 209.487C154.868 207.152 158.976 207.383 159.471 210.081ZM157.567 215.263C155.287 215.911 154.318 216.186 150.298 215.443V215.451C153.201 218.363 158.209 219.7 160.717 218.206C161.311 217.852 162.672 216.705 163.167 215.814C162.684 215.503 162.403 215.21 162.176 214.973C161.741 214.519 161.507 214.275 160.428 214.519C159.224 214.792 158.323 215.048 157.567 215.263ZM295.416 277.324L295.414 277.322V277.314C295.415 277.317 295.415 277.321 295.416 277.324ZM295.416 277.324C295.586 278.141 296.319 279.331 297.018 280.465C297.401 281.085 297.773 281.688 298.037 282.206C298.35 282.804 298.67 283.262 299.015 283.756C299.198 284.018 299.388 284.29 299.588 284.598C299.822 284.958 299.994 285.306 300.164 285.65C300.371 286.07 300.575 286.482 300.883 286.9C301.785 288.12 302.507 289.218 303.226 290.311C304.33 291.99 305.428 293.659 307.161 295.751C310.857 300.223 320.377 306.987 326.3 309.709C325.632 308.654 324.67 307.528 323.752 306.452C323.457 306.107 323.167 305.767 322.893 305.436C315.969 297.087 312.942 294.172 306.203 287.685C305.378 286.891 304.498 286.044 303.548 285.126L295.416 277.324ZM186.855 266.617C183.387 268.243 182.498 268.66 180.689 272.364C180.835 272.358 180.999 272.351 181.179 272.343C184.039 272.223 190.78 271.939 192.271 271.217C192.816 270.954 193.524 270.514 194.116 270.146C194.322 270.018 194.514 269.899 194.68 269.799C195.299 269.423 196.54 269.225 197.995 268.993C199.448 268.761 201.115 268.495 202.591 267.984C203.707 267.597 204.768 267.092 205.841 266.581C207.924 265.588 210.053 264.575 212.721 264.362C216.176 264.087 220.809 265.278 224.624 266.258C225.045 266.367 225.456 266.472 225.854 266.573C225.186 264.057 218.694 261.013 214.066 261.005C208.514 260.996 194.366 262.894 189.986 265.105C188.746 265.73 187.72 266.211 186.855 266.617ZM263.472 312.605C262.977 311.937 258.745 307.647 258.044 307.127C256.66 309.838 256.885 310.016 257.643 310.614C257.978 310.879 258.418 311.226 258.869 311.912C259.182 312.391 259.925 316.194 259.809 316.92L257.541 315.872C256.922 319.532 256.968 321.084 257.014 322.604C257.053 323.9 257.092 325.173 256.716 327.71C256.585 328.574 256.539 329.175 256.503 329.656C256.411 330.851 256.377 331.304 255.247 333.204C255.137 333.389 255.03 333.557 254.93 333.712C254.218 334.824 253.888 335.339 255.495 337.568L256.394 334.433L259.059 336.405C259.011 335.611 258.813 334.774 258.617 333.941C258.475 333.337 258.333 332.736 258.25 332.156C258.085 331.001 258.498 328.568 258.712 327.429C259.858 328.333 260.833 330.174 261.633 331.683C262.111 332.586 262.526 333.37 262.878 333.765C262.831 330.391 261.798 328.898 260.862 327.545C260.166 326.54 259.524 325.612 259.38 324.047C259.354 323.758 259.321 323.454 259.288 323.141C259.186 322.186 259.077 321.158 259.108 320.294C260.56 321.82 262.177 323.783 263.546 325.491C265.043 327.358 265.472 328.668 265.786 329.626C266.032 330.374 266.207 330.907 266.763 331.323C267.77 329.932 266.064 326.237 265.486 324.984C265.443 324.891 265.406 324.812 265.378 324.748C264.858 323.589 263.947 322.488 263.011 321.355C262.462 320.691 261.904 320.016 261.41 319.312C261.589 318.77 261.867 318.392 262.133 318.031C262.345 317.743 262.549 317.466 262.688 317.126C262.847 316.73 262.89 316.279 262.934 315.812C262.974 315.383 263.016 314.942 263.15 314.519L264.396 317.241C264.593 317.714 264.817 318.167 265.03 318.597C265.244 319.029 265.447 319.439 265.6 319.823C265.592 318.182 264.28 313.702 263.472 312.605ZM179.152 288.327C178.505 287.911 177.912 287.53 177.422 287.263L177.727 291.371C178.145 291.496 178.622 291.628 179.124 291.767C180.443 292.133 181.928 292.545 182.932 292.988C183.554 293.262 184.131 293.522 184.667 293.764C190.309 296.307 191.385 296.793 192.139 289.779C191.055 289.74 189.671 290.038 188.288 290.336C187.05 290.603 185.814 290.869 184.797 290.892C183.198 290.929 180.964 289.492 179.152 288.327ZM139.328 280.806C139.152 279.795 138.952 278.642 138.55 278.032L138.559 278.023C137.461 278.708 135.267 280.407 134.5 281.34C135.498 282.404 136.447 283.468 137.313 284.623L131.728 283.889L132.413 284.771C132.804 285.158 133.246 285.505 133.696 285.859C134.955 286.847 136.287 287.892 136.81 290.043C136.634 290.041 136.461 290.041 136.29 290.042C135.166 290.048 134.15 290.053 133.097 289.193C132.917 289.046 132.759 288.907 132.614 288.779C131.846 288.105 131.429 287.738 129.979 288.071C129.817 290.756 133.564 291.989 135.26 292.546C135.543 292.64 135.77 292.714 135.911 292.773C134.875 293.241 133.312 293.405 131.687 293.575C129.701 293.783 127.624 294 126.308 294.794C126.057 295.596 125.87 296.561 125.684 297.516C125.466 298.635 125.25 299.742 124.939 300.561C124.645 301.331 124.078 301.826 123.52 302.314C122.996 302.772 122.48 303.222 122.208 303.885L127.001 304.405L126.407 306.764C127.353 306.506 128.643 305.431 129.701 304.548C130.332 304.023 130.88 303.566 131.225 303.39C130.243 305.478 128.156 308.365 125.788 309.099C125.019 309.334 124.2 309.033 123.379 308.731C122.616 308.45 121.85 308.168 121.119 308.315C120.769 308.385 120.294 308.712 119.915 308.973C119.759 309.08 119.619 309.177 119.511 309.239C118.95 309.553 118.397 309.817 117.918 309.957L117.415 312.729C118.182 313.026 122.604 313.348 123.668 312.63C124.425 312.118 124.889 311.702 125.235 311.392C126.205 310.522 126.242 310.489 129.179 311.541C128.664 312.265 128.021 312.711 127.388 313.151C126.774 313.577 126.169 313.997 125.698 314.659C125.91 314.697 126.23 314.769 126.611 314.855C128.04 315.175 130.317 315.686 130.903 315.327C131.596 314.832 132.248 313.009 132.437 311.97C131.786 311.145 131.307 310.353 130.944 309.314C131.793 307.857 132.611 307.28 133.486 306.663C133.904 306.368 134.335 306.064 134.789 305.651C134.954 304.801 135.333 301.402 135.119 300.784C134.761 299.748 133.689 299.317 132.545 298.856C132.213 298.723 131.875 298.587 131.547 298.432C132.519 298.053 133.495 297.833 134.482 297.611C135.789 297.317 137.117 297.019 138.484 296.337C138.575 295.733 138.541 295.247 138.501 294.652C138.411 293.346 138.285 291.512 139.351 286.735C139.711 285.134 139.917 284.614 139.938 284.087C139.957 283.624 139.834 283.156 139.549 281.95C139.471 281.627 139.401 281.228 139.328 280.806ZM209.05 337.947C206.335 337.865 194.792 337.422 192.954 336.74L197.724 334.714C199.009 334.277 201.12 334.158 203.312 334.035C208.2 333.759 213.496 333.461 210.956 329.566C210.078 329.653 209.056 329.998 208.006 330.352C206.966 330.703 205.899 331.064 204.917 331.191C201.022 331.696 199.056 331.344 197.702 331.101C195.849 330.768 195.14 330.641 192.205 333.196C192.054 333.326 191.91 333.446 191.771 333.562C191.115 334.107 190.575 334.557 190.085 335.489C189.782 336.064 189.655 336.638 189.538 337.164C189.369 337.928 189.222 338.591 188.592 339.012C187.424 339.42 183.518 337.854 180.541 336.661C179.311 336.168 178.24 335.739 177.587 335.539C177.997 336.298 178.727 336.961 179.455 337.621C180.086 338.195 180.716 338.767 181.134 339.399C179.16 340.13 177.73 340.511 176.642 340.801C174.22 341.447 173.494 341.64 172.241 344.242C174.484 344.652 177.241 344.799 179.803 344.935C180.69 344.982 181.553 345.028 182.363 345.083C188.379 345.503 193.583 344.016 199.183 342.415C199.419 342.348 199.656 342.28 199.893 342.212C204.91 340.781 206.724 341.81 209.56 343.419C210.679 344.054 211.957 344.779 213.653 345.479C215.213 346.123 216.846 346.849 218.347 347.575C219.201 347.987 220.308 348.627 221.479 349.304C223.633 350.55 226.002 351.92 227.397 352.219C230 352.776 233.123 351.837 235.382 351.158C235.7 351.062 236.002 350.971 236.282 350.891C239.235 350.049 241.108 348.622 242.51 344.885C239.557 344.778 237.321 345.157 234.731 345.718C234.424 345.785 233.956 345.894 233.405 346.023C231.481 346.474 228.536 347.165 227.818 347.088C228.362 346.75 231.728 343.615 232.347 342.889C232.303 342.845 232.24 342.795 232.198 342.761L232.182 342.749C232.161 342.736 232.131 342.71 232.1 342.684C232.071 342.658 232.041 342.633 232.017 342.617C231.988 342.596 231.957 342.573 231.926 342.55C231.895 342.528 231.864 342.505 231.835 342.485C231.395 342.193 230.222 341.666 229.019 341.124C227.564 340.468 226.062 339.793 225.755 339.49C225.412 339.147 224.895 338.008 224.357 336.824C223.809 335.617 223.239 334.364 222.81 333.856C220.988 334.513 219.89 335.212 218.898 335.844C216.89 337.122 215.317 338.124 209.05 337.947ZM98.2187 367.175L100.388 367.86C101.895 365.988 102.565 363.405 103.213 360.908C103.311 360.533 103.408 360.16 103.507 359.792C104.513 356.033 104.581 354.897 105.176 354.235C105.57 353.795 106.196 353.563 107.483 352.912C108.201 352.549 112.218 349.785 112.787 348.606C113.348 347.459 112.367 346.114 111.525 345.553C110.586 344.925 110.202 344.484 109.793 344.012C109.54 343.721 109.278 343.419 108.869 343.054C107.042 345.86 105.871 346.179 104.046 346.676C103.259 346.89 102.35 347.137 101.213 347.632C101.504 348.249 101.98 348.636 102.536 349.089C102.768 349.277 103.015 349.478 103.267 349.711C102.821 350.465 101.535 351.887 100.432 353.106C99.966 353.622 99.5323 354.102 99.2086 354.479C96.5028 357.639 89.664 367.654 88.4348 370.978C89.473 370.593 90.3507 369.736 91.2626 368.844C92.539 367.597 93.8824 366.284 95.8264 366.111C94.8934 370.819 94.1017 371.309 93.3711 371.762C92.9712 372.009 92.5896 372.246 92.2131 373.156C91.6173 374.597 91.9275 374.927 92.397 375.427C92.9678 376.034 93.774 376.892 93.4753 380.3L94.7292 379.236C96.2233 377.335 96.9628 373.513 97.6275 370.078C97.8252 369.056 98.0163 368.068 98.2187 367.175ZM281.944 310.738C280.635 309.556 278.313 307.458 277.001 307.111H276.985C276.848 307.548 276.821 307.691 276.745 307.799C276.664 307.913 276.529 307.988 276.151 308.332C276.001 309.463 276.02 309.485 276.468 310.017C276.563 310.129 276.676 310.263 276.811 310.435C277.95 311.887 278.799 313.051 279.311 314.841C277.607 314.204 275.447 312.548 273.273 310.881C271.279 309.352 269.274 307.814 267.597 307.045L270.69 310.98C271.73 311.813 274.303 315.468 274.98 316.565C276.336 318.762 275.432 319.587 274.433 320.5C273.736 321.137 272.992 321.816 272.934 323.032C274.427 324.278 277.669 323.768 279.659 323.454C279.791 323.434 279.917 323.414 280.037 323.395L279.996 318.982C280.614 319.353 281.352 320.344 282.126 321.385C282.746 322.218 283.389 323.082 284.013 323.684L283.427 318.231C284.254 318.708 284.938 319.508 285.633 320.32C286.249 321.041 286.873 321.77 287.61 322.29L286.603 315.228C286.998 315.548 287.74 316.686 288.348 317.619C288.618 318.034 288.862 318.408 289.037 318.652C289.303 319.024 289.552 319.397 289.8 319.769C290.344 320.584 290.881 321.39 291.578 322.15C291.926 314.531 291.044 313.504 289.882 312.15C289.226 311.385 288.48 310.517 287.816 308.299L291.19 308.909C288.831 305.148 286.81 300 286.1 295.586L294.647 303.621C294.573 303.42 294.554 303.366 294.53 303.314C294.507 303.263 294.478 303.213 294.383 303.019L293.789 302.038C293.684 301.889 293.6 301.771 293.524 301.665C293.329 301.393 293.192 301.201 292.931 300.792L287.668 293.112C285.938 290.265 284.567 286.549 283.653 284.071C283.19 282.815 282.844 281.876 282.627 281.529C282.543 281.914 282.45 282.325 282.354 282.754C281.83 285.086 281.186 287.952 281.019 289.993C280.891 291.588 281.288 293.048 281.669 294.455C281.857 295.144 282.04 295.821 282.157 296.494C282.644 297.352 283.304 300.041 283.304 301.072C283.185 301.032 283.062 300.99 282.937 300.948C281.991 300.628 280.879 300.253 280.326 299.736C279.635 299.532 279.25 299.267 278.88 299.013C278.429 298.703 278.001 298.409 277.067 298.259C276.512 299.225 276.434 299.777 276.289 300.794C276.277 300.881 276.264 300.97 276.25 301.064L278.032 303.473C279.121 304.43 280.887 306.41 281.299 307.383C281.819 308.604 283.064 310.749 283.931 311.541C283.631 311.673 283.564 311.76 283.483 311.775C283.397 311.79 283.296 311.724 282.883 311.541C282.786 311.498 282.437 311.183 281.944 310.738ZM172.234 359.848C172.234 359.848 172.233 359.849 172.233 359.85L172.241 359.833C172.239 359.838 172.237 359.843 172.234 359.848ZM178.354 352.565C176.267 354.635 174.197 357.241 172.234 359.848C171.629 361.163 171.477 362.732 171.332 364.228C171.3 364.549 171.27 364.867 171.235 365.179C171.14 365.872 171.081 366.592 171.02 367.316C170.818 369.757 170.611 372.243 169.065 373.866C167.39 375.623 165.039 377.273 163.216 378.18L166.31 371.943L159.809 372.752C160.199 371.941 161.598 370.214 162.882 368.629C163.661 367.666 164.399 366.756 164.841 366.136C167.753 362.062 167.906 360.918 168.044 359.882C168.114 359.36 168.18 358.865 168.595 358.035C169.766 355.997 175.087 350.61 176.473 350.165C176.368 349.864 176.587 349.787 176.581 349.761C176.577 349.742 176.454 349.751 176.003 349.719C173.132 349.365 170.303 349.488 167.646 349.917C167.217 349.986 166.644 350.089 166 350.204C163.934 350.575 161.13 351.077 159.941 351.015C161.413 348.537 162.274 348.377 163.566 348.137C164.149 348.028 164.82 347.903 165.675 347.542C166.689 345.355 165.411 342.897 164.61 341.66C157.582 342.93 154.497 343.31 150.652 337.089C149.974 335.99 149.427 334.623 148.867 333.225C148.473 332.241 148.073 331.242 147.617 330.308C145.538 326.076 139.425 322.372 135.028 320.541C134.703 320.405 134.404 320.28 134.127 320.164C130.743 318.743 130.611 318.688 126.448 318.421C119.918 318.007 117.549 317.287 113.646 316.101C112.032 315.61 110.156 315.04 107.615 314.379C105.998 316.012 101.774 317.868 99.0602 318.429C94.2059 319.434 92.4527 317.387 90.328 314.907C90.167 314.719 90.004 314.529 89.8372 314.337C90.0022 316.194 93.4505 322.504 94.424 323.478C94.7419 323.796 95.4483 324.246 96.3059 324.793C98.6299 326.275 102.064 328.465 101.89 330.647C101.335 330.782 100.294 330.857 99.0436 330.946C96.7981 331.107 93.8747 331.317 91.8666 332.016C92.321 332.384 93.927 333.096 95.6526 333.861C97.4047 334.637 99.2801 335.468 100.199 336.05C100.812 336.749 101.321 337.137 101.697 337.423C102.66 338.155 102.747 338.222 101.477 341.165C101.3 341.898 101.054 342.224 100.814 342.542C100.62 342.801 100.429 343.054 100.281 343.516C100.571 343.322 101.85 342.909 102.937 342.558C103.427 342.4 103.878 342.254 104.183 342.146C105.048 341.845 105.818 341.546 106.603 341.242C107.129 341.038 107.661 340.832 108.234 340.62L108.322 340.587C109.969 339.964 114.925 338.091 116.755 338.731C116.637 340.088 114.853 341.472 113.376 342.618C112.68 343.158 112.052 343.645 111.698 344.052L116.401 344.39L117.803 350.949L117.267 351.27C114.961 352.476 112.282 353.517 109.742 354.505C108.91 354.828 108.093 355.146 107.31 355.461C107.116 356.204 106.911 357.07 106.692 357.999C105.856 361.538 104.803 365.993 103.3 368.058C102.958 368.529 102.603 368.995 102.246 369.463C100.426 371.851 98.557 374.303 98.095 377.792C97.497 382.309 99.2498 383.66 102.307 386.016L102.5 386.165C104.018 387.337 109.702 391.396 111.311 391.99C111.903 391.59 112.237 391.201 112.519 390.873C113.045 390.261 113.385 389.865 114.874 390.026C115.341 390.077 115.837 390.123 116.344 390.171C117.582 390.288 118.881 390.41 119.964 390.604L119.387 386.99L127.546 389.342L130.738 385.167C131.67 385.646 136.958 390.331 137.371 391.008L130.944 389.861L132.866 393.722L123.891 390.678C124.295 391.8 125.764 392.815 126.77 393.474C125.714 394.033 124.282 394.054 122.901 394.074C122.038 394.087 121.195 394.099 120.476 394.242L145.117 407.507C145.182 406.739 144.241 403.826 143.544 401.666C143.267 400.807 143.028 400.067 142.906 399.629C142.584 398.482 142.609 392.179 142.84 390.736C143.376 391.711 144.061 394.377 144.626 396.574C144.888 397.591 145.124 398.508 145.307 399.109C145.727 400.487 145.963 401.51 146.15 402.316C146.637 404.422 146.781 405.041 148.953 406.641C150.48 407.769 151.978 408.872 153.479 409.978C154.403 410.658 155.328 411.339 156.262 412.028C157.598 413.016 159.751 412.728 161.804 412.453C162.972 412.296 164.106 412.144 165.039 412.234C164.921 411.027 164.433 409.717 163.948 408.417C163.449 407.079 162.953 405.75 162.87 404.554C164.676 403.201 167.795 401.13 170.402 400.726C173.413 400.258 174.012 398.601 174.746 396.568C175.061 395.695 175.402 394.752 175.97 393.805C176.294 393.266 176.609 392.733 176.92 392.209C180.065 386.907 182.701 382.462 187.701 381.051C187.208 381.777 186.503 382.65 185.715 383.627C182.963 387.035 179.192 391.706 179.872 395.784C180.035 396.753 180.338 397.276 180.665 397.841C180.9 398.247 181.148 398.675 181.365 399.307L183.782 406.236C185.473 410.757 186.216 411.714 189.689 415.517C190.505 416.425 202.673 424.031 203.432 424.179C206.196 424.724 209.496 425.293 212.325 425.656L209.009 418.693C208.407 417.819 203.457 414.403 202.36 413.76L204.257 408.612C204.752 408.893 210.75 415.806 211.368 416.664C211.818 417.281 212.581 418.642 213.418 420.137C214.731 422.481 216.229 425.154 216.994 425.804C216.912 424.286 215.798 418.528 215.361 417.398C215.109 416.744 214.807 416.101 214.503 415.453C214.239 414.892 213.973 414.325 213.736 413.743C213.625 413.468 213.462 413.115 213.285 412.731C212.857 411.801 212.343 410.687 212.268 410.039C212.362 409.982 212.466 409.919 212.577 409.852C213.188 409.484 214.014 408.987 214.586 408.555C216.945 406.773 219.024 406.344 222.142 406.22C221.655 412.778 220.525 418.058 218.834 424.666C221.614 424.823 223.338 424.088 224.955 422.834C225.658 422.286 226.321 421.851 226.979 421.42C227.904 420.813 228.82 420.213 229.822 419.312C231.319 417.966 231.75 416.858 232.169 415.782C232.484 414.972 232.792 414.179 233.543 413.315C234.747 411.929 236.975 410.823 238.616 410.411C237.989 413.554 236.018 417.505 234.277 420.096C234.01 420.494 233.73 420.831 233.461 421.157C233.088 421.605 232.735 422.031 232.462 422.562C234.125 422.353 238.476 419.924 241.148 418.432C241.843 418.044 242.424 417.719 242.815 417.513L238.319 424.864C239.517 424.515 240.612 423.99 241.736 423.451C242.261 423.199 242.792 422.944 243.343 422.702C243.464 422.65 243.633 422.579 243.858 422.484C244.831 422.075 246.834 421.233 250.314 419.617L251.329 416.87L245.587 416.375C245.807 415.775 247.314 414.349 248.816 412.928C250.079 411.734 251.338 410.543 251.824 409.85C250.891 409.99 249.114 410.594 247.389 411.179C245.466 411.832 243.607 412.464 243.055 412.407C244.457 408.835 253.87 400.841 256.724 399.002L258.704 405.411L259.331 404.578C259.45 404.368 259.554 404.141 259.664 403.902C259.713 403.794 259.764 403.684 259.817 403.572L262.614 397.822C262.666 397.717 262.722 397.604 262.783 397.483C263.742 395.55 265.671 391.662 266.797 390.645L267.63 399.208L270.657 384.136L272.678 388.236C272.757 386.72 272.439 383.91 272.18 381.621C272.087 380.796 272.001 380.039 271.944 379.434C271.243 372.1 269.989 365.443 268.595 358.332C268.498 357.836 268.378 357.35 268.259 356.866C268.033 355.948 267.807 355.033 267.737 354.05C269.552 354.818 271.622 356.649 272.571 357.977C273.586 359.396 273.726 361.285 273.85 363.587C273.951 365.5 273.949 366.72 273.947 367.619C273.943 370.027 273.943 370.135 275.937 375.103C276.308 376.026 276.69 376.896 277.064 377.747C278.161 380.241 279.188 382.578 279.674 385.654C279.975 387.553 280.132 389.581 280.287 391.587L280.293 391.66C280.322 392.071 280.356 392.486 280.39 392.904C280.441 393.535 280.492 394.174 280.532 394.819C280.543 395.026 280.547 395.249 280.552 395.479C280.568 396.275 280.586 397.163 280.887 397.822C281.259 396.789 281.698 395.725 282.146 394.636C282.981 392.612 283.851 390.503 284.393 388.352C284.74 386.971 285.035 385.494 285.332 384.01C285.739 381.974 286.149 379.923 286.702 378.081C287.061 379.208 287.159 380.956 287.258 382.728C287.376 384.832 287.496 386.968 288.055 388.137C288.46 385.761 289.054 379.599 289.021 377.306C288.99 375.468 288.775 373.424 288.563 371.4C288.43 370.136 288.298 368.88 288.212 367.687C288.121 366.442 288.064 365.346 288.011 364.343C287.811 360.535 287.681 358.06 286.042 353.803C285.878 353.373 285.679 352.923 285.477 352.465C285.08 351.568 284.669 350.637 284.467 349.752C287.618 352.004 288.922 354.628 290.266 358.142C290.456 358.636 290.645 359.012 290.82 359.358C291.124 359.962 291.384 360.477 291.52 361.368C292.479 360.529 291.689 355.479 291.416 353.733C291.391 353.572 291.37 353.44 291.355 353.341C290.918 350.421 290.035 348.911 288.138 346.873C284.769 343.264 281.437 342.695 277.629 342.045C275.804 341.733 273.871 341.403 271.771 340.711C272.04 340.295 272.354 339.875 272.673 339.448C273.481 338.37 274.323 337.244 274.559 336.009C274.577 335.926 274.561 335.881 274.544 335.835C274.538 335.817 274.531 335.799 274.526 335.778C273.602 336.644 265.675 340.851 264.091 341.519C262.503 342.192 260.686 342.621 258.862 343.051C256.657 343.571 254.444 344.093 252.616 345.05L262.317 347.814C261.336 348.279 260.187 348.42 259.07 348.558C258.581 348.618 258.099 348.677 257.64 348.762C254.199 349.408 252.794 349.306 251.465 349.209C250.095 349.109 248.805 349.015 245.447 349.752L243.772 350.214C243.475 350.322 243.385 350.363 243.187 350.462C243.037 353.351 244.644 355.017 246.457 356.896C247.553 358.032 248.725 359.246 249.629 360.856L249.819 361.219C249.844 361.188 249.868 361.272 249.889 361.344C249.897 361.369 249.904 361.392 249.91 361.409C247.913 360.534 245.796 359.447 243.763 358.403C243.075 358.049 242.396 357.7 241.735 357.367C240.594 356.791 239.837 356.337 239.262 355.992C237.621 355.008 237.466 354.915 234.112 355.428C227.504 356.434 224.048 356.616 219.123 351.526C218.138 351.81 217.064 352.44 215.946 353.096C215.341 353.451 214.722 353.814 214.099 354.133C209.405 356.534 207.523 358.359 204.647 361.148C203.571 362.192 202.355 363.371 200.801 364.766C199.924 365.556 199.04 366.264 198.156 366.971C197.526 367.476 196.897 367.979 196.272 368.512C196.088 368.669 195.911 368.821 195.739 368.968C192.438 371.799 191.264 372.806 186.81 374.476C186.299 374.668 185.662 374.947 184.994 375.24C183.742 375.788 182.383 376.382 181.555 376.538C182.949 374.699 185.935 372.117 187.503 371.094C188.02 370.754 188.503 370.458 188.978 370.168C189.587 369.797 190.18 369.434 190.811 368.998L193.211 367.579C193.516 367.351 193.591 367.311 193.647 367.254C193.706 367.192 193.744 367.111 194.011 366.763L179.831 368.116C183.842 365.132 187.426 364.509 191.565 363.79C192.908 363.557 194.309 363.314 195.802 362.976C199.167 362.217 200.512 361.046 202.979 358.654C205.794 355.922 206.053 354.838 206.869 351.418C207.014 350.81 207.177 350.127 207.376 349.348C206.434 349.243 205.499 349.21 204.555 349.176C203.268 349.129 201.964 349.082 200.603 348.853C199.78 348.716 199.084 348.565 198.446 348.426C196.889 348.087 195.669 347.821 193.756 348.02C190.964 348.311 188.808 349.944 186.642 351.585C185.857 352.179 185.071 352.775 184.252 353.308C184.134 352.647 184.049 351.838 183.962 351.022C183.886 350.299 183.809 349.571 183.708 348.936L181.868 350.049C180.969 350.883 179.484 352.153 178.354 352.565ZM231.175 227.809C228.387 225.631 225.343 222.9 223.14 220.434L223.157 220.475C220.987 218.05 212.936 203.564 210.981 199.678C209.702 197.814 209.438 195.727 209.413 192.74C209.384 189.675 209.813 188.777 209.531 188.355C209.262 187.954 208.349 187.984 205.783 186.99C204.926 185.332 202.756 176.448 202.673 174.064C202.443 167.287 202.851 166.831 204.416 165.08C205.153 164.257 206.146 163.146 207.45 160.955C206.794 161.082 206.19 161.306 205.586 161.53C204.657 161.874 203.728 162.219 202.607 162.209C203.214 161.297 204.286 160.176 205.45 158.96C207.61 156.703 210.083 154.118 210.469 151.93C209.188 151.483 207.474 151.838 205.869 152.17C204.87 152.377 203.912 152.575 203.127 152.565C204.769 147.459 205.709 142.188 205.61 137.221C205.561 134.816 205.318 133.484 205.117 132.388C204.743 130.342 204.521 129.122 205.998 123.288L202.55 122.521L201.37 117.934C200.562 117.637 199.41 117.405 198.27 117.175C196.944 116.908 195.634 116.644 194.902 116.284C194.329 116 193.735 115.192 193.133 114.374C192.617 113.673 192.096 112.964 191.578 112.572L189.417 113.314L185.803 109.429L183.312 111.92L180.524 110.493L178.742 114.692L173.751 113.331L173.132 116.73L169.296 115.121L168.224 117.942L164.808 116.68C164.996 117.343 165.284 117.891 165.572 118.44C165.88 119.027 166.188 119.615 166.376 120.343L161.509 118.998L162.119 123.09C160.492 124.224 158.286 123.88 156.056 123.533C154.635 123.312 153.204 123.089 151.906 123.247C152.442 124.079 153.482 124.773 154.527 125.47C155.638 126.212 156.754 126.957 157.277 127.875L154.992 130.581C155.284 131.096 155.837 131.529 156.397 131.969C156.815 132.297 157.236 132.628 157.557 132.998C157.212 133.435 157.056 133.527 156.769 133.697C156.671 133.755 156.559 133.821 156.419 133.913L153.012 136.561L160.18 144.431L153.647 143.211C153.826 143.526 153.832 143.579 153.86 143.615C153.889 143.654 153.942 143.675 154.257 143.978C154.381 144.093 154.81 144.39 154.942 144.481C161.665 149.142 166.005 153.803 170.509 160.823C171.366 162.153 172.358 164.772 173.427 167.596C174.335 169.993 175.299 172.537 176.283 174.567C176.597 175.21 177.166 176.505 177.381 177.215C177.904 178.923 177.41 181.304 176.973 183.407C176.886 183.823 176.802 184.228 176.729 184.615C173.66 183.022 173.061 180.958 172.339 178.471C172.145 177.802 171.942 177.102 171.68 176.373C168.595 167.802 154.596 167.72 154.142 176.753C154.126 177.04 154.109 177.315 154.092 177.587C154.057 178.15 154.024 178.695 154.002 179.285C153.954 180.489 154.555 181.584 155.095 182.568C155.499 183.305 155.868 183.979 155.907 184.59L150.71 183.773C151.189 185.638 152.903 188.163 154.027 189.817C154.221 190.102 154.397 190.362 154.546 190.587C155.95 192.718 156.549 193.019 157.966 193.728C158.381 193.936 158.867 194.179 159.463 194.514C161.625 195.732 161.801 195.077 162.202 193.591C162.463 192.621 162.82 191.298 163.884 189.911C164.375 190.656 164.895 192.178 165.376 193.585C165.689 194.498 165.984 195.362 166.244 195.933L170.632 196.238C170.616 195.324 169.942 193.203 169.22 190.932C168.509 188.696 167.752 186.315 167.531 184.796L168.182 185.671C168.374 185.983 168.634 186.437 168.926 186.946C169.689 188.278 170.666 189.983 171.185 190.497L171.82 187.023C172.553 187.696 173.356 188.768 174.083 189.736C174.354 190.098 174.614 190.445 174.856 190.752C175.183 191.166 175.442 191.465 175.656 191.71C176.371 192.532 176.572 192.763 177.042 194.745C177.097 194.974 177.158 195.216 177.221 195.466C177.548 196.768 177.939 198.323 177.884 199.769C177.806 201.887 176.564 202.439 175.356 202.975C175.148 203.067 174.941 203.159 174.741 203.258C174.806 204.298 174.962 204.938 175.141 205.675C175.442 206.908 175.81 208.415 175.929 212.531C176.069 217.34 175.689 217.456 172.101 218.462L171.152 218.875L175.227 221.325C174.653 221.619 173.789 221.691 172.86 221.769C172.148 221.828 171.397 221.891 170.707 222.059L172.967 229.145L159.619 240.983L162.078 242.823C161.426 244.184 159.182 246.288 158.11 247.203C156.446 248.619 156.039 249.623 155.499 250.953C154.907 252.411 154.156 254.263 151.411 257.482C150.253 258.843 150.53 260.236 150.836 261.774C151.241 263.805 151.695 266.089 148.953 268.883C145.813 272.077 145.271 273.176 144.048 275.653C143.598 276.566 143.054 277.667 142.254 279.129C140.634 282.098 141.955 282.922 143.155 283.671C143.416 283.834 143.67 283.993 143.888 284.169C142.784 285.862 141.958 286.475 141.415 286.878C140.65 287.445 140.444 287.597 140.811 289.762C140.871 290.117 140.949 290.501 141.03 290.905C141.425 292.866 141.912 295.283 141.009 297.014C140.445 298.099 139.873 298.75 139.353 299.343C138.451 300.37 137.706 301.22 137.428 303.852C136.777 310.006 137.098 312.341 139.4 317.819C141.058 321.762 150.586 329.12 154.142 331.802C157.722 334.499 164.206 337.254 168.834 336.256C170.682 335.852 173.272 334.293 174.642 333.295C175.092 332.967 175.699 332.513 176.399 331.991C179.254 329.859 183.654 326.574 185.251 325.911C185.942 325.623 187.134 325.22 188.575 324.733C194.463 322.745 204.492 319.358 201.337 316.647C200.982 316.334 200.636 316.185 200.207 316.07C199.02 315.76 197.591 316.26 196.142 316.768C195.354 317.043 194.561 317.321 193.797 317.472C192.436 317.744 191.256 318.131 190.217 318.472C188.101 319.167 186.567 319.67 185.267 318.619C183.997 317.588 181.464 313.273 181.926 310.452C182.482 307.048 185.052 306.168 187.311 305.395C187.701 305.261 188.083 305.131 188.443 304.991C188.299 304.858 187.602 304.391 186.671 303.767C184.995 302.643 182.558 301.009 181.217 299.901C178.428 297.599 177.579 296.436 176.432 293.475C174.658 288.888 172.505 282.255 174.675 275.887C178.849 263.653 189.804 259.784 200.966 258.406C207.73 257.565 212.449 257.391 219.841 259.949C223.611 261.252 225.219 262.44 227.306 264.989C228.61 266.573 229.93 269.799 230.499 272.348C231.274 275.804 230.697 278.312 229.814 282.14C229.272 284.483 228.972 286.234 228.734 287.625C227.94 292.266 227.831 292.905 221.68 298.218L221.559 298.323C220.524 299.217 219.757 299.881 218.661 300.858C218.371 301.115 218.048 301.373 217.717 301.638C216.943 302.256 216.124 302.911 215.576 303.679C216.945 304.389 218.9 306.129 220.014 307.259C221.796 309.074 222.117 309.421 222.72 311.821C224.361 318.322 224.196 319.378 221.796 323.296C220.417 322.925 218.758 322.183 217.142 321.46C216.138 321.011 215.15 320.569 214.256 320.228C212.218 319.444 208.588 319.007 206.864 319.568C212.071 323.304 214.353 324.242 217.632 325.589C219.226 326.244 221.055 326.996 223.569 328.213C224.343 328.588 224.968 328.863 225.48 329.088C227.16 329.827 227.619 330.029 228.131 331.496C229.633 335.77 231.068 338.723 235.374 339.515C240.002 340.365 242.452 338.797 244.927 335.671C245.126 335.42 245.322 335.173 245.517 334.929C247.833 332.02 249.83 329.514 251.04 325.251C252.736 319.284 252.193 312.047 251.695 305.419C251.581 303.891 251.468 302.396 251.387 300.957C251.188 297.508 251.137 294.942 251.09 292.576C251.004 288.243 250.932 284.581 249.992 277.388C249.855 276.332 249.728 275.267 249.601 274.2C249.278 271.493 248.955 268.781 248.458 266.218C247.269 260.068 246.254 256.856 245.083 253.152C244.392 250.969 243.648 248.616 242.782 245.388C240.134 235.506 239.763 234.54 231.175 227.809ZM323.545 148.21L322.126 147.649H322.117C320.525 147.038 318.892 146.395 317.357 145.776C316.836 145.562 316.085 145.302 315.311 145.034C314.175 144.64 312.988 144.229 312.4 143.92L311.088 143.97C310.605 143.885 310.219 143.774 309.792 143.651C309.132 143.462 308.375 143.244 307.013 143.054L303.465 142.229C303.31 142.525 303.151 142.746 303.007 142.948C302.776 143.27 302.58 143.543 302.484 143.994C302.412 144.33 302.389 144.374 302.397 144.412C302.404 144.443 302.434 144.47 302.475 144.662L306.724 146.263C307.442 146.461 307.887 146.593 308.572 146.923C308.663 146.964 309.108 147.212 309.149 147.236C309.187 147.261 309.22 147.283 309.251 147.303C309.313 147.353 309.398 147.42 309.512 147.509C309.57 147.558 309.644 147.632 309.685 147.665C309.727 147.698 309.809 147.764 309.859 147.822C311.542 148.102 315.658 151.13 316.838 152.244L318.405 153.432C318.453 153.477 318.489 153.51 318.515 153.533C318.562 153.585 318.624 153.652 318.702 153.737L318.991 154.083C322.563 155.478 327.562 157.787 330.581 159.932C334.085 162.423 334.319 162.394 337.636 161.972C338.318 161.885 339.129 161.782 340.126 161.681L341.718 161.368L334.69 159.305L339.524 155.956C338.236 155.774 336.686 155.877 335.073 155.984C333.389 156.096 331.638 156.212 330.045 156.014C328.073 155.774 321.565 152.64 320.633 151.65L333.196 153.126L325.59 149.53C325.409 149.42 325.199 149.31 324.982 149.196C324.428 148.904 323.829 148.589 323.545 148.21ZM29.0552 166.276C26.4731 176.58 24.5345 187.221 23.2806 198.135L23.2888 198.144C27.7435 197.146 33.3119 195.809 35.1186 195.042L46.8988 189.804C47.6 189.515 50.1656 188.319 50.4543 188.137L29.5089 189.573C30.187 189.389 31.7293 189.025 33.5892 188.585C37.9975 187.543 44.1897 186.08 44.8859 185.605C41.9928 184.782 38.6073 184.172 35.5932 183.629L35.2011 183.559L26.3025 182.421C26.8085 182.477 42.0675 180.011 43.6568 179.648C42.6426 178.32 40.5215 176.698 38.1604 174.892C34.7599 172.291 30.8616 169.309 29.0552 166.276ZM22.7235 203.478C22.6978 203.762 22.672 204.046 22.6454 204.331L26.5061 203.366L22.8929 201.691C22.8314 202.289 22.7775 202.883 22.7235 203.478ZM22.3649 207.746C22.2824 208.769 22.2082 209.792 22.1422 210.815L27.8838 209.388L22.3649 207.746ZM21.6142 227.248C21.6142 282.057 38.9628 331.892 67.2997 369.007C68.3436 360.702 72.3957 347.438 75.936 335.849C78.691 326.831 81.136 318.827 81.6125 314.964C75.5739 311.912 73.1403 309.85 71.5894 304.578C70.8421 302.027 70.4707 297.251 70.1588 293.241C70.0472 291.806 69.9432 290.469 69.8323 289.366C69.3155 284.208 69.6429 282.807 69.2491 281.651C68.9892 280.888 68.4152 280.233 67.077 278.675L55.404 265.534C53.9885 263.928 52.5856 262.368 51.2069 260.835C41.0721 249.565 32.2466 239.751 29.3274 224.146C29.1418 223.164 29.0643 222.041 28.986 220.905C28.8833 219.417 28.7793 217.908 28.4282 216.672L21.9772 213.809C21.7462 218.248 21.6142 222.727 21.6142 227.248ZM361.071 227.256C361.071 209.074 359.157 191.445 355.569 174.641L355.552 174.633C354.29 175.036 351.877 175.556 350.481 175.857C350.134 175.931 349.851 175.993 349.662 176.035L343.813 177.347C343.773 177.358 343.725 177.374 343.68 177.388C343.66 177.394 343.641 177.4 343.624 177.405L342.857 177.693C343.266 178.355 344.462 179.573 345.928 181.065C347.916 183.089 350.401 185.62 352.096 187.956C352.447 188.442 352.681 188.873 352.917 189.308C353.158 189.752 353.4 190.199 353.771 190.711L355.618 193.582C356.279 194.804 355.779 198.277 355.442 200.61C355.384 201.016 355.33 201.388 355.288 201.708C353.637 214.452 349.967 219.396 344.28 227.059C343.462 228.161 342.603 229.319 341.702 230.564C340.95 231.604 340.072 232.736 339.154 233.921C337.021 236.674 334.671 239.707 333.188 242.493C329.987 248.515 328.923 261.904 334.079 268.792C337.362 273.181 341 278.04 345.265 281.752L337.057 280.424C337.338 281.315 342.436 289.218 343.5 290.109L335.284 286.388C335.604 287.349 336.911 289.646 338.214 291.935C339.562 294.304 340.906 296.665 341.149 297.533L327.81 289.218L337.536 304.24C337.577 304.199 337.602 304.389 337.602 304.504L329.253 300.718C329.369 301.476 330.663 304.508 331.954 307.531C333.064 310.128 334.17 312.719 334.525 313.859C334.041 314.764 331.426 316.696 330.238 317.573C330.149 317.639 330.067 317.699 329.996 317.753C328.584 318.795 328.357 319.995 327.921 322.295C327.802 322.925 327.667 323.637 327.488 324.451C326.929 327.007 329.222 330.331 331.496 333.626C332.678 335.34 333.856 337.046 334.624 338.632C351.37 306.443 361.071 268.239 361.071 227.256ZM355.008 172.092C354.538 170.005 354.051 167.926 353.531 165.864L344.68 165.946C345.109 166.667 345.335 167.284 345.56 167.896C345.874 168.754 346.185 169.602 347.047 170.714C347.873 171.789 350.953 171.918 353.722 172.034C354.162 172.052 354.594 172.07 355.008 172.092ZM351.635 158.823C351.549 158.525 351.463 158.226 351.378 157.928L340.901 159.396C342.472 159.807 344.476 160.094 346.689 160.411C348.473 160.667 350.394 160.942 352.335 161.318C352.111 160.481 351.873 159.652 351.635 158.823ZM350.009 153.357C325.665 75.1277 263.818 19.5428 191.347 19.5428L191.363 19.5346C115.592 19.5346 51.4195 80.3084 29.6079 164.189C35.4403 169.914 45.5954 174.996 52.8879 173.239L47.204 167.794L62.5975 167.992C61.4056 167.133 59.2246 165.964 56.7177 164.621C51.7635 161.967 45.5363 158.631 43.1535 155.651C42.2461 154.521 39.8455 151.081 39.8703 149.835L59.3885 160.081L62.5398 160.386L63.7772 160.6L65.6911 160.493C65.9793 160.493 66.2345 160.476 66.4972 160.458C66.7759 160.439 67.063 160.419 67.407 160.419C68.0788 160.411 68.629 160.452 69.1743 160.492C69.774 160.537 70.3678 160.581 71.111 160.559L71.9029 160.477L68.8341 157.482L66.7635 155.519L64.9816 153.72L67.1182 152.813L67.9762 152.244C68.1519 152.149 68.3031 152.082 68.4538 152.014C68.579 151.958 68.7039 151.902 68.8424 151.831L68.1824 151.328C67.907 151.156 67.8935 151.153 67.8607 151.144C67.8335 151.137 67.7931 151.127 67.5802 151.015C67.3287 150.88 67.1562 150.806 67.0257 150.749C66.7322 150.623 66.6505 150.587 66.3593 150.165C64.8749 149.883 60.8273 147.649 57.8757 146.019C56.8576 145.457 55.9699 144.967 55.3627 144.654L80.3834 151.708C80.2122 151.375 78.2676 148.907 76.7595 146.993C75.7969 145.771 75.0121 144.774 74.98 144.704L86.5045 148.754C85.7703 147.707 74.782 136.116 74.386 135.794L92.1306 145.595C91.2363 143.775 90.0193 141.801 88.9291 140.033C88.8628 139.925 88.797 139.819 88.7318 139.713C87.9825 138.497 86.8393 136.486 85.5681 134.25C83.0604 129.84 80.0549 124.553 78.5932 122.768C79.786 123.255 83.4877 126.014 87.132 128.73C90.7718 131.442 94.3544 134.112 95.3232 134.433L97.2783 127.141C99.1319 127.793 100.988 128.43 102.84 129.067C104.408 129.605 105.974 130.143 107.532 130.688C109.268 131.293 110.009 131.604 110.745 131.594C111.725 131.581 112.697 131.002 115.988 129.797C122.349 127.466 124.431 126.426 129.857 123.716L130.35 123.47C130.994 123.148 131.576 122.796 132.165 122.44C132.724 122.102 133.288 121.762 133.914 121.44C134.105 121.342 134.345 121.22 134.622 121.078C136.811 119.962 141.326 117.66 142.527 116.606C144.515 114.857 148.326 112.217 150.628 111.252C152.022 110.666 156.955 109.602 158.663 109.668C160.956 108.951 167.745 107.961 170.319 107.903L177.793 106.591C180.774 106.092 182.924 105.637 184.791 105.242C189.181 104.313 192.005 103.716 200.38 103.646C207.73 103.588 216.293 102.879 223.594 101.872C224.228 101.786 224.782 101.695 225.288 101.612C227.432 101.262 228.717 101.052 231.547 101.872C241.355 104.727 255.156 106.385 264.775 103.415C266.227 102.961 266.689 102.755 268.067 102.079C268.849 101.692 270.178 101.053 271.808 100.268C278.082 97.2503 288.834 92.078 290.214 90.8105C289.755 91.6147 288.276 92.9497 287.239 93.8854C287.001 94.1005 286.786 94.2946 286.612 94.4562L275.293 105.321C276.757 105.066 278.777 104.382 280.632 103.754C281.475 103.468 282.284 103.195 282.99 102.978C283.529 102.814 284.242 102.574 285.025 102.311C287 101.648 289.427 100.832 290.679 100.685L282.602 109.074L303.135 105.75C302.567 106.412 301.532 107.139 300.73 107.703C300.542 107.835 300.368 107.957 300.215 108.068L291.116 114.775L305.676 116.746L296.891 122.958C296.496 123.241 296.149 123.471 295.821 123.688C295.175 124.116 294.605 124.493 293.904 125.128C296.14 124.806 298.804 124.435 301.164 124.163C301.998 124.066 302.874 123.936 303.758 123.804C305.373 123.564 307.015 123.32 308.481 123.272L297.847 130.143C297.694 130.242 297.575 130.309 297.46 130.374C297.334 130.445 297.211 130.514 297.047 130.622L312.292 128.378C312.053 128.693 312.049 128.734 312.026 128.76C312.004 128.785 311.966 128.794 311.682 129.021C311.57 129.114 311.461 129.192 311.342 129.278C311.258 129.337 311.17 129.401 311.071 129.475C310.93 129.585 310.811 129.678 310.705 129.762C310.376 130.021 310.158 130.193 309.71 130.473L301.609 136.091C302.349 137.123 306.217 138.522 308.368 139.3C308.712 139.425 309.012 139.533 309.248 139.622L312.193 140.76L313.348 141.115C315.534 141.66 320.831 143.384 322.076 144.794L323.866 145.718C323.973 145.773 324.079 145.826 324.184 145.878C324.526 146.05 324.862 146.218 325.203 146.42C325.208 146.423 325.229 146.436 325.261 146.456C325.386 146.533 325.667 146.707 325.739 146.766C325.958 146.948 326.017 146.982 326.028 146.986C326.019 146.986 325.996 147 326.135 147.22C327.234 147.493 328.144 148.176 329.06 148.862C329.856 149.459 330.656 150.058 331.588 150.396L345.793 153.077C347.168 153.325 348.463 153.34 349.766 153.355L350.009 153.357ZM11.1786 227.248C11.1786 339.573 81.7033 432 172.208 443.54V440.15C83.8894 428.559 15.1219 337.667 15.1219 227.256C15.1219 116.845 83.8811 25.9527 172.208 14.3622V10.9634C81.7033 22.5044 11.1786 114.923 11.1786 227.248ZM371.532 227.256C371.532 114.931 301.007 22.5044 210.502 10.9634L210.486 10.9551V14.3539C298.813 25.9527 367.588 116.845 367.588 227.256C367.588 337.667 298.829 428.551 210.502 440.15V443.549C301.007 432.008 371.532 339.581 371.532 227.256Z" fill="black"/>
<path d="M1492.52 164.432H1500V275.796H1485.05V223.773H1470.25V275.796H1455.45V208.977C1455.45 201.818 1457.05 191.159 1462.3 181.932C1467.86 172.546 1477.41 164.432 1492.52 164.432ZM1485.05 208.977V180.5C1480.59 182.091 1477.41 185.432 1475.18 189.409C1471.52 195.773 1470.25 203.568 1470.25 208.977H1485.05Z" fill="black"/>
<path d="M1365.19 275.318V163.955H1439.33V275.318H1424.53V178.909H1409.73V260.523H1394.78V178.909H1379.98V275.318H1365.19Z" fill="black"/>
<path d="M1327.03 178.909C1323.37 178.909 1321.93 180.182 1321.14 181.296C1320.03 182.886 1319.55 184.955 1319.55 186.227V253.046C1319.55 254.318 1320.03 256.546 1321.14 257.977C1321.93 259.25 1323.37 260.523 1327.03 260.523C1330.53 260.523 1331.96 259.25 1332.75 257.977C1333.87 256.546 1334.34 254.477 1334.34 253.046V230.773H1349.3V253.046C1349.3 256.705 1348.19 262.114 1344.84 266.727C1341.19 271.659 1335.3 275.318 1327.03 275.318C1318.59 275.318 1312.71 271.659 1309.05 266.727C1305.71 262.114 1304.75 256.705 1304.75 253.046V186.227C1304.75 182.568 1305.71 177.318 1309.05 172.705C1312.71 167.614 1318.59 163.955 1327.03 163.955C1335.3 163.955 1341.19 167.614 1344.84 172.705C1348.19 177.318 1349.3 182.568 1349.3 186.227V193.705H1334.34V186.227C1334.34 184.955 1333.87 182.886 1332.75 181.296C1331.96 180.182 1330.53 178.909 1327.03 178.909Z" fill="black"/>
<path d="M1248.77 181.455C1251.16 176.523 1254.98 172.068 1260.54 169.046C1266.11 165.864 1272.95 164.432 1281.39 164.432H1288.86V194.023H1273.91V179.864C1271.36 180.341 1269.29 181.136 1267.86 181.932C1265 183.523 1263.25 185.591 1261.98 188.136C1260.07 191.796 1259.43 196.409 1259.27 201.5H1273.91V216.296H1259.11V260.841H1273.91V238.568H1288.86V275.796H1244.32C1244.32 275.477 1244.32 208.5 1244.32 208.341C1244.16 201.182 1244.16 190.523 1248.77 181.455Z" fill="black"/>
<path d="M1228.43 268.318V275.796H1183.88V164.432H1228.43V171.75C1228.43 183.841 1225.72 196.409 1219.84 206.273C1217.45 210.409 1214.27 214.068 1210.61 217.091C1214.59 220.909 1217.77 225.841 1220.15 230.773C1225.72 242.068 1228.43 256.227 1228.43 268.318ZM1198.68 207.227C1201.86 205.477 1204.72 202.614 1207.11 198.636C1210.13 193.386 1212.2 186.546 1213.15 179.227H1198.68V207.227ZM1206.79 237.136C1204.4 232.046 1201.54 228.546 1198.68 226.318V260.841H1213.15C1212.36 252.727 1210.13 244.136 1206.79 237.136Z" fill="black"/>
<path d="M1092.37 275.796V164.432H1107.17V205.796L1121.96 191V164.432H1136.92V275.796H1121.96V212L1107.17 226.796V275.796H1092.37Z" fill="black"/>
<path d="M1031.94 275.796V164.432H1076.48V201.5H1061.53V179.227H1046.73V275.796H1031.94Z" fill="black"/>
<path d="M971.501 163.955H1016.05V275.318H1001.09V224.727C996.956 226.318 993.933 229.182 991.706 232.841C987.888 238.886 986.297 246.682 986.297 253.046V275.318H971.501V253.046C971.501 244.614 973.569 233.955 978.979 225.046C981.206 221.546 983.91 218.523 987.092 215.818C983.751 213.114 981.047 209.614 978.819 205.636C973.41 195.773 971.501 183.205 971.501 171.432V163.955ZM1001.09 207.227V178.909H986.615C987.251 186.386 989.001 193.227 991.865 198.477C994.092 202.614 997.115 205.636 1001.09 207.227Z" fill="black"/>
<path d="M911.065 275.318V163.955H925.861V201.182H940.656V163.955H955.611V275.318H940.656V215.977H925.861V275.318H911.065Z" fill="black"/>
<path d="M850.629 275.318V163.955H895.175V171.432C895.175 183.205 893.107 195.773 887.698 205.636C882.925 214.068 875.607 220.591 865.425 222.659V275.318H850.629ZM865.425 178.909V207.227C869.402 205.636 872.425 202.614 874.652 198.477C877.516 193.227 879.266 186.386 879.902 178.909H865.425Z" fill="black"/>
<path d="M812.307 178.909C808.807 178.909 807.375 180.182 806.58 181.296C805.466 182.886 804.989 184.955 804.989 186.227V253.046C804.989 254.318 805.466 256.546 806.58 257.977C807.375 259.25 808.807 260.523 812.307 260.523C815.966 260.523 817.398 259.25 818.194 257.977C819.307 256.546 819.785 254.477 819.785 253.046V186.227C819.785 184.955 819.307 182.886 818.194 181.296C817.398 180.182 815.966 178.909 812.307 178.909ZM790.194 186.227C790.035 182.568 791.148 177.318 794.489 172.705C798.148 167.614 804.035 163.955 812.466 163.955C820.739 163.955 826.625 167.614 830.285 172.705C833.625 177.318 834.739 182.568 834.739 186.227V253.046C834.739 256.705 833.625 262.114 830.285 266.727C826.625 271.659 820.739 275.318 812.466 275.318C804.035 275.318 798.148 271.659 794.489 266.727C791.148 262.114 790.194 256.705 790.194 253.046V186.227Z" fill="black"/>
<path d="M774.303 268.318V275.796H729.758V164.432H774.303V171.75C774.303 183.841 771.598 196.409 765.712 206.273C763.326 210.409 760.144 214.068 756.485 217.091C760.462 220.909 763.644 225.841 766.03 230.773C771.598 242.068 774.303 256.227 774.303 268.318ZM744.553 207.227C747.735 205.477 750.598 202.614 752.985 198.636C756.008 193.386 758.076 186.546 759.03 179.227H744.553V207.227ZM752.667 237.136C750.28 232.046 747.417 228.546 744.553 226.318V260.841H759.03C758.235 252.727 756.008 244.136 752.667 237.136Z" fill="black"/>
<path d="M712.802 260.841H720.279V290.591H705.484V275.796H675.734V290.591H660.938V260.841H668.257V208.977C668.257 208.659 668.257 208.5 668.257 208.341C668.257 201.182 668.257 190.523 672.711 181.455C675.257 176.523 679.075 172.068 684.643 169.046C690.211 165.864 697.052 164.432 705.484 164.432H712.802V260.841ZM698.007 260.841V179.864C695.461 180.341 693.393 181.136 691.802 181.932C689.098 183.523 687.348 185.591 686.075 188.136C683.211 193.705 683.211 201.023 683.211 208.977V260.841H698.007Z" fill="black"/>
<path d="M545.964 275.318V163.955H553.282C559.487 163.955 568.555 165.864 576.191 171.432C578.578 173.023 580.805 175.091 582.714 177.477C584.464 175.091 586.532 173.182 588.76 171.432C596.396 165.705 605.464 163.955 612.782 163.955H620.1V275.318H605.305V179.705C602.6 180.5 599.896 181.614 597.669 183.364C593.85 186.227 590.51 191.318 590.51 201.182V223.455H575.555V201.182C575.555 191.636 571.737 186.546 567.6 183.364C565.373 181.932 562.987 180.818 560.76 180.023V275.318H545.964Z" fill="black"/>
<path d="M507.642 178.909C504.142 178.909 502.71 180.182 501.915 181.296C500.801 182.886 500.324 184.955 500.324 186.227V253.046C500.324 254.318 500.801 256.546 501.915 257.977C502.71 259.25 504.142 260.523 507.642 260.523C511.301 260.523 512.733 259.25 513.528 257.977C514.642 256.546 515.119 254.477 515.119 253.046V186.227C515.119 184.955 514.642 182.886 513.528 181.296C512.733 180.182 511.301 178.909 507.642 178.909ZM485.528 186.227C485.369 182.568 486.483 177.318 489.824 172.705C493.483 167.614 499.369 163.955 507.801 163.955C516.074 163.955 521.96 167.614 525.619 172.705C528.96 177.318 530.074 182.568 530.074 186.227V253.046C530.074 256.705 528.96 262.114 525.619 266.727C521.96 271.659 516.074 275.318 507.801 275.318C499.369 275.318 493.483 271.659 489.824 266.727C486.483 262.114 485.528 256.705 485.528 253.046V186.227Z" fill="black"/>
<path d="M465.385 260.841H472.862V290.591H458.066V275.796H428.316V290.591H413.521V260.841H420.839V208.977C420.839 208.659 420.839 208.5 420.839 208.341C420.839 201.182 420.839 190.523 425.294 181.455C427.839 176.523 431.657 172.068 437.226 169.046C442.794 165.864 449.635 164.432 458.066 164.432H465.385V260.841ZM450.589 260.841V179.864C448.044 180.341 445.976 181.136 444.385 181.932C441.68 183.523 439.93 185.591 438.657 188.136C435.794 193.705 435.794 201.023 435.794 208.977V260.841H450.589Z" fill="black"/>
</svg>
