<svg width="33" height="33" viewBox="0 0 33 33" fill="none" xmlns="http://www.w3.org/2000/svg">
<path d="M15.5531 16.5L20.2731 11.78C20.5214 11.5302 20.6608 11.1923 20.6608 10.84C20.6608 10.4878 20.5214 10.1498 20.2731 9.90001C20.1491 9.77504 20.0017 9.67585 19.8392 9.60816C19.6767 9.54047 19.5024 9.50562 19.3264 9.50562C19.1504 9.50562 18.9761 9.54047 18.8137 9.60816C18.6512 9.67585 18.5037 9.77504 18.3798 9.90001L12.7264 15.5533C12.6015 15.6773 12.5023 15.8248 12.4346 15.9872C12.3669 16.1497 12.332 16.324 12.332 16.5C12.332 16.676 12.3669 16.8503 12.4346 17.0128C12.5023 17.1753 12.6015 17.3227 12.7264 17.4467L18.3798 23.1667C18.5043 23.2903 18.6521 23.388 18.8146 23.4544C18.977 23.5207 19.151 23.5544 19.3264 23.5533C19.5019 23.5544 19.6759 23.5207 19.8383 23.4544C20.0008 23.388 20.1485 23.2903 20.2731 23.1667C20.5214 22.9169 20.6608 22.5789 20.6608 22.2267C20.6608 21.8744 20.5214 21.5365 20.2731 21.2867L15.5531 16.5Z" fill="#556987"/>
</svg>
