<svg width="33" height="33" viewBox="0 0 33 33" fill="none" xmlns="http://www.w3.org/2000/svg">
<path d="M17.4469 16.5L12.7269 21.22C12.4786 21.4698 12.3392 21.8077 12.3392 22.16C12.3392 22.5122 12.4786 22.8502 12.7269 23.1C12.8509 23.225 12.9983 23.3242 13.1608 23.3918C13.3233 23.4595 13.4976 23.4944 13.6736 23.4944C13.8496 23.4944 14.0239 23.4595 14.1863 23.3918C14.3488 23.3242 14.4963 23.225 14.6202 23.1L20.2736 17.4467C20.3985 17.3227 20.4977 17.1752 20.5654 17.0128C20.6331 16.8503 20.668 16.676 20.668 16.5C20.668 16.324 20.6331 16.1497 20.5654 15.9872C20.4977 15.8247 20.3985 15.6773 20.2736 15.5533L14.6202 9.83332C14.4957 9.70975 14.3479 9.61198 14.1854 9.54563C14.023 9.47927 13.849 9.44564 13.6736 9.44665C13.4981 9.44564 13.3241 9.47927 13.1617 9.54563C12.9992 9.61198 12.8515 9.70975 12.7269 9.83332C12.4786 10.0831 12.3392 10.4211 12.3392 10.7733C12.3392 11.1256 12.4786 11.4635 12.7269 11.7133L17.4469 16.5Z" fill="#556987"/>
</svg>
