<svg width="17" height="16" viewBox="0 0 17 16" fill="none" xmlns="http://www.w3.org/2000/svg">
<path d="M8.97345 7.99999L6.61345 10.36C6.48928 10.4849 6.41959 10.6539 6.41959 10.83C6.41959 11.0061 6.48928 11.1751 6.61345 11.3C6.67543 11.3625 6.74916 11.4121 6.8304 11.4459C6.91164 11.4798 6.99878 11.4972 7.08679 11.4972C7.17479 11.4972 7.26193 11.4798 7.34317 11.4459C7.42441 11.4121 7.49814 11.3625 7.56012 11.3L10.3868 8.47333C10.4493 8.41135 10.4989 8.33762 10.5327 8.25638C10.5666 8.17514 10.584 8.088 10.584 7.99999C10.584 7.91199 10.5666 7.82485 10.5327 7.74361C10.4989 7.66237 10.4493 7.58864 10.3868 7.52666L7.56012 4.66666C7.49783 4.60487 7.42395 4.55599 7.34272 4.52281C7.2615 4.48964 7.17452 4.47282 7.08678 4.47333C6.99905 4.47282 6.91207 4.48964 6.83085 4.52281C6.74962 4.55599 6.67574 4.60487 6.61345 4.66666C6.48928 4.79157 6.41959 4.96054 6.41959 5.13666C6.41959 5.31278 6.48928 5.48175 6.61345 5.60666L8.97345 7.99999Z" fill="#556987"/>
</svg>
