<svg width="17" height="16" viewBox="0 0 17 16" fill="none" xmlns="http://www.w3.org/2000/svg">
<path d="M8.02655 8.00001L10.3865 5.64001C10.5107 5.5151 10.5804 5.34613 10.5804 5.17001C10.5804 4.99388 10.5107 4.82491 10.3865 4.70001C10.3246 4.63752 10.2508 4.58792 10.1696 4.55408C10.0884 4.52023 10.0012 4.50281 9.91321 4.50281C9.82521 4.50281 9.73807 4.52023 9.65683 4.55408C9.57559 4.58792 9.50186 4.63752 9.43988 4.70001L6.61321 7.52667C6.55073 7.58865 6.50113 7.66238 6.46729 7.74362C6.43344 7.82486 6.41602 7.912 6.41602 8.00001C6.41602 8.08801 6.43344 8.17515 6.46729 8.25639C6.50113 8.33763 6.55073 8.41136 6.61321 8.47334L9.43988 11.3333C9.50217 11.3951 9.57605 11.444 9.65728 11.4772C9.7385 11.5104 9.82548 11.5272 9.91321 11.5267C10.001 11.5272 10.0879 11.5104 10.1692 11.4772C10.2504 11.444 10.3243 11.3951 10.3865 11.3333C10.5107 11.2084 10.5804 11.0395 10.5804 10.8633C10.5804 10.6872 10.5107 10.5182 10.3865 10.3933L8.02655 8.00001Z" fill="#556987"/>
</svg>
