<svg width="203" height="269" viewBox="0 0 203 269" fill="none" xmlns="http://www.w3.org/2000/svg">
<path fill-rule="evenodd" clip-rule="evenodd" d="M111.683 159.929C112.136 159.29 111.865 159.015 112.647 158.892C114.951 158.535 115.067 158.903 117.227 157.548C116.468 159.321 114.521 160.765 113.166 160.548C112.849 160.498 112.051 160.231 111.679 159.929M127.726 159.805C127.664 159.259 126.982 151.459 126.742 150.936C126.073 154.269 126.305 156.518 126.378 159.565C126.475 163.684 126.893 167.582 126.986 171.57C127.021 173.06 126.789 174.369 126.766 175.832C126.735 177.744 126.735 178.608 125.016 178.956C123.649 179.235 122.085 178.848 120.695 178.286C120.874 178.913 121.373 179.556 121.803 180.067C122.24 180.586 122.952 181.163 123.796 181.105C124.679 181.039 126.475 179.645 127.083 178.732C128.724 176.266 128.264 171.62 128.248 168.976C128.233 166.061 128.035 162.604 127.726 159.805ZM82.4362 174.33C82.5524 174.891 83.0943 175.77 83.4621 176.242C85.0919 178.333 87.3604 178.77 89.8999 178.886C91.8317 178.975 92.7917 178.619 94.0731 177.938C94.8551 177.52 96.6397 176.386 97.2901 175.406C96.783 175.507 96.0668 175.793 95.5829 175.975C91.6575 177.45 89.9851 177.737 86.0829 176.153C84.7164 175.6 83.6286 174.825 82.4324 174.33H82.4362ZM119.542 72.9505C122.341 74.5377 121.985 74.6499 125.151 74.1544C126.568 73.9338 134.709 74.6654 136.951 74.7738C138.894 74.8667 140.392 74.1235 142.13 73.9841C141.403 74.677 140.346 75.3971 139.68 76.1249C140.245 76.3146 141.372 76.6939 141.925 76.7752C142.696 76.8914 145.595 75.7378 146.873 75.6797C143.451 78.6605 142.041 78.4941 141.221 79.0709C145.766 80.7432 147.852 79.338 149.896 79.6322L146.052 81.2117C144.701 81.7769 144.066 80.9949 141.867 81.9356C138.542 83.3602 139.022 82.8531 138.724 79.8838C138.581 78.4554 138.608 78.5715 138.042 77.5069C137.404 76.3068 137.411 76.4578 135.654 75.9816C134.554 75.6836 133.765 75.5403 132.665 75.5016C127.195 75.3042 129.739 74.9325 124.509 75.7029C123.82 75.8036 123.862 75.7184 123.46 76.3378C123.239 76.6785 122.98 77.0424 122.825 77.4333L125.751 78.3044C125.225 78.5328 122.724 78.9238 122.159 78.8618C121.632 78.0837 121.005 77.0075 120.119 76.2526C119.391 75.6332 117.649 74.7467 117.188 74.2706L119.546 72.9505H119.542ZM145.049 117.783L142.057 113.9C136.947 107.404 139.467 110.815 138.263 104.791C137.795 102.445 137.663 101.981 136.327 100.355C133.896 97.3895 132.975 95.57 130.35 92.6163C128.407 90.429 128.651 90.9671 127.923 88.3734C127.652 87.4017 126.638 84.297 126.626 83.6118C127.954 85.2261 133.172 92.8602 135.112 95.6049C136.533 97.614 139.556 101.853 140.489 103.688C140.702 104.11 140.857 104.319 141.112 104.768L142.243 108.225C142.576 109.352 145.076 117.353 145.049 117.783ZM167.1 104.261C167.487 103.75 167.913 103.56 168.281 103.142L172.291 104.509C171.819 105.074 171.285 105.074 170.774 105.577C171.099 106.212 171.412 107.222 171.935 107.846C172.609 108.651 174.935 111.206 175.28 111.864C175.57 112.418 176.046 113.803 176.259 114.074C175.818 113.838 172.535 109.901 171.861 109.123C170.522 107.579 167.409 104.656 167.1 104.261ZM151.352 123.35C151.278 123.214 151.309 123.296 151.216 123.079L151.03 122.459C150.047 118.41 148.615 113.989 147.566 109.549C147.287 108.372 147.101 107.145 146.784 105.987C146.11 103.529 144.205 98.9496 143.087 96.3752C144.14 96.8746 146.784 99.6542 147.384 100.486C149.064 102.809 151.429 103.835 151.867 104.543L147.558 103.1C147.678 104.052 149.327 108.012 149.764 108.67L153.198 113.424L149.784 110.811L151.352 123.358V123.35ZM172.438 113.989C173.185 114.388 175.373 116.045 176.155 116.711C176.898 117.346 176.933 120.241 176.685 121.352C176.402 122.614 175.373 125.595 174.784 126.64C173.991 128.046 172.5 128.793 171.548 129.292L170.642 124.736L172.91 125.847L172.318 123.532C172.717 123.18 173.963 122.967 174.533 122.715L174.691 122.634C174.711 122.622 174.749 122.595 174.769 122.587C174.784 122.58 174.819 122.556 174.842 122.537C174.06 121.631 172.094 120.47 171.536 119.614L174.072 119.339C173.689 118.604 172.175 117.891 171.676 117.16L174.745 117.001C174.556 116.529 172.895 114.605 172.442 113.985L172.438 113.989ZM114.788 113.327C114.184 112.905 113.193 110.722 112.879 109.863C111.718 106.711 112.365 103.611 114.269 100.874C115.086 99.6967 116.395 99.1199 117.56 98.876C118.365 100.154 117.869 100.854 117.455 102.569C117.564 102.496 117.533 102.523 117.688 102.399L119.654 100.568C119.84 100.939 119.948 101.76 119.797 102.29C119.569 103.103 118.977 103.096 118.698 103.572C118.396 104.083 118.388 105.031 118.667 105.449C119.046 106.022 119.844 105.844 120.452 105.852C120.095 106.278 119.929 106.297 119.615 106.723C121.512 107.757 121.683 107.76 121.025 110.304C118.597 109.708 119.027 109.963 117.719 108.314C117.688 109.088 118.644 110.916 118.559 111.616C116.344 111.264 116.6 109.816 115.899 108.453L115.512 112.317C115.086 111.907 115.222 111.879 114.881 111.365L114.788 113.339V113.327ZM69.2663 106.545C69.7347 104.927 70.1877 103.39 70.7761 101.822C71.4226 100.111 72.0381 99.3909 72.7543 98.0011C74.1402 95.3068 75.0925 92.1556 75.9674 89.0896C76.1687 89.7283 76.2616 90.5839 76.4242 91.3272C76.7649 92.9144 76.3661 92.7905 75.2474 94.8732C74.0937 97.0179 74.4034 95.7094 74.4228 98.5818C74.4305 99.6503 74.6938 100.142 74.086 101.145C72.8317 103.212 72.7853 103.769 71.171 105.109L69.5644 106.39C69.5334 106.409 69.4986 106.425 69.4715 106.44C69.4444 106.456 69.3979 106.479 69.3709 106.491C69.3476 106.502 69.305 106.526 69.2702 106.541L69.2663 106.545ZM128.09 116.544C128.337 116.827 128.833 117.33 129.003 117.713C121.543 114.411 123.146 117.938 119.735 118.615C119.979 118.011 120.595 116.97 120.726 116.482C120.893 115.867 120.374 115.24 120.328 114.508C121.539 114.709 121.69 114.698 122.871 115.135C123.982 115.549 126.638 115.286 127.842 115.12C128.662 115.007 129.166 114.508 129.944 114.392L129.963 115.635C129.417 115.766 128.442 116.138 128.086 116.544H128.09ZM123.417 118.321C123.998 117.663 124.973 118.286 125.368 118.689C125.12 119.126 125 119.181 124.381 119.033C123.789 118.894 123.541 118.766 123.417 118.321ZM123.165 119.452C123.92 120.075 124.036 121.085 125.523 120.512C125.914 120.361 126.007 120.241 126.367 120.16C127.443 121.298 125.817 121.987 124.919 121.736C123.452 121.325 122.844 120.93 123.165 119.452ZM120.243 124.275L121.427 122.773C123.719 123.412 124.211 123.195 126.142 122.738C129.359 121.979 127.973 121.468 129.948 121.093C129.297 124.627 126.378 123.021 124.404 124.12C122.395 125.235 121.911 124.941 120.246 124.275H120.243ZM121.613 118.972C122.047 119.637 121.791 120.381 122.461 121.461C122.705 121.848 122.829 121.836 122.856 122.208C120.657 122.467 121.005 120.613 121.613 118.972ZM55.3919 108.852L62.1665 105.751C62.1743 105.782 62.1936 105.798 62.1859 105.844L61.8878 110.242C61.6671 112.789 61.2955 117.226 60.8774 119.599C60.018 124.488 57.7262 127.411 58.8257 132.443C59.267 134.468 59.7741 136.52 60.1341 138.583C60.6374 141.44 60.8155 142.265 60.0373 145.571C58.6321 151.563 56.7933 157.405 54.3428 163.011C54.0253 163.738 53.7156 164.427 53.4098 165.147C52.9337 166.262 52.8369 166.208 52.0046 166.572L49.4031 167.815C49.2599 167.881 49.136 167.935 49.0005 167.989C48.6405 168.14 48.8611 168.105 48.4469 168.175C47.8662 166.665 46.5887 164.156 46.5732 161.981C46.5578 159.879 46.9178 156.217 47.2933 154.087C47.3397 154.184 47.3552 154.207 47.3939 154.374L48.0753 160.169C48.3076 162.178 47.1578 164.749 48.1682 166.576C49.1515 166.994 50.3245 166.243 50.9361 165.887C53.6073 164.331 54.5751 159.375 55.4693 156.209C55.8293 154.939 56.1623 153.592 56.5726 152.349C56.9752 151.13 57.5288 150.05 57.9353 148.888C61.8917 137.631 55.2293 136.903 56.8591 129.23C57.4088 126.644 58.1946 124.082 58.9147 121.527C59.6735 118.836 59.267 116.92 59.3638 114.493L58.8644 114.647C58.6747 114.721 58.6321 114.752 58.4656 114.833L55.8564 115.991C56.1971 115.503 59.7238 112.816 60.2619 112.274C60.8426 111.69 60.6567 108.581 60.5754 108.318L55.3841 108.833L55.3919 108.852ZM150.616 129.497C150.852 133.81 150.628 136.706 149.013 141.212C146.935 147.007 148.278 146.306 147.736 149.86C147.631 150.534 147.217 152.167 146.66 152.69C146.331 151.908 145.789 148.211 145.715 147.526C145.444 145.021 146.033 144.03 146.865 141.37C148.022 137.67 147.794 139.001 148.379 135.072C148.568 133.791 148.584 133.171 149.13 131.99C149.393 131.418 149.997 129.734 150.62 129.501L150.616 129.497ZM79.0295 121.832C79.1534 121.573 81.7123 118.921 82.0336 118.77C82.5678 118.522 83.6905 118.426 84.306 118.55C85.87 118.871 85.4132 118.55 86.5552 118.228C87.3333 119.153 87.8559 120.373 88.123 120.628C86.6171 120.114 85.6842 118.588 83.1679 119.757C82.7498 119.951 82.4827 120.052 82.1343 120.226L79.0295 121.828V121.832ZM86.4894 121.813C86.0907 123.164 84.2983 122.378 84.3099 121.534C84.3292 120.439 86.2571 120.547 86.4894 121.813ZM82.1846 124.329C84.697 124.794 84.6699 124.411 86.9384 123.896C87.7088 123.722 87.5617 124.078 88.2237 124.504C87.9914 124.922 87.3527 125.46 87.0739 125.626C85.8971 126.327 83.5473 125.7 82.1846 124.333V124.329ZM150.283 153.367L154.1 157.029C158.188 160.978 159.532 162.163 163.178 166.56C163.709 167.199 164.363 167.911 164.777 168.566C161.998 167.288 157.53 164.114 155.796 162.016C154.453 160.394 153.922 159.314 152.85 157.862C152.587 157.506 152.486 157.157 152.242 156.782C151.971 156.364 151.739 156.089 151.514 155.659C151.162 154.97 150.403 153.956 150.283 153.363V153.367ZM96.4462 151.041C97.5069 148.869 97.894 149.105 100.809 147.634C102.865 146.597 109.504 145.706 112.109 145.71C114.281 145.714 117.328 147.142 117.641 148.323C115.76 147.847 113.278 147.142 111.478 147.286C109.581 147.437 108.265 148.451 106.724 148.985C105.338 149.465 103.592 149.484 103.012 149.837C102.71 150.019 102.226 150.336 101.881 150.503C101.138 150.863 97.6114 150.99 96.4462 151.041ZM132.747 167.354C133.076 167.598 135.062 169.611 135.294 169.925C135.673 170.439 136.289 172.541 136.293 173.312C136.149 172.952 135.913 172.545 135.727 172.1L135.143 170.823C135.011 171.237 135.069 171.69 134.926 172.046C134.779 172.406 134.477 172.615 134.326 173.072C134.953 173.966 135.801 174.76 136.188 175.623C136.386 176.06 137.346 178.008 136.838 178.708C136.242 178.263 136.579 177.531 135.329 175.971C134.686 175.17 133.927 174.249 133.246 173.533C133.227 174.071 133.323 174.744 133.374 175.294C133.532 177.017 134.976 177.094 135.015 179.854C134.574 179.359 133.92 177.559 133.06 176.881C132.96 177.415 132.766 178.557 132.843 179.099C132.936 179.746 133.184 180.45 133.223 181.093L131.972 180.168L131.55 181.639C130.691 180.447 131.012 180.299 131.434 179.591C132.178 178.341 131.91 178.426 132.123 177.013C132.507 174.427 131.972 174.64 132.51 171.458L133.575 171.949C133.629 171.609 133.281 169.824 133.134 169.599C132.445 168.55 131.81 169.189 132.747 167.354ZM94.9132 158.032C95.7881 158.508 97.3559 159.759 98.374 159.735C99.3844 159.712 100.855 159.178 101.819 159.213C101.432 162.817 100.863 162.201 97.4991 160.719C96.8488 160.432 95.7687 160.173 95.0564 159.96L94.9132 158.032ZM76.672 153.7C76.9391 154.107 77.0165 155.024 77.1404 155.539C77.4269 156.751 77.3649 156.375 77.0475 157.784C76.3197 161.048 76.7765 161.385 76.641 162.29C75.5145 162.852 74.446 162.86 73.3853 163.274C74.0705 163.595 74.8448 163.75 75.0615 164.377C75.1622 164.667 74.9841 166.262 74.9067 166.661C74.2486 167.261 73.6911 167.37 73.1027 168.38C73.273 168.868 73.4976 169.239 73.8034 169.626C73.7144 170.114 73.4085 170.97 73.0834 171.202C72.7349 171.415 71.1129 170.974 70.6406 170.888C71.0897 170.257 71.7981 170.095 72.2743 169.425C70.4045 168.755 71.0394 169.023 69.6883 169.936C69.1889 170.273 67.1139 170.122 66.7539 169.983L66.9901 168.682C67.2146 168.616 67.474 168.492 67.7372 168.345C67.9114 168.244 68.2598 167.958 68.4921 167.911C69.2044 167.768 69.9864 168.492 70.6832 168.279C71.7942 167.935 72.7737 166.58 73.2343 165.6C72.8008 165.821 71.682 166.99 70.9735 167.184L71.2523 166.077L69.0031 165.833C69.2663 165.19 70.0173 164.973 70.2845 164.273C70.5555 163.56 70.6716 162.383 70.9271 161.567C72.0497 160.889 74.3531 161.106 75.4332 160.618C74.9725 160.425 72.5607 159.883 72.6498 158.412C73.4589 158.226 73.5827 158.504 74.1131 158.938C74.6822 159.403 75.228 159.329 75.8551 159.337C75.5222 157.966 74.4886 157.552 73.7918 156.863L73.4705 156.449L76.0913 156.793C75.6848 156.251 75.2396 155.752 74.7712 155.253C75.1312 154.815 76.161 154.018 76.6758 153.696L76.672 153.7ZM102.195 181.248C103.035 181.569 108.478 181.778 109.755 181.817C114.149 181.941 113.627 180.83 116.213 179.897C116.611 180.369 117.269 182.216 117.595 182.541C117.858 182.8 119.991 183.644 120.448 183.946C120.475 183.965 120.506 183.989 120.533 184.008C120.556 184.024 120.591 184.058 120.61 184.07C120.63 184.085 120.665 184.113 120.688 184.136C120.397 184.476 118.818 185.947 118.562 186.106C118.996 186.153 121.16 185.603 121.807 185.464C123.022 185.2 124.071 185.022 125.457 185.073C124.799 186.826 123.92 187.496 122.534 187.891C121.47 188.197 119.759 188.812 118.365 188.514C117.355 188.297 115.256 186.884 114.118 186.335C113.414 185.994 112.647 185.653 111.916 185.351C109.101 184.19 108.741 182.881 105.458 183.818C102.702 184.604 100.174 185.371 97.232 185.166C95.7532 185.065 93.8989 185.03 92.482 184.771C93.3337 183.002 93.6666 183.605 96.6552 182.498C96.2333 181.859 95.3506 181.352 94.9906 180.687C96.0397 181.008 99.3805 182.587 100.155 182.316C100.654 181.983 100.507 181.325 100.855 180.663C101.134 180.133 101.448 179.936 101.85 179.587C104.235 177.512 103.488 179.208 107.816 178.646C108.741 178.526 109.829 177.965 110.65 177.884C112.376 180.532 106.387 179.637 104.44 180.299L102.199 181.252L102.195 181.248ZM58.7637 195.854L57.7456 195.533C57.3314 197.36 57.0178 200.035 56.1081 201.192L55.5196 201.692C55.7751 198.777 54.3079 199.837 54.9273 198.339C55.4267 197.131 55.9455 198.452 56.6229 195.033C55.059 195.173 54.3234 196.884 53.1543 197.317C53.7311 195.757 56.9404 191.058 58.2101 189.575C58.7211 188.979 59.8167 187.841 60.1148 187.337C59.7122 186.966 59.3444 186.772 59.1508 186.362C60.92 185.591 61.5162 186.098 62.7433 184.213C63.2466 184.662 63.2776 184.91 63.9899 185.386C64.3847 185.649 64.8454 186.28 64.5822 186.819C64.315 187.372 62.4298 188.669 62.093 188.839C60.5793 189.606 61.0129 189.134 60.227 192.068C59.8709 193.392 59.5767 194.844 58.7637 195.854ZM141.643 167.346C142.49 167.571 144.236 169.352 144.403 169.425C144.778 169.592 144.604 169.553 144.894 169.425C144.488 169.053 143.903 168.047 143.66 167.474C143.466 167.017 142.638 166.088 142.127 165.639L141.29 164.509C141.372 163.947 141.391 163.684 141.674 163.192C142.471 163.32 142.483 163.673 143.203 163.885C143.497 164.16 144.128 164.35 144.6 164.513C144.6 164.029 144.291 162.767 144.062 162.364C143.896 161.404 143.439 160.428 143.528 159.314C143.621 158.179 144.027 156.503 144.283 155.342C144.585 155.826 145.425 158.764 146.648 160.777L149.118 164.381C149.288 164.648 149.346 164.718 149.521 164.965L149.799 165.426C149.888 165.608 149.854 165.519 149.923 165.709L145.913 161.938C146.246 164.009 147.194 166.425 148.301 168.19L146.718 167.904C147.581 170.788 148.739 168.81 148.483 174.404C148.007 173.885 147.689 173.32 147.291 172.762C147.024 172.39 146.416 171.372 146.149 171.156L146.621 174.469C145.886 173.951 145.39 172.987 144.658 172.565L144.933 175.124C144.275 174.489 143.571 173.231 143.048 172.917L143.067 174.988C142.161 175.127 140.481 175.441 139.734 174.818C139.8 173.428 141.774 173.533 140.694 171.783C140.377 171.268 139.169 169.553 138.681 169.162L137.229 167.315C138.875 168.07 141.194 170.401 142.727 170.974C142.487 170.134 142.088 169.588 141.554 168.906C141.19 168.442 141.159 168.562 141.244 167.919C141.588 167.606 141.503 167.768 141.635 167.346H141.643ZM92.4782 192.095C93.3995 190.872 94.3712 189.648 95.3506 188.677C95.881 188.483 96.5778 187.887 96.9997 187.496L97.863 186.973C97.9637 187.608 98.014 188.441 98.1185 189.025C99.5625 188.084 100.794 186.729 102.578 186.544C103.844 186.412 104.463 186.714 105.791 186.935C106.898 187.12 107.924 187.051 108.97 187.167C108.354 189.586 108.462 190.024 106.906 191.534C105.749 192.656 105.118 193.206 103.538 193.562C100.677 194.209 98.5366 194.12 96.0436 195.974L102.698 195.339C102.454 195.657 102.617 195.502 102.323 195.722L101.196 196.388C100.67 196.752 100.197 197.008 99.6438 197.371C98.9083 197.852 97.5069 199.063 96.8526 199.926C97.4488 199.814 98.6295 199.218 99.3186 198.959C101.517 198.134 102.013 197.654 103.759 196.16C104.463 195.56 105.18 195.037 105.884 194.402C108.563 191.998 109.097 190.961 112.125 189.412C112.957 188.986 113.77 188.394 114.482 188.189C116.793 190.577 118.415 190.492 121.516 190.02C123.641 189.695 123.03 189.888 125.093 190.93C126.32 191.549 127.675 192.277 128.93 192.827C128.918 192.796 128.902 192.718 128.887 192.738L128.798 192.567C127.671 190.562 125.662 189.865 125.775 187.69C125.867 187.643 125.91 187.624 126.049 187.573L126.835 187.357C129.94 186.675 129.278 187.508 132.557 186.892C133.265 186.76 134.09 186.76 134.752 186.447L130.199 185.15C131.767 184.329 133.939 184.19 135.584 183.493C136.327 183.18 140.048 181.205 140.481 180.799C140.489 180.834 140.508 180.853 140.497 180.907C140.342 181.716 139.633 182.425 139.188 183.114C142.231 184.116 144.531 183.501 146.869 186.006C147.759 186.962 148.173 187.67 148.379 189.041C148.46 189.59 148.948 192.378 148.456 192.807C148.355 192.149 148.111 191.929 147.868 191.294C147.237 189.645 146.625 188.413 145.146 187.357C145.289 187.984 145.657 188.661 145.885 189.257C146.857 191.781 146.698 192.97 146.904 195.773C147.008 197.228 147.26 198.885 147.283 200.286C147.299 201.363 147.02 204.254 146.83 205.369C146.346 204.359 146.563 201.808 146.195 200.65C145.746 202.145 145.498 203.933 145.111 205.47C144.72 207.022 143.965 208.528 143.466 209.914C143.284 209.515 143.323 208.939 143.3 208.505C143.269 208.002 143.222 207.506 143.187 207.022C143.114 206.07 143.04 205.106 142.897 204.204C142.591 202.269 141.828 200.956 141.143 199.253C139.858 196.051 140.338 197.151 140.164 193.849C140.106 192.769 140.04 191.882 139.564 191.216C139.119 190.593 138.147 189.734 137.295 189.374C137.346 190.078 137.566 190.709 137.698 191.383C138.352 194.72 138.941 197.844 139.27 201.285C139.37 202.358 139.664 204.448 139.614 205.416L138.666 203.492L137.245 210.565L136.854 206.546C136.293 207.053 135.305 209.082 134.891 209.914L133.579 212.612C133.498 212.783 133.432 212.941 133.35 213.085L133.056 213.476L132.127 210.468C130.788 211.331 126.371 215.082 125.713 216.759C126.204 216.809 128.902 215.698 129.828 215.558C129.328 216.271 127.091 218.102 126.901 218.621L129.595 218.853L129.119 220.142C127.11 221.075 126.15 221.458 125.848 221.59C125.035 221.946 124.315 222.364 123.491 222.604L125.6 219.155C124.71 219.623 121.725 221.4 120.742 221.524C120.963 221.094 121.296 220.812 121.594 220.367C122.41 219.151 123.336 217.297 123.63 215.822C122.859 216.015 121.814 216.534 121.249 217.184C120.428 218.129 120.734 218.892 119.503 219.999C118.698 220.723 118.013 221.032 117.219 221.652C116.46 222.24 115.651 222.585 114.347 222.511C115.14 219.41 115.671 216.933 115.899 213.855C114.436 213.913 113.46 214.114 112.353 214.951C112.036 215.191 111.552 215.473 111.265 215.647C111.316 216.077 111.776 216.944 111.954 217.386C112.194 217.974 112.496 218.528 112.717 219.101C112.922 219.631 113.445 222.333 113.483 223.045C112.895 222.546 111.385 219.499 110.843 218.756C110.553 218.353 107.739 215.109 107.506 214.978L106.616 217.393C107.131 217.695 109.453 219.298 109.736 219.708L111.292 222.976C109.964 222.805 108.416 222.538 107.119 222.283C106.763 222.213 101.053 218.644 100.67 218.218C99.0399 216.433 98.6915 215.984 97.8979 213.863L96.7636 210.611C96.5197 209.903 96.1945 209.74 96.0629 208.958C95.6526 206.496 98.6992 203.573 99.7367 202.044C97.1585 202.772 95.9197 205.218 94.2318 208.029C93.3453 209.508 93.6395 210.963 91.6188 211.277C90.3954 211.467 88.9321 212.438 88.0843 213.073C88.1618 214.18 88.9902 215.527 89.1025 216.677C87.8946 216.561 85.9668 217.308 84.9835 216.58C83.8337 215.733 82.7111 214.908 81.5536 214.053C80.1445 213.015 80.5548 212.856 79.8425 210.518C79.5715 209.628 79.0528 207.259 78.685 206.589C78.5766 207.266 78.565 210.224 78.716 210.762C78.9173 211.486 79.7961 213.956 79.7535 214.459L68.1901 208.234C69.0689 208.06 70.3387 208.3 71.1439 207.874C70.6716 207.564 69.9825 207.088 69.7928 206.562L74.0047 207.99L73.1027 206.178L76.1184 206.717C75.9248 206.399 73.4434 204.2 73.0059 203.976L71.5078 205.935L67.6791 204.831L67.9501 206.527C67.2339 206.399 66.3165 206.337 65.5616 206.256C64.4892 206.14 64.6867 206.639 63.8892 207.177C63.1343 206.899 60.467 204.994 59.7547 204.444C58.2643 203.294 57.401 202.679 57.6875 200.515C57.9469 198.556 59.1508 197.294 60.1303 195.947C61.0206 194.724 61.5742 191.712 62.0117 190.036C63.5021 189.435 65.248 188.82 66.6842 188.069L66.9359 187.918L66.2778 184.84L64.0712 184.682C64.5899 184.085 66.3629 183.122 66.4442 182.185C65.5693 181.879 63.173 182.796 62.4452 183.071C61.7755 183.319 61.2219 183.551 60.5445 183.787C60.0838 183.95 58.9108 184.298 58.7134 184.43C58.8682 183.946 59.1237 183.95 59.2747 183.327C60.1032 181.407 59.7006 182.096 58.6747 180.927C57.8191 180.385 55.1945 179.382 54.7647 179.034C56.2319 178.523 58.7405 178.569 59.4683 178.391C59.5805 176.99 56.5184 175.58 55.9648 175.027C55.508 174.57 53.8898 171.609 53.8124 170.737C54.9235 172.015 55.69 173.165 58.1404 172.658C59.4141 172.394 61.3961 171.523 62.1549 170.757C66.2313 171.818 66.661 172.379 70.9929 172.654C73.1066 172.789 73.0059 172.809 75.019 173.649C77.0823 174.508 79.9509 176.246 80.9264 178.232C81.4452 179.293 81.8091 180.536 82.3511 181.414C84.155 184.333 85.6029 184.155 88.9012 183.559C89.2767 184.14 89.8767 185.293 89.4005 186.319C88.1114 186.865 87.7127 186.261 86.7101 187.949C87.4417 187.988 89.478 187.57 90.3258 187.434C91.5723 187.233 92.9001 187.175 94.2473 187.341C94.7506 187.376 94.3828 187.306 94.468 187.55C93.8176 187.759 91.3207 190.287 90.771 191.243C90.1903 192.405 91.0652 192.169 89.0096 195.045C88.4598 195.815 86.9423 197.538 86.6481 198.15L89.6986 197.77L88.2469 200.697C89.1025 200.271 90.2058 199.497 90.9916 198.672C91.9323 197.685 91.8162 196.017 92.0098 194.596C92.1027 193.767 92.1336 192.838 92.482 192.087L92.4782 192.095ZM116.367 126.671C117.401 127.829 118.83 129.11 120.138 130.132C124.168 133.291 124.342 133.744 125.585 138.382C126.68 142.466 127.362 143.569 128.248 148.157C128.573 149.833 128.74 151.645 128.968 153.398C129.65 158.617 129.359 159.875 129.623 164.458C129.828 168.066 130.439 172.414 129.46 175.859C128.844 178.027 127.795 179.227 126.591 180.748C125.43 182.216 124.28 182.951 122.108 182.552C120.088 182.181 119.414 180.795 118.71 178.79C118.396 177.891 118.125 178.004 116.569 177.249C112.961 175.503 112.361 175.797 108.73 173.192C109.539 172.929 111.242 173.134 112.198 173.502C113.294 173.92 114.687 174.659 115.736 174.942C116.863 173.103 116.94 172.607 116.17 169.557C115.887 168.43 115.736 168.268 114.9 167.416C114.378 166.886 113.46 166.069 112.818 165.736C113.185 165.221 113.812 164.815 114.265 164.412C114.8 163.936 115.167 163.618 115.682 163.173C119.433 159.933 118.396 160.397 119.499 155.628C119.913 153.832 120.184 152.655 119.821 151.033C119.553 149.837 118.934 148.323 118.322 147.58C117.343 146.384 116.588 145.826 114.819 145.215C111.35 144.014 109.136 144.096 105.962 144.491C100.724 145.137 95.5829 146.953 93.624 152.694C92.6059 155.682 93.6163 158.795 94.4486 160.947C94.9867 162.337 95.3855 162.883 96.6939 163.963C97.6733 164.772 99.8954 166.177 100.085 166.351C98.9392 166.797 97.3327 167.04 97.0268 168.914C96.8101 170.238 97.9985 172.263 98.5947 172.747C99.5044 173.482 100.658 172.596 102.598 172.209C103.616 172.007 104.746 171.326 105.605 171.55C105.807 171.605 105.969 171.674 106.136 171.821C107.979 173.405 100.236 175.48 98.5869 176.169C97.654 176.556 94.6809 178.852 93.6086 179.634C92.9659 180.102 91.7504 180.834 90.8832 181.023C88.7115 181.492 85.6687 180.199 83.9886 178.933C82.3201 177.675 77.8488 174.222 77.0707 172.371C75.9906 169.801 75.8397 168.705 76.1455 165.817C76.3507 163.87 77.1017 164.002 77.8256 162.608C78.3366 161.629 77.8992 160.181 77.7327 159.205C77.4385 157.467 77.9301 158.493 79.1767 156.58C78.6037 156.116 77.4849 155.911 78.4102 154.215C79.8038 151.668 79.5367 151.459 81.5536 149.407C83.8144 147.104 81.4452 145.54 82.7072 144.057C85.1693 141.169 84.2131 140.627 85.8506 139.233C86.3539 138.804 87.4069 137.817 87.7127 137.178L86.5591 136.315L92.8227 130.759L91.762 127.434C92.5091 127.252 93.4073 127.333 93.8834 127.089L91.971 125.94L92.4162 125.746C94.1002 125.274 94.2783 125.22 94.2125 122.963C94.1234 119.877 93.7363 119.916 93.655 118.612C94.2938 118.294 95.0874 118.139 95.13 116.974C95.1609 116.165 94.8938 115.282 94.7351 114.616C94.4486 113.409 94.3751 113.587 93.7092 112.743C93.2911 112.212 92.7569 111.427 92.2846 110.993L91.9865 112.623C91.6497 112.29 90.9026 110.888 90.5774 110.358L90.2716 109.948C90.4806 111.384 91.7117 114.465 91.7271 115.317L89.6677 115.174C89.358 114.493 88.9399 112.925 88.5605 112.348C87.2946 113.997 88.1618 115.453 86.4855 114.508C85.2506 113.815 85.0299 113.958 84.1783 112.665C83.7021 111.945 82.6414 110.494 82.3782 109.468L84.817 109.851C84.7744 109.181 83.8841 108.349 83.9228 107.362C83.9382 106.951 83.9654 106.588 83.9886 106.173C84.2015 101.934 90.771 101.973 92.2188 105.995C92.7995 107.609 92.7608 108.914 94.588 109.863C94.797 108.763 95.188 107.35 94.8938 106.39C94.7932 106.057 94.526 105.449 94.3789 105.147C93.3724 103.072 92.4124 99.8516 91.6691 98.698C89.5554 95.4035 87.5191 93.2163 84.3641 91.0291C84.3022 90.9865 84.1008 90.8471 84.0428 90.7929C83.7563 90.5181 83.9305 90.7387 83.7563 90.4329L86.8223 91.0058L83.4582 87.3127L85.057 86.07C85.3164 85.8997 85.3745 85.9152 85.5913 85.6403C85.239 85.2339 84.6273 84.928 84.3873 84.5061L85.4596 83.2363C84.9835 82.4001 83.4582 81.8698 82.9395 81.0646C84.5034 80.8749 86.4816 81.862 87.732 80.991L87.4456 79.0709L89.7296 79.7019C89.5593 79.0399 89.176 78.6257 88.9941 77.9831L90.5967 78.5754L91.1 77.2514L92.9001 78.0063L93.1905 76.4113L95.5326 77.0501L96.3687 75.0797L97.6772 75.7494L98.8463 74.5803L100.542 76.4036L101.556 76.0552C102.083 76.4539 102.617 77.5495 103.116 77.7972C103.755 78.1108 105.331 78.2695 106.151 78.5715L106.705 80.7239L108.323 81.0839C107.258 85.288 108.075 84.3861 108.141 87.6224C108.188 89.9529 107.746 92.4266 106.976 94.8229C107.936 94.8345 109.446 94.1841 110.421 94.5248C110.143 96.1042 107.545 98.125 106.732 99.3483C107.599 99.3561 108.222 98.9109 109.004 98.7599C107.092 101.973 106.604 100.235 106.763 104.911C106.802 106.03 107.82 110.199 108.222 110.977C110.692 111.934 109.899 110.869 109.926 113.676C109.937 115.077 110.061 116.057 110.661 116.931C111.579 118.755 115.357 125.553 116.375 126.691L116.367 126.671ZM162.818 92.5156L163.484 92.7789C163.67 93.0266 164.142 93.2163 164.444 93.3983L168.013 95.0861L162.118 94.3932C162.555 94.8577 165.609 96.3288 166.535 96.441C167.998 96.623 169.748 96.2397 170.983 96.4139L168.714 97.9856L172.012 98.9535L171.265 99.1006C168.521 99.3793 168.768 99.689 166.786 98.2799C165.369 97.2733 163.023 96.1894 161.347 95.5352L161.212 95.3726C160.821 94.9506 161.339 95.481 161.072 95.2293L160.337 94.6719C159.783 94.1493 157.851 92.7285 157.062 92.5969C157.038 92.5698 157 92.5388 156.98 92.5234C156.961 92.5079 156.926 92.473 156.899 92.4498C156.346 92.0201 157.236 92.655 156.729 92.3221C156.709 92.3104 156.5 92.1943 156.458 92.175C156.136 92.0201 155.927 91.9582 155.591 91.8653L153.597 91.1142C153.554 90.9168 153.539 91.091 153.601 90.8007C153.674 90.4561 153.872 90.3323 154.062 89.9722L155.726 90.3594C156.779 90.5065 157.062 90.6884 157.639 90.7891L158.254 90.7658C158.719 91.0097 159.977 91.3891 160.581 91.6369C161.301 91.9272 162.067 92.2291 162.814 92.5156H162.818ZM22.5794 116.207C23.1679 111.086 24.0776 106.092 25.2893 101.257C26.7255 103.669 30.98 106.011 32.1413 107.532C31.3942 107.702 24.2092 108.864 23.9963 108.833L28.1733 109.367C29.6328 109.63 31.3013 109.924 32.7182 110.327C32.2536 110.645 26.5745 111.899 25.5022 112.189L35.3312 111.516C35.1957 111.601 33.9918 112.162 33.6627 112.298L28.1346 114.756C27.2868 115.116 24.6738 115.743 22.5833 116.211L22.5794 116.207ZM22.2813 119.115C22.3201 118.701 22.3549 118.29 22.3975 117.876L24.0931 118.662L22.2813 119.115ZM22.0452 122.158C22.0762 121.678 22.111 121.197 22.1497 120.717L24.7396 121.488L22.0452 122.158ZM43.2363 196.392C29.9386 178.975 21.7974 155.589 21.7974 129.869C21.7974 127.748 21.8594 125.646 21.9678 123.563L24.9951 124.906C25.2854 125.928 25.2157 127.349 25.417 128.413C26.9733 136.733 32.1065 141.545 37.654 147.835L43.1317 154.002C44.7112 155.841 44.0221 155.001 44.4247 159.019C44.6222 160.982 44.7731 164.532 45.2493 166.158C45.9771 168.632 47.1191 169.599 49.9528 171.032C49.4418 175.174 44.1073 189.463 43.2363 196.392ZM178.512 105.182C180.196 113.068 181.094 121.341 181.094 129.873C181.094 149.105 176.542 167.033 168.683 182.138C167.63 179.963 164.936 177.307 165.335 175.484C165.726 173.707 165.667 172.963 166.511 172.34C166.991 171.984 168.393 170.97 168.637 170.513C168.277 169.355 166.264 165.008 166.163 164.346L170.081 166.123C170.081 166.069 170.069 165.98 170.05 165.999L165.485 158.95L171.745 162.852C171.521 162.05 169.299 158.539 168.993 157.622L172.849 159.368C172.349 158.95 169.957 155.241 169.825 154.823L173.677 155.446C171.676 153.704 169.968 151.424 168.428 149.364C166.008 146.132 166.507 139.849 168.01 137.023C169.004 135.153 170.832 133.047 172.005 131.425C175.369 126.776 177.494 124.724 178.381 117.884C178.512 116.873 178.899 114.744 178.535 114.071L177.668 112.723C177.324 112.247 177.215 111.891 176.882 111.43C175.5 109.526 173 107.346 172.547 106.615L172.907 106.479C172.934 106.471 172.969 106.46 172.996 106.452L175.74 105.836C176.186 105.736 177.765 105.415 178.504 105.178L178.512 105.182ZM177.556 101.063C177.8 102.031 178.028 103.007 178.249 103.986C176.832 103.912 174.962 103.924 174.513 103.34C173.82 102.445 173.886 101.915 173.402 101.102L177.556 101.063ZM176.546 97.3392C176.697 97.8695 176.851 98.396 176.995 98.9302C174.954 98.5354 172.961 98.3766 171.629 98.0282L176.546 97.3392ZM101.448 32.3995C135.456 32.3995 164.479 58.4837 175.903 95.1945C175.253 95.1868 174.61 95.1868 173.925 95.0629L167.259 93.8047C166.318 93.4641 165.664 92.5543 164.7 92.3143C164.56 92.0937 164.769 92.3143 164.514 92.1014C164.471 92.0666 164.274 91.9465 164.262 91.9388C164.053 91.8149 163.848 91.7181 163.635 91.6098L162.795 91.1762C162.21 90.5142 159.725 89.7051 158.699 89.4496L158.157 89.2831L156.775 88.7489C155.97 88.447 153.593 87.6534 153.19 87.092L156.992 84.4557C157.271 84.2815 157.36 84.1964 157.631 83.9873C157.743 83.9022 157.828 83.848 157.917 83.7744C158.188 83.5576 157.983 83.7628 158.204 83.4725L151.05 84.5254C151.197 84.4286 151.274 84.3977 151.425 84.3009L156.415 81.0762C155.351 81.111 154.089 81.3665 152.981 81.4943C151.874 81.622 150.624 81.7962 149.575 81.9472C150.07 81.4981 150.426 81.3239 150.976 80.9291L155.099 78.014L148.266 77.0888L152.536 73.9415C152.916 73.6666 153.578 73.2369 153.907 72.8537L144.271 74.4138L148.061 70.4768C147.24 70.5735 145.344 71.282 144.453 71.553C143.392 71.8782 141.84 72.4782 140.841 72.6524L146.153 67.554C146.594 67.1436 147.6 66.2881 147.852 65.8274H147.86C147.14 66.5397 139.242 70.2445 137.45 71.131C136.804 71.4484 136.587 71.5452 135.906 71.7581C131.392 73.1518 124.915 72.3737 120.312 71.0342C118.671 70.5581 118.137 70.8213 116.58 71.0342C113.154 71.5065 109.136 71.8394 105.687 71.8665C100.085 71.913 99.7754 72.4627 95.0874 73.2486L91.58 73.8641C90.3722 73.8912 87.1862 74.3557 86.11 74.6925C85.3087 74.6616 82.9937 75.1609 82.3394 75.4358C81.2594 75.8887 79.4709 77.1275 78.5379 77.9482C77.903 78.5057 75.2938 79.8064 74.4964 80.2168C73.8924 80.5265 73.4124 80.8749 72.824 81.1691C70.1025 82.5279 69.1579 83.0118 66.0842 84.1383C63.3782 85.1293 64.0131 85.2184 62.1162 84.5564C60.5212 83.9989 58.9108 83.457 57.3043 82.8918L56.3868 86.3139C55.4771 86.012 49.6547 81.2968 48.5359 80.84C49.5696 82.102 52.2485 87.0959 53.2937 88.7915C53.8279 89.6587 54.4434 90.6458 54.8886 91.5517L46.5616 86.9527C46.7474 87.1037 51.9039 92.5427 52.2485 93.0344L46.8404 91.1336C46.8791 91.2188 49.2444 94.1648 49.376 94.4203L37.6346 91.1104C38.7456 91.6833 41.8581 93.5183 42.7949 93.6963C42.9924 93.9828 42.9846 93.8899 43.3679 94.0951C43.5885 94.2112 43.4143 94.0951 43.6505 94.2422L43.9602 94.4783C43.8169 94.5519 43.7047 94.5906 43.5537 94.6719L43.1511 94.939L42.1484 95.3648L42.9846 96.2088L43.9563 97.1301L45.3964 98.5354L45.0248 98.5741C44.3589 98.5934 43.9486 98.5005 43.2866 98.5083C42.973 98.5083 42.7601 98.5431 42.4814 98.5431L41.5832 98.5934L41.0026 98.4928L39.5238 98.3495L30.3644 93.5415C30.3528 94.126 31.4794 95.7403 31.9052 96.2707C33.5892 98.3766 39.365 100.862 41.0297 102.062L33.806 101.969L36.4732 104.524C33.0511 105.349 28.2856 102.964 25.5487 100.277C35.7842 60.9149 65.8984 32.3956 101.456 32.3956L101.448 32.3995ZM92.4666 231.368C49.9954 225.953 16.9003 182.58 16.9003 129.869C16.9003 77.1585 49.9954 33.7892 92.4666 28.3734V29.9683C51.0174 35.4074 18.7508 78.0605 18.7508 129.873C18.7508 181.685 51.0213 224.338 92.4666 229.777V231.372V231.368ZM55.748 244.449C56.0616 243.95 56.0964 243.412 55.8526 242.839C55.6087 242.266 55.2641 241.84 54.8151 241.565C54.1995 241.186 53.6808 241.031 53.2666 241.105C52.8524 241.178 52.4459 241.534 52.0471 242.173C51.6833 242.758 51.5555 243.334 51.6678 243.904C51.78 244.473 52.1439 244.945 52.7594 245.324C53.3208 245.669 53.8821 245.735 54.4396 245.522C55.0009 245.309 55.4383 244.949 55.748 244.449ZM61.0477 235.863C61.2026 235.611 61.2606 235.348 61.2219 235.073C61.1794 234.798 61.0748 234.531 60.9045 234.272C60.7342 234.013 60.5406 233.78 60.3238 233.567C60.107 233.358 59.898 233.192 59.7044 233.072C59.2012 232.762 58.7095 232.673 58.2411 232.809C57.7688 232.944 57.3856 233.246 57.0913 233.718C56.8475 234.109 56.6423 234.531 56.4758 234.984C56.3094 235.441 56.4758 235.824 56.983 236.134C57.2346 236.289 57.552 236.417 57.9353 236.517C58.3185 236.618 58.7095 236.676 59.1083 236.688C59.507 236.703 59.8825 236.645 60.2348 236.513C60.5871 236.382 60.858 236.165 61.0516 235.859L61.0477 235.863ZM104.793 238.255C104.843 238.271 104.897 238.279 104.947 238.279C105.025 238.279 105.102 238.267 105.176 238.236C105.048 238.244 104.92 238.248 104.789 238.255H104.793ZM147.604 234.582C147.484 234.388 147.291 234.09 147.024 233.695C146.757 233.3 146.458 232.917 146.129 232.541C145.8 232.166 145.448 231.872 145.08 231.655C144.713 231.438 144.376 231.423 144.066 231.612C143.729 231.818 143.59 232.174 143.652 232.677C143.714 233.18 143.853 233.718 144.078 234.291C144.302 234.868 144.565 235.418 144.875 235.94C145.181 236.463 145.425 236.866 145.595 237.144C146.064 237.895 146.691 238.031 147.477 237.547C148.065 237.183 148.309 236.719 148.204 236.146C148.1 235.573 147.899 235.054 147.604 234.578V234.582ZM147.508 36.3133C147.868 35.7984 148.228 35.3067 148.595 34.8383C148.982 34.3428 149.373 33.8434 149.776 33.3479C150.101 32.9608 150.434 32.5814 150.775 32.2098C151.116 31.8381 151.476 31.3774 151.855 30.8355C152.192 30.3477 152.405 29.9219 152.494 29.5541C152.583 29.1863 152.316 28.7876 151.692 28.3656C151.22 28.0443 150.817 27.9901 150.488 28.2069C150.159 28.4237 149.85 28.7373 149.563 29.1476C149.106 29.8057 147.225 33.1737 147.213 33.5918C147.202 33.9712 147.213 34.3118 147.256 34.6138C147.295 34.9157 147.198 35.2371 146.966 35.5738C146.904 35.659 146.838 35.7326 146.76 35.7906C147.012 35.961 147.26 36.1429 147.508 36.3171V36.3133ZM142.587 14.8938C142.792 14.3867 142.777 13.8795 142.541 13.3647C142.305 12.8537 141.929 12.4936 141.422 12.2885C141.039 12.1336 140.721 12.2459 140.47 12.6253C140.218 13.0008 139.986 13.4537 139.769 13.9841C139.599 14.406 139.51 14.8009 139.51 15.1687C139.51 15.5364 139.761 15.8229 140.272 16.0281C140.76 16.2255 141.225 16.1945 141.662 15.939C142.099 15.6835 142.409 15.3351 142.587 14.8938ZM119.906 12.5053C119.952 12.2846 120.006 11.9284 120.064 11.4407C120.123 10.9529 120.134 10.4612 120.103 9.96573C120.068 9.47022 119.979 9.02116 119.832 8.61855C119.685 8.21594 119.441 7.97593 119.108 7.90624C118.729 7.82495 118.381 7.96044 118.071 8.31272C117.761 8.665 117.482 9.09084 117.235 9.58248C116.987 10.078 116.786 10.5813 116.627 11.0923C116.468 11.6071 116.367 11.9749 116.317 12.1956C116.259 12.4627 116.205 12.8188 116.158 13.2601C116.112 13.7015 116.104 14.1428 116.135 14.5802C116.17 15.0177 116.271 15.4125 116.441 15.7609C116.611 16.1094 116.886 16.3261 117.269 16.4074C117.629 16.4849 117.962 16.3687 118.276 16.0629C118.59 15.7571 118.849 15.3816 119.062 14.9402C119.275 14.4951 119.457 14.0421 119.604 13.5737C119.751 13.1053 119.852 12.7491 119.906 12.5053ZM101.533 13.7866C101.521 13.3763 101.336 13.0511 100.972 12.8111C100.608 12.5711 100.244 12.4549 99.8799 12.4665C99.3767 12.482 99.0167 12.5865 98.8037 12.7879C98.5908 12.9892 98.494 13.3492 98.5095 13.8718C98.525 14.348 98.6721 14.7312 98.9547 15.0215C99.2373 15.308 99.6322 15.4474 100.135 15.4319C100.592 15.4203 100.945 15.2422 101.188 14.9054C101.432 14.5686 101.545 14.197 101.533 13.7866ZM101.297 6.7952C101.289 6.59003 101.223 6.41583 101.092 6.27259C100.96 6.12936 100.797 6.01322 100.6 5.92805C100.403 5.84288 100.201 5.78094 99.9922 5.74223C99.7832 5.70352 99.6012 5.68416 99.4386 5.68804C99.0244 5.69965 98.7108 5.83514 98.4863 6.09064C98.2656 6.34614 98.1572 6.66745 98.1689 7.05458C98.1766 7.37202 98.2231 7.6972 98.3005 8.02238C98.3779 8.35143 98.6257 8.50628 99.036 8.49467C99.2412 8.48693 99.4773 8.44047 99.7367 8.35531C99.9961 8.26627 100.248 8.154 100.484 8.01077C100.72 7.86753 100.917 7.68946 101.072 7.48041C101.227 7.27136 101.301 7.04296 101.293 6.79133L101.297 6.7952ZM78.8553 18.3701C78.9676 18.3392 79.0063 18.1456 78.9792 17.7895C78.9521 17.4333 78.8902 16.9997 78.7973 16.4926C78.7044 15.9855 78.5689 15.4435 78.3985 14.8667C78.2243 14.2899 78.0424 13.7595 77.8488 13.2834C77.6553 12.8033 77.4578 12.4162 77.2565 12.1181C77.0552 11.82 76.8772 11.6923 76.7223 11.7349C76.4358 11.8123 76.2578 12.0678 76.1881 12.5014C76.1184 12.935 76.1184 13.4653 76.1881 14.0963C76.2578 14.7273 76.3816 15.4242 76.5558 16.1907C76.7339 16.9572 76.9236 17.712 77.1017 18.4669C77.1791 18.7999 77.2914 19.0592 77.4578 19.2373C77.6282 19.4154 77.8024 19.516 77.9882 19.5354C78.174 19.5547 78.3443 19.4734 78.5069 19.2876C78.6695 19.1018 78.7857 18.796 78.8592 18.3779L78.8553 18.3701ZM76.0487 24.1692C75.8513 24.2234 75.6887 24.3318 75.5687 24.4944C75.4487 24.657 75.3635 24.8506 75.3209 25.0751C75.2783 25.2996 75.2551 25.5358 75.2512 25.7835C75.2512 25.8493 75.2512 25.9113 75.2512 25.9732C78.5766 24.7809 81.9794 23.8092 85.4558 23.0737C85.4132 22.9692 85.3706 22.8685 85.328 22.7717C85.2003 22.4891 85.0454 22.2646 84.8557 22.1059C84.6699 21.9433 84.4183 21.9084 84.1086 21.9936L76.0448 24.1692H76.0487ZM45.0093 44.7951C42.1949 43.8815 38.9586 39.1818 37.3249 37.7688C37.2049 37.6643 36.9726 37.4243 36.601 37.0836C36.2293 36.743 35.8306 36.4139 35.4009 36.0965C34.9712 35.779 34.557 35.5158 34.1582 35.3145C33.7595 35.1093 33.4769 35.0861 33.3104 35.2409C33.1595 35.3803 33.1053 35.5661 33.1479 35.7906C33.1904 36.019 33.2872 36.2552 33.4421 36.4991C33.5969 36.7468 33.775 36.9907 33.9802 37.2385C34.1853 37.4862 34.3712 37.6992 34.5454 37.8811L35.8422 39.2438C36.4732 39.9057 38.1688 41.9652 38.8656 42.5304C39.5625 43.0956 40.3212 43.5873 41.1342 44.017C41.2813 44.0944 41.4865 44.2028 41.7574 44.3228C42.0284 44.4428 42.3188 44.5706 42.6207 44.7099C42.9266 44.8454 43.2014 44.9809 43.4492 45.1087C43.6969 45.2364 43.8673 45.3487 43.964 45.4493C44.0221 45.5113 44.0763 45.5732 44.1228 45.639C44.417 45.3564 44.7073 45.07 45.0054 44.7912L45.0093 44.7951ZM51.0871 39.5302C50.2277 39.0076 49.4147 38.3418 48.6443 37.5327C48.0946 36.9559 47.5449 36.3636 47.0029 35.7597C46.461 35.1558 45.9306 34.5518 45.4119 33.9402C45.2725 33.7582 45.1177 33.5647 44.9551 33.3595C44.7925 33.1543 44.5951 32.9143 44.3666 32.6433C44.1382 32.3724 43.8634 32.0588 43.5421 31.7026C43.2208 31.3465 42.822 30.9206 42.3497 30.4251C42.2065 30.278 42.0246 30.0883 41.7923 29.8677C41.5639 29.6431 41.3277 29.4457 41.08 29.2676C40.8322 29.0934 40.6 28.9618 40.3754 28.8728C40.1509 28.7876 39.9728 28.807 39.8373 28.9308C39.7057 29.0547 39.7096 29.3102 39.8528 29.6935C39.996 30.0767 40.1857 30.4832 40.4257 30.9168C40.6658 31.3503 40.9096 31.7568 41.1574 32.1323C41.4052 32.5078 41.5678 32.7556 41.6452 32.8717C42.0207 33.3634 42.4233 33.855 42.8569 34.3428C43.2904 34.8306 44.8041 36.7972 45.3383 37.3624C45.7487 37.7921 46.1823 38.214 46.6391 38.6321C47.0959 39.0463 47.5643 39.356 48.0211 39.5883C48.2998 39.7315 48.6095 39.8438 48.9734 39.8941C49.3373 39.9445 49.6276 40.0838 49.8483 40.3161C49.887 40.3587 49.9257 40.4013 49.9567 40.4438C50.3283 40.138 50.7038 39.8361 51.0793 39.538L51.0871 39.5302ZM26.0713 51.0045C25.8854 50.8729 25.5796 50.6832 25.1499 50.4355C24.7241 50.1877 24.275 49.9787 23.8027 49.8122C23.3304 49.6457 22.8814 49.549 22.4478 49.5219C22.0181 49.4948 21.7007 49.6186 21.4994 49.8974C21.271 50.2109 21.2593 50.5826 21.4606 51.0045C21.6619 51.4265 21.9407 51.8523 22.3007 52.2743C22.6569 52.6963 23.044 53.0834 23.4543 53.4318C23.8647 53.7802 24.1628 54.0202 24.3524 54.1518C24.577 54.3106 24.8828 54.5002 25.2738 54.7209C25.6648 54.9416 26.0674 55.1235 26.4855 55.2667C26.9036 55.41 27.3101 55.4758 27.701 55.4603C28.092 55.4448 28.4017 55.2784 28.6301 54.9648C28.8431 54.6706 28.8702 54.3183 28.7153 53.9118C28.5566 53.5053 28.3166 53.1182 27.9914 52.7466C27.6662 52.3749 27.3178 52.0304 26.9423 51.7091C26.5668 51.3878 26.2803 51.1516 26.0751 51.0084L26.0713 51.0045ZM17.3107 71.1658C17.361 71.0613 17.241 70.9065 16.9468 70.6897C16.6565 70.4768 16.2887 70.2367 15.8435 69.9774C15.3983 69.7141 14.8989 69.4586 14.3453 69.2109C13.7918 68.9593 13.2691 68.7502 12.7814 68.5799C12.2897 68.4095 11.8678 68.3011 11.5077 68.2586C11.1477 68.2121 10.9348 68.2624 10.8651 68.4057C10.7374 68.6728 10.8148 68.9747 11.0974 69.3115C11.38 69.6483 11.7826 69.9967 12.3091 70.3606C12.8356 70.7245 13.4433 71.0884 14.144 71.4601C14.8409 71.8278 15.5415 72.184 16.2306 72.544C16.5365 72.7027 16.8036 72.7918 17.0513 72.7801C17.2991 72.7724 17.4888 72.7027 17.6243 72.5788C17.7598 72.455 17.8101 72.2691 17.7752 72.0253C17.7404 71.7814 17.5856 71.4949 17.3146 71.162L17.3107 71.1658ZM19.8734 77.0733C19.7844 77.2591 19.7612 77.4488 19.8076 77.6463C19.8502 77.8437 19.9431 78.0334 20.0864 78.2153C20.2296 78.3973 20.3922 78.5676 20.578 78.7341C20.729 78.8657 20.88 78.9896 21.0271 79.1057C22.4904 75.819 24.0892 72.6292 25.8196 69.5554C25.5022 69.4161 25.1964 69.3038 24.9022 69.2147C24.6041 69.1218 24.3292 69.0947 24.0853 69.1296C23.8414 69.1644 23.6479 69.327 23.5085 69.6135L19.8696 77.0772L19.8734 77.0733ZM180.378 75.8655C180.936 75.6023 181.481 75.3584 182.023 75.1338C182.608 74.8938 183.196 74.6538 183.796 74.4215C184.269 74.2435 184.749 74.0809 185.233 73.9221C185.716 73.7673 186.258 73.5466 186.858 73.2602C187.249 73.0744 187.664 72.846 188.09 72.575C188.519 72.3079 188.74 72.0562 188.755 71.8201C188.74 71.5762 188.643 71.3517 188.465 71.1426C188.287 70.9374 188.07 70.7632 187.811 70.62C187.551 70.4806 187.273 70.3645 186.979 70.2793C186.684 70.1942 186.421 70.1555 186.197 70.1593C185.662 70.1593 185.093 70.3451 184.482 70.7129C183.87 71.0807 182.17 72.1182 181.687 72.8034C181.447 73.144 181.222 73.4692 181.009 73.7712C180.8 74.0731 180.486 74.3248 180.076 74.5222C179.972 74.5725 179.871 74.6074 179.774 74.6306C179.975 75.0371 180.181 75.4474 180.378 75.8578V75.8655ZM169.763 35.7132C169.384 36.0771 169.248 36.4797 169.361 36.9249C169.473 37.3701 169.69 37.7572 170.007 38.0824C170.406 38.4927 170.746 38.6786 171.029 38.6476C171.312 38.6128 171.645 38.4153 172.028 38.0514C172.407 37.6875 172.609 37.3624 172.632 37.0759C172.655 36.7855 172.481 36.4526 172.117 36.0771C171.799 35.7481 171.424 35.5158 170.986 35.3803C170.553 35.2448 170.143 35.3571 169.763 35.7171V35.7132ZM160.325 47.1759C160.31 47.1062 160.298 47.0404 160.286 46.9707C160.213 46.5023 160.352 46.1036 160.701 45.7706C160.999 45.488 161.32 45.3758 161.668 45.4416C162.017 45.5035 162.369 45.5113 162.725 45.4493C163.05 45.3951 163.333 45.3293 163.569 45.2596C163.805 45.1938 164.951 44.4544 165.315 44.1873C165.679 43.9202 166.016 43.6453 166.329 43.3627C166.643 43.0801 166.914 42.8285 167.146 42.6079C167.475 42.2943 167.653 42.0233 167.673 41.7988C167.692 41.5742 167.537 41.2878 167.204 40.9432C166.933 40.6645 166.628 40.5368 166.287 40.5639C165.946 40.591 165.613 40.6877 165.284 40.8581C164.955 41.0284 164.645 41.2413 164.347 41.4929C164.049 41.7446 163.802 41.9652 163.604 42.1549C163.074 42.6582 162.466 43.3124 161.777 44.1099C161.208 44.7719 160.472 45.5384 159.57 46.4171C159.822 46.6688 160.074 46.9204 160.325 47.1759ZM155.118 42.2788C155.982 42.1317 156.74 41.7407 157.399 41.1136C158.177 40.3742 158.804 39.7238 159.288 39.1741C159.768 38.6205 160.348 38.0205 161.026 37.374C161.289 37.1223 161.618 36.8862 162.013 36.6694C162.408 36.4526 162.818 36.2784 163.252 36.1507C163.685 36.0229 164.115 35.9494 164.545 35.9339C164.974 35.9184 165.373 35.9881 165.745 36.139C165.362 35.117 165.242 34.1415 165.389 33.2124C165.536 32.2833 166.016 31.4316 166.825 30.6574C167.619 29.9025 168.462 29.4573 169.357 29.3334C170.251 29.2057 171.137 29.2754 172.016 29.5425C172.895 29.8096 173.743 30.2316 174.556 30.8122C175.373 31.3929 176.089 32.0007 176.708 32.6395L177.591 33.5492C177.939 33.9092 178.334 34.3389 178.768 34.8383C179.205 35.3377 179.577 35.8564 179.89 36.3946C180.204 36.9326 180.397 37.4514 180.467 37.9508C180.537 38.4502 180.394 38.876 180.03 39.2205C179.732 39.5031 179.294 39.7161 178.717 39.8593C178.141 40.0025 177.645 40.1729 177.235 40.3742C176.464 40.7613 175.736 41.2181 175.055 41.7407C174.37 42.2672 173.716 42.8285 173.089 43.4286C171.172 45.2558 168.695 47.625 167.34 49.3786C167.046 49.7619 166.755 50.1567 166.488 50.5671C166.221 50.9813 165.911 51.3529 165.567 51.682C165.319 51.9181 165.064 52.0265 164.808 52.0033H164.793C166.012 53.4124 167.2 54.8603 168.354 56.3507C168.408 56.3662 168.462 56.3817 168.521 56.3933C168.9 56.4862 169.341 56.5094 169.841 56.4552C170.495 56.3817 171.18 56.192 171.9 55.9016C172.62 55.6074 173.34 55.2551 174.064 54.8487C174.784 54.4422 175.493 54.0009 176.182 53.5324C176.871 53.064 177.513 52.615 178.11 52.1853C178.648 51.7981 179.228 51.3646 179.855 50.8845C180.483 50.4045 181.079 49.9245 181.648 49.4444C182.217 48.9644 182.728 48.5037 183.185 48.0624C183.642 47.6211 183.971 47.2456 184.164 46.9359C184.389 46.5797 184.571 46.2003 184.714 45.8016C184.861 45.4029 185.12 45.0661 185.488 44.799C185.728 44.6248 185.972 44.5319 186.22 44.5241C186.467 44.5125 186.715 44.5628 186.959 44.6635C187.207 44.768 187.431 44.8996 187.633 45.0622C187.838 45.2248 188.039 45.3835 188.217 45.5693C188.647 46.0184 189.046 46.5062 189.441 47.0094C189.835 47.5127 190.223 48.0198 190.598 48.5347L191.891 50.3C192.348 50.9271 192.75 51.5233 193.095 52.0885C193.44 52.6575 193.652 53.2073 193.73 53.7415C193.807 54.2757 193.707 54.8061 193.428 55.3326C193.145 55.859 192.615 56.401 191.837 56.9623C191.705 57.0552 191.558 57.1714 191.388 57.3069C191.217 57.4424 191.024 57.5895 190.799 57.7521C190.428 58.0192 190.033 58.2824 189.615 58.5418C189.197 58.8012 188.779 59.0063 188.361 59.1496C187.942 59.2967 187.555 59.3586 187.199 59.3315C186.843 59.3083 186.557 59.1496 186.34 58.8554C186.138 58.5805 186.077 58.294 186.158 57.996C186.239 57.6979 186.39 57.392 186.611 57.0785C186.835 56.7649 187.091 56.4359 187.381 56.0991C187.671 55.7623 187.923 55.4255 188.132 55.0925C188.341 54.7596 188.477 54.4306 188.535 54.1054C188.597 53.7802 188.512 53.4628 188.283 53.1492C188.028 52.8008 187.702 52.6188 187.311 52.6072C186.92 52.5956 186.51 52.6653 186.084 52.8163C185.658 52.9672 185.244 53.1763 184.842 53.4395C184.439 53.7028 184.098 53.935 183.82 54.1325L174.978 60.4619C174.161 61.0465 173.329 61.5033 172.485 61.8168C172.438 61.8362 172.388 61.8517 172.341 61.8672C173.642 63.7912 174.889 65.7655 176.077 67.7901C176.182 67.6198 176.333 67.4843 176.542 67.3837C176.894 67.2172 177.277 67.1204 177.699 67.0972C178.121 67.074 178.532 67.0236 178.93 66.9617C180.215 66.772 182.616 65.932 183.823 65.4597C185.031 64.9835 186.317 64.4222 187.679 63.7679C188.465 63.3924 189.243 63.0014 190.01 62.595C190.78 62.1885 191.527 61.7356 192.251 61.24C192.739 60.88 193.203 60.5006 193.645 60.1019C194.086 59.7032 194.578 59.3741 195.112 59.1147C195.402 58.9754 195.696 58.9947 195.995 59.1651C196.293 59.3393 196.579 59.5677 196.846 59.858C197.113 60.1483 197.346 60.458 197.547 60.791C197.748 61.1239 197.895 61.3949 197.996 61.6001L198.116 61.8478C198.224 62.0723 198.341 62.3395 198.464 62.6453C198.588 62.9511 198.681 63.2608 198.743 63.5744C198.805 63.8841 198.805 64.1705 198.739 64.4299C198.673 64.6893 198.507 64.8829 198.24 65.0106C197.95 65.15 197.744 65.1964 197.624 65.1538C197.5 65.1113 197.303 65.0687 197.028 65.0222C196.792 65.0067 196.533 65.0338 196.242 65.0958C195.956 65.1577 195.65 65.239 195.333 65.3435C195.015 65.4442 194.705 65.5603 194.411 65.6881C194.117 65.8158 193.846 65.9397 193.598 66.0558C193.412 66.1449 193.18 66.2688 192.901 66.4275C192.623 66.5862 192.375 66.7681 192.154 66.9733C191.938 67.1785 191.767 67.3837 191.651 67.5927C191.535 67.7979 191.562 67.9992 191.736 68.1966C192.139 68.6612 192.522 68.9515 192.886 69.0676C193.25 69.1838 193.602 69.2109 193.954 69.1451C194.601 69.0134 195.166 68.7696 195.642 68.4134C196.118 68.0611 196.525 67.6895 196.858 67.3024C197.191 66.9152 197.462 66.5513 197.667 66.2146C197.872 65.8778 198.05 65.6571 198.209 65.5603C198.499 65.3706 198.778 65.3126 199.041 65.39C199.308 65.4635 199.552 65.6145 199.773 65.8352C199.994 66.0558 200.199 66.3191 200.385 66.621C200.57 66.923 200.733 67.2172 200.872 67.5075L201.321 68.4289C201.422 68.6341 201.55 68.9399 201.708 69.3425C201.867 69.7451 201.995 70.1671 202.088 70.6006C202.185 71.0342 202.208 71.4407 202.161 71.8162C202.115 72.1917 201.937 72.455 201.627 72.6021C200.625 73.1053 199.75 73.5041 199.003 73.7983C198.255 74.0925 197.566 74.3248 196.939 74.499C196.312 74.6732 195.712 74.828 195.139 74.9596C194.566 75.0951 193.97 75.2539 193.347 75.4358C192.723 75.6216 192.034 75.8616 191.276 76.1597C190.517 76.4578 189.654 76.8643 188.682 77.3792C188.248 77.5882 187.733 77.8476 187.133 78.1573C186.533 78.467 185.949 78.8192 185.372 79.2064C184.799 79.5935 184.28 80.0116 183.823 80.4568C183.44 80.8284 183.161 81.2233 182.987 81.6375C189.046 96.1623 192.452 112.534 192.452 129.854C192.452 169.588 174.525 204.328 147.786 223.216C147.937 223.374 148.077 223.553 148.201 223.75C149.207 225.364 150.155 226.994 151.05 228.643C151.94 230.288 152.892 231.922 153.899 233.536C154.387 234.315 154.994 235.259 155.726 236.37C156.458 237.481 157.279 238.612 158.192 239.765C159.106 240.919 160.077 242.026 161.107 243.087C162.137 244.147 163.186 245.034 164.251 245.746C165.315 246.459 166.376 246.915 167.433 247.113C168.49 247.31 169.508 247.113 170.487 246.505C171.215 246.056 171.865 245.87 172.434 245.944C173.003 246.017 173.514 246.416 173.967 247.14C174.316 247.697 174.32 248.282 173.983 248.894C173.646 249.505 173.162 250.101 172.535 250.678C171.908 251.259 171.238 251.785 170.526 252.261C169.814 252.738 169.26 253.098 168.869 253.338C167.944 253.907 166.976 254.425 165.966 254.89C164.955 255.355 163.968 255.637 163 255.73C162.032 255.827 161.096 255.68 160.194 255.289C159.292 254.902 158.482 254.135 157.77 252.993C156.988 251.739 156.334 250.43 155.807 249.056C155.281 247.686 154.627 246.373 153.845 245.119C153.705 244.895 153.535 244.655 153.334 244.395C153.132 244.136 152.916 243.911 152.683 243.725C152.451 243.54 152.196 243.427 151.921 243.385C151.642 243.342 151.348 243.42 151.042 243.609C150.539 243.919 150.248 244.345 150.183 244.891C150.113 245.433 150.225 245.94 150.523 246.416C151.096 247.333 151.82 248.123 152.695 248.777C152.854 248.909 153.055 249.044 153.299 249.188C153.543 249.327 153.791 249.482 154.054 249.648C154.313 249.815 154.549 249.977 154.766 250.136C154.979 250.295 155.142 250.454 155.242 250.624C155.536 251.096 155.591 251.572 155.405 252.052C155.219 252.532 154.921 252.985 154.507 253.411C154.092 253.837 153.647 254.228 153.171 254.58C152.691 254.933 152.3 255.204 151.99 255.393C151.681 255.583 151.282 255.811 150.786 256.075C150.291 256.338 149.788 256.555 149.269 256.717C148.75 256.88 148.251 256.95 147.767 256.919C147.283 256.888 146.9 256.651 146.625 256.206C146.486 255.982 146.338 255.641 146.187 255.176C146.033 254.712 145.882 254.22 145.731 253.698C145.58 253.175 145.444 252.66 145.324 252.157C145.204 251.654 145.107 251.251 145.034 250.949C144.573 249.153 144.043 247.295 143.443 245.371C142.843 243.447 142.049 241.693 141.058 240.106C140.535 239.27 140.079 238.569 139.688 238.004C139.297 237.435 138.948 236.959 138.646 236.564C138.344 236.173 138.054 235.848 137.779 235.596C137.504 235.34 137.222 235.108 136.939 234.899C136.606 234.678 136.293 234.489 135.998 234.322C135.7 234.16 135.414 233.989 135.131 233.815C134.849 233.641 134.578 233.443 134.322 233.215C134.063 232.987 133.823 232.692 133.598 232.332C133.428 232.061 133.304 231.79 133.23 231.523C132.476 231.86 131.717 232.185 130.95 232.499C131.55 233.107 132.015 234.001 132.348 235.182L134.357 242.324C134.454 242.672 134.57 243.141 134.702 243.733C134.833 244.325 134.907 244.918 134.918 245.51C134.93 246.102 134.841 246.637 134.651 247.113C134.462 247.589 134.094 247.902 133.556 248.053C132.952 248.22 132.441 248.143 132.023 247.813C131.605 247.488 131.252 247.024 130.966 246.424C130.675 245.824 130.424 245.162 130.203 244.442C129.983 243.722 129.754 243.052 129.51 242.44C129.27 241.829 129.003 241.341 128.713 240.977C128.422 240.617 128.055 240.497 127.609 240.621C127.354 240.69 127.207 240.961 127.168 241.43C127.129 241.898 127.168 242.51 127.296 243.257C127.42 244.004 127.598 244.856 127.834 245.812C128.07 246.768 128.333 247.763 128.624 248.804C128.856 249.625 129.127 250.473 129.444 251.356C129.762 252.238 130.137 253.094 130.579 253.922C131.016 254.751 131.523 255.521 132.1 256.229C132.677 256.938 133.35 257.507 134.121 257.937C134.527 258.165 134.907 258.382 135.255 258.591C135.604 258.8 135.847 259.141 135.979 259.613C136.13 260.151 136.076 260.631 135.82 261.061C135.565 261.49 135.197 261.862 134.721 262.18C134.245 262.497 133.703 262.768 133.099 262.985C132.491 263.205 131.903 263.391 131.33 263.55L127.517 264.607C127.102 264.723 126.638 264.831 126.119 264.944C125.6 265.052 125.105 265.087 124.633 265.048C124.16 265.009 123.727 264.874 123.336 264.642C122.945 264.409 122.67 264.011 122.511 263.442C122.43 263.159 122.403 262.756 122.43 262.241C122.457 261.723 122.499 261.177 122.558 260.6C122.619 260.023 122.681 259.462 122.751 258.916C122.821 258.37 122.859 257.925 122.863 257.584C122.956 255.962 122.921 254.383 122.763 252.846C122.604 251.309 122.306 249.753 121.861 248.177C121.419 246.602 121.001 245.305 120.614 244.291C120.227 243.276 119.859 242.816 119.507 242.912C119.093 243.029 118.837 243.389 118.733 243.993C118.628 244.6 118.601 245.262 118.648 245.979C118.694 246.695 118.783 247.403 118.911 248.1C119.039 248.797 119.124 249.288 119.174 249.583C119.271 250.167 119.205 250.721 118.973 251.243C118.744 251.766 118.311 252.114 117.676 252.292C117.103 252.451 116.6 252.393 116.166 252.126C115.729 251.855 115.353 251.483 115.032 251.011C114.711 250.539 114.44 250.028 114.215 249.478C113.991 248.928 113.824 248.448 113.708 248.038L111.819 241.321C111.482 240.121 111.49 238.999 111.846 237.95C111.888 237.83 111.935 237.713 111.989 237.601C111.292 237.698 110.595 237.783 109.899 237.861C110.011 238.104 110.1 238.364 110.174 238.646C110.332 239.258 110.429 239.885 110.472 240.524C110.514 241.163 110.526 241.681 110.51 242.072C110.491 242.595 110.444 243.323 110.375 244.256C110.305 245.189 110.154 246.098 109.922 246.989C109.69 247.879 109.345 248.654 108.888 249.308C108.435 249.962 107.812 250.276 107.018 250.245C106.097 250.21 105.447 249.873 105.075 249.234C104.703 248.599 104.409 247.891 104.192 247.113C103.976 246.335 103.755 245.63 103.53 244.999C103.306 244.368 102.884 244.039 102.257 244.016C101.696 243.993 101.266 244.205 100.968 244.655C100.67 245.104 100.434 245.634 100.263 246.249C100.089 246.865 99.9845 247.492 99.9419 248.131C99.8993 248.77 99.8722 249.265 99.8567 249.625C99.8335 250.248 99.8528 251.034 99.9148 251.987C99.9767 252.939 100.132 253.864 100.375 254.758C100.619 255.653 101.003 256.431 101.521 257.089C102.04 257.747 102.745 258.095 103.635 258.13C104.196 258.153 104.723 257.983 105.214 257.627C105.706 257.271 105.965 256.795 105.989 256.206C106 255.943 105.911 255.664 105.725 255.362C105.54 255.06 105.28 254.902 104.951 254.89C104.82 254.886 104.696 254.906 104.576 254.948C104.46 254.995 104.336 255.014 104.2 255.006C103.836 254.991 103.538 254.84 103.302 254.553C103.066 254.267 102.954 253.942 102.969 253.582C103.004 252.73 103.329 252.021 103.945 251.456C104.56 250.891 105.3 250.624 106.155 250.655C107.142 250.694 107.951 250.938 108.579 251.387C109.206 251.836 109.686 252.412 110.023 253.113C110.359 253.814 110.576 254.584 110.677 255.424C110.777 256.264 110.808 257.093 110.777 257.91C110.719 259.381 110.46 260.763 109.995 262.056C109.531 263.349 108.869 264.471 108.006 265.42C107.142 266.368 106.097 267.108 104.874 267.634C103.647 268.161 102.245 268.393 100.662 268.331C98.6179 268.253 96.9804 267.708 95.7493 266.693C94.5183 265.679 93.5853 264.413 92.9505 262.9C92.3156 261.386 91.9168 259.741 91.7581 257.964C91.5955 256.187 91.5452 254.499 91.611 252.896C91.6575 251.72 91.7659 250.396 91.9401 248.928C92.1143 247.461 92.4007 246.013 92.8033 244.589C93.2059 243.164 93.7441 241.825 94.4215 240.57C94.9286 239.634 95.5403 238.828 96.2603 238.155C93.7208 237.984 91.2084 237.686 88.727 237.272C88.8663 237.698 88.8547 238.197 88.696 238.774L88.1463 240.764C87.9721 241.395 87.7862 242.034 87.5927 242.676C87.3991 243.319 87.1978 243.954 86.9888 244.573C86.8494 245.077 86.5978 245.518 86.2378 245.897C85.8777 246.273 85.3783 246.377 84.7435 246.203C84.1705 246.048 83.7834 245.688 83.5782 245.123C83.3769 244.558 83.195 243.95 83.0324 243.292C82.8698 242.638 82.6646 242.022 82.413 241.441C82.1614 240.865 81.6852 240.481 80.9884 240.288C80.6051 240.183 80.2412 240.203 79.8928 240.346C79.5444 240.489 79.2386 240.702 78.9715 240.985C78.7044 241.267 78.476 241.596 78.2901 241.972C78.1005 242.343 77.965 242.688 77.8759 243.005C77.8333 243.164 77.7908 243.373 77.752 243.633C77.7133 243.892 77.6901 244.159 77.6862 244.43C77.6785 244.701 77.7211 244.949 77.814 245.177C77.903 245.406 78.0772 245.553 78.3327 245.622C78.5573 245.684 78.7818 245.634 79.0141 245.475C79.2463 245.316 79.4864 245.127 79.7341 244.906C79.9819 244.686 80.249 244.504 80.5277 244.356C80.8064 244.213 81.12 244.186 81.4723 244.283C81.9175 244.403 82.2078 244.678 82.3472 245.107C82.4865 245.537 82.5524 246.013 82.5407 246.536C82.533 247.059 82.4672 247.577 82.3433 248.084C82.2194 248.595 82.1188 248.99 82.0414 249.277C81.9368 249.656 81.7742 250.156 81.5497 250.771C81.3291 251.39 81.0426 251.99 80.6903 252.575C80.3419 253.16 79.9432 253.636 79.498 254.007C79.0528 254.379 78.5611 254.491 78.0192 254.344C77.4462 254.189 77.0823 253.895 76.9275 253.462C76.7726 253.028 76.6913 252.583 76.6836 252.122C76.6758 251.661 76.672 251.236 76.6758 250.848C76.6797 250.457 76.5404 250.225 76.2539 250.148C76.0642 250.097 75.921 250.148 75.8242 250.31C75.7274 250.473 75.65 250.663 75.588 250.883C75.4293 251.452 75.3132 252.029 75.2358 252.622C75.1583 253.21 75.1583 253.764 75.2358 254.278C75.317 254.793 75.499 255.25 75.7816 255.649C76.0642 256.048 76.4745 256.322 77.0165 256.469C77.8759 256.702 78.6463 256.609 79.3276 256.183C80.009 255.757 80.6206 255.246 81.1626 254.646C81.7046 254.046 82.2117 253.508 82.6879 253.024C83.164 252.544 83.6402 252.366 84.1163 252.498C84.306 252.548 84.4996 252.629 84.6931 252.73C84.8867 252.834 85.0415 252.985 85.1577 253.187C85.328 253.438 85.4132 253.783 85.4093 254.224C85.4093 254.666 85.3667 255.146 85.2932 255.668C85.2158 256.191 85.1112 256.721 84.9796 257.263C84.848 257.805 84.7202 258.297 84.5964 258.738C84.3525 259.621 84.0466 260.507 83.6828 261.394C83.3189 262.28 82.8659 263.047 82.3278 263.697C81.7897 264.347 81.1277 264.82 80.3458 265.118C79.5638 265.412 78.6308 265.416 77.5469 265.118L66.6184 262.141C65.9835 261.967 65.4725 261.607 65.0932 261.065C64.7138 260.519 64.617 259.915 64.7989 259.253C64.9035 258.874 65.0699 258.521 65.2983 258.192C65.5267 257.863 65.7358 257.538 65.9255 257.217C66.3668 256.489 66.781 255.734 67.1643 254.956C67.8379 253.508 68.4108 252.021 68.8869 250.485C69.3631 248.952 69.816 247.411 70.2419 245.862C70.5632 244.693 70.8497 243.516 71.0935 242.324C71.3374 241.136 71.5194 239.943 71.6433 238.755C71.7517 237.868 71.8213 236.962 71.8562 236.037C71.891 235.112 72.0226 234.225 72.2588 233.37C72.3285 233.118 72.4252 232.902 72.5452 232.723C71.4265 232.278 70.3193 231.806 69.2238 231.31C69.2392 231.349 69.2547 231.388 69.2702 231.423C70.2458 233.714 70.0715 235.921 68.7515 238.035C67.9192 239.37 66.8197 240.276 65.4571 240.748C64.0944 241.221 62.6736 241.271 61.1987 240.903C62.1975 242.285 62.7549 243.803 62.8711 245.452C62.9872 247.101 62.5846 248.665 61.6633 250.14C60.7961 251.534 59.7431 252.579 58.5082 253.283C57.2733 253.988 55.9493 254.418 54.5363 254.569C53.1233 254.72 51.6871 254.607 50.2354 254.236C48.7798 253.86 47.421 253.287 46.159 252.513L42.6672 250.368C42.191 250.074 41.7381 249.73 41.3084 249.331C40.8787 248.932 40.538 248.499 40.2825 248.038C40.027 247.573 39.9031 247.074 39.9109 246.536C39.9147 246.002 40.0928 245.452 40.4374 244.895C40.5767 244.67 40.778 244.411 41.0413 244.113C41.3045 243.814 41.5949 243.509 41.9046 243.199C42.2142 242.889 42.5123 242.58 42.7988 242.278C43.0853 241.972 43.3369 241.712 43.5498 241.496C44.475 240.447 45.3345 239.366 46.1242 238.255C46.9139 237.144 47.6765 236.002 48.4043 234.833C49.1515 233.637 49.8289 232.394 50.4328 231.113C51.0406 229.832 51.54 228.5 51.931 227.126C52.0123 226.87 52.0936 226.522 52.171 226.088C52.2485 225.655 52.3336 225.206 52.4265 224.745C52.5194 224.284 52.624 223.854 52.7324 223.46C52.8407 223.065 52.9569 222.771 53.0808 222.577C53.2163 222.36 53.3556 222.186 53.5027 222.05C27.6623 202.915 10.4509 168.783 10.4509 129.85C10.4509 112.812 13.7492 96.6927 19.6218 82.3459C19.4399 82.284 19.285 82.222 19.1534 82.1601L15.8358 80.5845C15.3596 80.36 15.0073 80.0077 14.7789 79.5354C14.5505 79.0593 14.5428 78.4708 14.7557 77.7663C13.9505 76.9069 13.0446 76.0591 12.0342 75.2268C11.0238 74.3944 9.95925 73.597 8.84047 72.8382C7.72168 72.0795 6.57968 71.3749 5.41831 70.7206C4.25694 70.0703 3.11881 69.478 2.00389 68.9476C1.55096 68.7309 1.23739 68.456 1.06706 68.1231C0.904468 67.8134 0.81543 67.4533 0.81543 67.0623C0.81543 66.6714 0.877369 66.2726 1.00899 65.87C1.14061 65.4674 1.29546 65.0803 1.47354 64.7086L3.22333 61.0774C3.42076 60.6671 3.74207 60.3845 4.18339 60.2296C4.62858 60.0748 5.05442 60.0942 5.46864 60.2916C5.82092 60.4581 6.16545 60.6594 6.50999 60.8994C6.85066 61.1394 7.18359 61.3678 7.52038 61.5691C8.20946 61.9833 8.88305 62.3162 9.5218 62.595C10.1606 62.8737 10.807 63.1176 11.4574 63.3266C12.1078 63.5357 12.7581 63.7099 13.4124 63.857C14.0666 64.0041 14.7325 64.1667 15.4138 64.3331C15.7312 64.4106 16.1067 64.4919 16.5326 64.5809C16.9584 64.6699 17.4075 64.7706 17.8759 64.879C18.3443 64.9874 18.8011 65.119 19.2502 65.2661C19.6992 65.4171 20.1096 65.5797 20.4812 65.7578C20.8877 65.0183 21.3174 64.6041 21.7665 64.5151C22.2155 64.426 22.711 64.5073 23.2491 64.7628L26.7526 66.4275C26.9191 66.5049 27.132 66.621 27.3875 66.7681L27.4184 66.7875C28.4366 65.0919 29.5012 63.4311 30.5967 61.8091C29.9038 61.9175 29.1915 61.9098 28.4676 61.7897C27.3875 61.6078 26.3152 61.2439 25.2544 60.7019C24.1937 60.16 23.2259 59.5754 22.351 58.9521C21.8284 58.5805 21.2903 58.1624 20.7367 57.7017C20.1831 57.2372 19.6528 56.7494 19.1495 56.2384C18.6463 55.7274 18.174 55.1971 17.7404 54.6474C17.303 54.0976 16.9313 53.5324 16.6177 52.9479C16.3081 53.064 15.9713 53.1105 15.6074 53.0911C15.2435 53.0679 14.9183 52.9595 14.6396 52.7621C14.1905 52.4446 13.9621 52.0072 13.9543 51.4575C13.9427 50.9039 14.0511 50.3271 14.2718 49.7309C14.4924 49.1309 14.7712 48.5618 15.108 48.0159C15.4448 47.4701 15.7274 47.0404 15.9519 46.7268C16.8732 45.4493 17.8914 44.6286 19.0024 44.257C20.1173 43.8854 21.2671 43.8041 22.4594 44.0092C23.6518 44.2144 24.8325 44.6286 26.0055 45.2519C27.1784 45.8752 28.274 46.5526 29.2999 47.2804C30.2135 47.9308 31.1426 48.7089 32.091 49.6225C33.0395 50.5361 33.8176 51.5271 34.4215 52.6033C34.9093 53.4705 35.2267 54.3686 35.3738 55.2938C36.4887 53.8925 37.6346 52.5221 38.8076 51.1942C38.734 51.1555 38.6682 51.1013 38.6063 51.0355C38.4476 50.869 38.285 50.6561 38.1146 50.3929C37.9443 50.1296 37.7701 49.8548 37.592 49.5683C37.4139 49.2818 37.2475 48.9992 37.0926 48.7205C36.9378 48.4418 36.7868 48.2018 36.6513 47.985C36.1364 47.1527 35.6022 46.3552 35.0409 45.5964C34.4796 44.8415 32.8343 42.6698 32.1723 41.9768C31.7774 41.5626 31.3981 41.1561 31.0264 40.7497C30.6587 40.3432 30.2832 39.9445 29.9038 39.5457C29.4934 39.116 29.0753 38.694 28.6495 38.2798C28.2237 37.8656 27.7707 37.4746 27.2984 37.1069C26.9191 36.8049 26.4777 36.5378 25.9822 36.2978C25.4867 36.0578 25.0647 35.7558 24.7202 35.3919C24.515 35.1751 24.4144 34.9428 24.4105 34.6951C24.4105 34.4473 24.4647 34.1957 24.577 33.9518C24.6892 33.704 24.8363 33.4718 25.0222 33.2511C25.208 33.0305 25.3822 32.8446 25.5487 32.6859L28.9476 29.4999C29.6483 28.8457 30.3064 28.5592 30.9296 28.6521C31.5529 28.7411 32.211 29.0392 32.9117 29.5425C33.0085 29.6083 33.175 29.736 33.4111 29.918C33.6472 30.0999 33.9027 30.2858 34.1737 30.4716C34.4447 30.6574 34.7041 30.7968 34.9518 30.8935C35.1996 30.9903 35.3738 30.9903 35.4745 30.8935C35.5751 30.8006 35.5674 30.5877 35.4551 30.2548C35.3428 29.9219 35.1919 29.5618 34.9983 29.1786C34.8047 28.7953 34.6228 28.4353 34.4447 28.1024C34.2666 27.7656 34.1466 27.5527 34.0847 27.452C33.6705 26.6507 33.5234 25.9848 33.6434 25.4467C33.7634 24.9125 34.1505 24.3396 34.8009 23.7279C35.1996 23.3524 35.6022 22.9846 36.0009 22.6285C36.3997 22.2685 36.7907 21.9123 37.1739 21.5523C37.3404 21.3974 37.5649 21.1923 37.8475 20.9445C38.1301 20.6968 38.4282 20.4529 38.7456 20.2206C39.0592 19.9883 39.3766 19.7909 39.698 19.6322C40.0193 19.4734 40.3096 19.396 40.569 19.4038C40.8284 19.4115 41.0839 19.547 41.3355 19.8102C41.5716 20.058 41.7613 20.4142 41.9007 20.8748C42.04 21.3394 42.1871 21.7304 42.342 22.0594C42.5859 22.582 42.9227 23.1511 43.3524 23.7666C43.7821 24.3822 44.2389 24.9861 44.7228 25.5784C45.2067 26.1707 45.6983 26.7436 46.1939 27.2972C46.6894 27.8508 47.1346 28.3347 47.5256 28.745L49.558 30.8781C50.2509 31.6059 50.9942 32.2794 51.7878 32.895C52.5814 33.5144 53.4059 33.975 54.2654 34.2809C55.1248 34.5867 56.0035 34.6641 56.8978 34.5131C57.7959 34.3622 58.6902 33.8628 59.5922 33.0188C60.0606 32.5814 60.5135 32.3298 60.951 32.2601C61.1523 32.2291 61.3613 32.2601 61.5704 32.3453C64.8648 30.429 68.2676 28.745 71.771 27.3049C71.7284 27.1927 71.6936 27.092 71.6704 26.9952L70.6909 23.4763C70.5516 22.973 70.5864 22.4775 70.7955 21.9975C71.0045 21.5136 71.4497 21.1226 72.1272 20.8168C72.2549 19.6477 72.3014 18.4127 72.2704 17.112C72.2394 15.8113 72.1465 14.4912 71.9878 13.1517C71.8291 11.8162 71.6162 10.4961 71.349 9.2031C71.0819 7.90624 70.7839 6.66745 70.4548 5.48286C70.3193 4.99896 70.3232 4.58474 70.4664 4.2402C70.6096 3.89566 70.8264 3.59371 71.1245 3.33433C71.4226 3.07496 71.7671 2.86205 72.1581 2.69558C72.553 2.52912 72.9479 2.38976 73.3466 2.28136L77.2565 1.20903C77.6979 1.08903 78.1237 1.14322 78.534 1.37163C78.9444 1.60003 79.2076 1.93682 79.3315 2.37427C79.436 2.74591 79.5096 3.14077 79.5522 3.55112C79.5947 3.96534 79.6412 4.36408 79.707 4.74733C79.8464 5.53319 80.0322 6.25711 80.2412 6.91908C80.4503 7.58106 80.6864 8.22369 80.9574 8.84695C81.2245 9.47022 81.5187 10.0741 81.8362 10.6587C82.1536 11.2432 82.4672 11.851 82.7885 12.4704C82.9395 12.7608 83.1214 13.0937 83.3343 13.4692C83.5473 13.8486 83.7641 14.2473 83.9886 14.6693C84.2131 15.0912 84.4144 15.5209 84.5964 15.9545C84.7783 16.3881 84.9215 16.8023 85.0338 17.1972C85.8623 17.0152 86.4584 17.0655 86.8223 17.3443C87.1862 17.623 87.4456 18.045 87.6043 18.6179L88.6418 22.3343C88.6534 22.3769 88.665 22.4194 88.6766 22.4698C90.4225 22.1756 92.1878 21.9433 93.9647 21.7691L93.9337 21.7536C93.6086 21.5794 93.3414 21.3394 93.1401 21.0258C92.935 20.7122 92.8266 20.329 92.815 19.8761C92.8111 19.6941 92.8266 19.4657 92.8653 19.1908C92.904 18.916 92.9505 18.6295 93.0124 18.3314C93.0743 18.0334 93.1285 17.743 93.175 17.4565C93.2253 17.1701 93.2795 16.9262 93.3066 16.7171C93.4498 15.7571 93.5195 14.8048 93.5505 13.8602C93.5815 12.9156 93.5815 11.9633 93.5505 11.011C93.5234 10.0315 93.4382 9.056 93.295 8.08432C93.1518 7.10877 92.9234 6.14871 92.6253 5.20026C92.5672 5.02219 92.4859 4.78991 92.3659 4.50731C92.242 4.22471 92.1181 3.93437 91.9981 3.62855C91.8743 3.32659 91.7697 3.03625 91.6807 2.76526C91.5917 2.49428 91.5452 2.28136 91.5413 2.11877C91.5297 1.66584 91.6459 1.3484 91.8936 1.17032C92.1414 0.992247 92.4588 0.829655 92.8421 0.682549C93.1595 0.55867 93.5621 0.458018 94.0537 0.376723C94.5454 0.295427 95.0603 0.229616 95.5945 0.179291C96.1326 0.128965 96.6513 0.0941237 97.1546 0.0670252C97.6579 0.0399266 98.0837 0.0244418 98.4244 0.0128281C98.9044 -0.00265679 99.4038 -0.00265679 99.9186 0.00508565C100.434 0.0128281 100.952 0.0554115 101.471 0.132836C101.99 0.21026 102.497 0.318654 102.992 0.465761C103.488 0.608996 103.929 0.837398 104.336 1.10838C105.78 2.08006 106.535 3.41176 106.585 5.14219C106.616 6.23388 106.329 7.17458 105.722 7.96431C105.114 8.75404 104.312 9.32311 103.31 9.67152C104.425 10.0935 105.331 10.7632 106.035 11.6768C106.74 12.5904 107.108 13.6473 107.142 14.8551C107.177 15.9932 106.968 16.9997 106.523 17.8785C106.078 18.7573 105.474 19.5083 104.715 20.1316C104.061 20.6697 103.321 21.0994 102.501 21.4207C106 21.471 109.453 21.7459 112.849 22.253C112.663 22.1059 112.492 21.9433 112.338 21.773C111.629 20.9832 111.141 20.058 110.878 19.0012C110.615 17.9443 110.522 16.8255 110.599 15.6448C110.677 14.4641 110.832 13.3492 111.056 12.304C111.192 11.6807 111.362 11.0264 111.567 10.3374C111.776 9.64829 112.012 8.97083 112.287 8.30885C112.558 7.64687 112.86 7.00425 113.193 6.38873C113.526 5.7732 113.898 5.208 114.316 4.68926C114.083 4.45312 113.905 4.16665 113.781 3.82598C113.658 3.48531 113.631 3.14852 113.7 2.81559C113.816 2.28136 114.126 1.89811 114.633 1.66971C115.14 1.44131 115.713 1.30582 116.356 1.2671C116.998 1.22839 117.637 1.25549 118.272 1.34453C118.911 1.43357 119.418 1.51873 119.801 1.60003C121.35 1.92908 122.515 2.52525 123.301 3.3924C124.087 4.25568 124.625 5.27382 124.911 6.43905C125.198 7.60429 125.287 8.84695 125.178 10.1593C125.07 11.4755 124.884 12.7414 124.621 13.9647C124.385 15.0564 124.036 16.2139 123.572 17.4411C123.107 18.6682 122.499 19.7715 121.748 20.7509C120.997 21.7304 120.103 22.4891 119.058 23.0234C118.849 23.1318 118.632 23.2208 118.408 23.2943C119.53 23.546 120.649 23.8208 121.76 24.1228C121.807 24.0841 121.857 24.0531 121.911 24.026C122.147 23.8983 122.41 23.8324 122.697 23.8247C122.983 23.817 123.274 23.8518 123.56 23.9331C123.851 24.0105 124.11 24.0996 124.346 24.1925C125.198 24.5331 125.987 24.6609 126.715 24.5718C127.443 24.4828 128.124 24.2389 128.755 23.8441C129.386 23.4453 129.967 22.9421 130.501 22.3343C131.032 21.7265 131.512 21.0645 131.938 20.3522C132.363 19.6399 132.743 18.9199 133.076 18.1959C133.409 17.472 133.703 16.7907 133.958 16.1597C134.121 15.7571 134.326 15.2538 134.578 14.6422C134.825 14.0305 135.065 13.3956 135.294 12.7414C135.522 12.0872 135.727 11.4445 135.909 10.8174C136.091 10.1903 136.2 9.65216 136.235 9.19923C136.25 8.98244 136.242 8.73469 136.219 8.45596C136.196 8.17723 136.173 7.8985 136.153 7.61977C136.13 7.34105 136.115 7.0778 136.103 6.82617C136.091 6.57842 136.122 6.36937 136.192 6.19904C136.32 5.8816 136.513 5.66481 136.773 5.54867C137.032 5.43254 137.318 5.38221 137.632 5.39769C137.946 5.41318 138.267 5.46738 138.584 5.56029C138.906 5.65319 139.184 5.7461 139.417 5.83901L140.946 6.45067C142.158 6.93457 143.323 7.4959 144.438 8.12303C145.553 8.75404 146.466 9.62507 147.171 10.7438C147.728 11.6265 147.995 12.5285 147.984 13.4421C147.972 14.3557 147.771 15.2887 147.384 16.2371C147.004 17.1662 146.501 17.9366 145.866 18.556C145.231 19.1715 144.515 19.6477 143.714 19.9767C142.912 20.3058 142.053 20.5032 141.139 20.5651C140.226 20.6271 139.308 20.5651 138.387 20.4025L137.384 20.2206L135.441 24.9977C135.004 26.0739 134.442 26.9217 133.757 27.5449C133.517 27.7617 133.269 27.9553 133.01 28.1256C135.518 29.2328 137.973 30.4716 140.373 31.8265C140.334 31.5749 140.396 31.331 140.559 31.091C140.69 30.9052 140.865 30.6922 141.085 30.4561C141.306 30.22 141.534 29.9877 141.774 29.767C142.014 29.5425 142.25 29.318 142.49 29.0973C142.73 28.8728 142.94 28.6715 143.121 28.4895C143.884 27.7153 145.618 25.9384 146.342 25.137C147.066 24.3318 147.74 23.484 148.363 22.582C148.909 21.7962 149.428 20.9871 149.915 20.1625C150.403 19.338 150.837 18.4708 151.212 17.5688C151.278 17.3946 151.356 17.1701 151.448 16.8991C151.537 16.6281 151.63 16.3455 151.723 16.0513C151.816 15.7571 151.905 15.4861 151.994 15.2422C152.079 14.9983 152.165 14.8202 152.242 14.708C152.463 14.3905 152.734 14.2086 153.055 14.166C153.376 14.1234 153.709 14.1583 154.05 14.2667C154.391 14.3751 154.72 14.5338 155.041 14.7351C155.358 14.9403 155.629 15.1183 155.858 15.2732L156.338 15.6022C156.566 15.7571 156.814 15.939 157.081 16.1519C157.352 16.3649 157.588 16.5855 157.786 16.8217C157.987 17.0539 158.119 17.2978 158.18 17.5456C158.242 17.7972 158.196 18.0334 158.041 18.2579C157.82 18.5753 157.565 18.8502 157.279 19.0825C156.992 19.3147 156.725 19.5664 156.481 19.8412C156.075 20.2283 155.703 20.6348 155.362 21.0645C155.022 21.4942 154.677 21.9239 154.329 22.3459C153.953 22.8879 153.791 23.2827 153.845 23.5266C153.899 23.7705 154.058 23.9834 154.321 24.1615C154.433 24.2389 154.557 24.3163 154.685 24.3899C154.813 24.4634 154.956 24.5525 155.107 24.657C155.409 24.8622 155.699 24.8544 155.982 24.6338C156.26 24.4093 156.473 24.1963 156.617 23.9912C156.771 23.7666 156.946 23.5073 157.139 23.2092C157.333 22.9111 157.503 22.6053 157.65 22.2956C157.797 21.982 157.917 21.6607 158.002 21.3355C158.091 21.0103 158.115 20.6929 158.072 20.3909C158.026 20.0541 157.983 19.756 157.944 19.4928C157.906 19.2296 157.987 18.9508 158.196 18.6489C158.39 18.3663 158.626 18.2037 158.897 18.1534C159.168 18.103 159.458 18.1224 159.772 18.2153C160.085 18.3043 160.399 18.4437 160.716 18.6334C161.03 18.8192 161.32 19.005 161.587 19.187L162.269 19.6515C162.497 19.8064 162.783 20.0115 163.136 20.267C163.488 20.5225 163.805 20.8051 164.088 21.1226C164.371 21.44 164.58 21.7691 164.715 22.1097C164.854 22.4543 164.812 22.7833 164.591 23.1008C164.293 23.5305 163.933 23.9021 163.511 24.2079C163.089 24.5138 162.69 24.8428 162.307 25.1874C161.758 25.6984 161.258 26.2287 160.801 26.7901C160.345 27.3475 159.907 27.9282 159.493 28.5282L155.846 33.7853C155.56 34.1957 155.238 34.6835 154.878 35.2371C154.522 35.7945 154.189 36.3829 153.883 37.0023C153.578 37.6217 153.338 38.2372 153.163 38.8528C152.989 39.4644 152.958 40.0296 153.07 40.5522L153.078 40.5793C153.76 41.1407 154.429 41.7097 155.099 42.2904L155.118 42.2788ZM110.437 28.3734C152.908 33.7892 186.003 77.1624 186.003 129.873C186.003 182.583 152.908 225.957 110.437 231.372V229.777C151.886 224.335 184.153 181.685 184.153 129.873C184.153 78.0605 151.878 35.4074 110.429 29.9645V28.3695L110.437 28.3734Z" fill="white"/>
</svg>
