<svg width="25" height="24" viewBox="0 0 25 24" fill="none" xmlns="http://www.w3.org/2000/svg">
<path fill-rule="evenodd" clip-rule="evenodd" d="M12.5 2C16.37 2 19.5 5.13 19.5 9C19.5 14.25 12.5 22 12.5 22C12.5 22 5.5 14.25 5.5 9C5.5 5.13 8.63 2 12.5 2ZM7.5 9C7.5 11.85 10.42 16.21 12.5 18.88C14.62 16.19 17.5 11.88 17.5 9C17.5 6.24 15.26 4 12.5 4C9.74 4 7.5 6.24 7.5 9ZM12.5 11.5C11.1193 11.5 10 10.3807 10 9C10 7.61929 11.1193 6.5 12.5 6.5C13.8807 6.5 15 7.61929 15 9C15 10.3807 13.8807 11.5 12.5 11.5Z" fill="black"/>
</svg>
