<svg width="32" height="32" viewBox="0 0 32 32" fill="none" xmlns="http://www.w3.org/2000/svg">
<rect width="32" height="32" rx="16" fill="#E50F01"/>
<path d="M15.9999 18.17C13.8699 18.17 12.1299 16.44 12.1299 14.3C12.1299 12.16 13.8699 10.44 15.9999 10.44C18.1299 10.44 19.8699 12.17 19.8699 14.31C19.8699 16.45 18.1299 18.17 15.9999 18.17ZM15.9999 11.94C14.6999 11.94 13.6299 13 13.6299 14.31C13.6299 15.62 14.6899 16.68 15.9999 16.68C17.3099 16.68 18.3699 15.62 18.3699 14.31C18.3699 13 17.2999 11.94 15.9999 11.94Z" fill="white"/>
<path d="M15.9999 26.76C14.5199 26.76 13.0299 26.2 11.8699 25.09C8.91993 22.25 5.65993 17.72 6.88993 12.33C7.99993 7.44 12.2699 5.25 15.9999 5.25C15.9999 5.25 15.9999 5.25 16.0099 5.25C19.7399 5.25 24.0099 7.44 25.1199 12.34C26.3399 17.73 23.0799 22.25 20.1299 25.09C18.9699 26.2 17.4799 26.76 15.9999 26.76ZM15.9999 6.75C13.0899 6.75 9.34993 8.3 8.35993 12.66C7.27993 17.37 10.2399 21.43 12.9199 24C14.6499 25.67 17.3599 25.67 19.0899 24C21.7599 21.43 24.7199 17.37 23.6599 12.66C22.6599 8.3 18.9099 6.75 15.9999 6.75Z" fill="white"/>
</svg>
